<?xml version="1.0" encoding="utf-8" standalone="no"?>
<!DOCTYPE svg PUBLIC "-//W3C//DTD SVG 1.1//EN"
  "http://www.w3.org/Graphics/SVG/1.1/DTD/svg11.dtd">
<svg xmlns:xlink="http://www.w3.org/1999/xlink" width="648pt" height="360pt" viewBox="0 0 648 360" xmlns="http://www.w3.org/2000/svg" version="1.1">
 <metadata>
  <rdf:RDF xmlns:dc="http://purl.org/dc/elements/1.1/" xmlns:cc="http://creativecommons.org/ns#" xmlns:rdf="http://www.w3.org/1999/02/22-rdf-syntax-ns#">
   <cc:Work>
    <dc:type rdf:resource="http://purl.org/dc/dcmitype/StillImage"/>
    <dc:date>2026-07-05T02:29:09.555928</dc:date>
    <dc:format>image/svg+xml</dc:format>
    <dc:creator>
     <cc:Agent>
      <dc:title>Matplotlib v3.10.0, https://matplotlib.org/</dc:title>
     </cc:Agent>
    </dc:creator>
   </cc:Work>
  </rdf:RDF>
 </metadata>
 <defs>
  <style type="text/css">*{stroke-linejoin: round; stroke-linecap: butt}</style>
 </defs>
 <g id="figure_1">
  <g id="patch_1">
   <path d="M 0 360 
L 648 360 
L 648 0 
L 0 0 
z
" style="fill: #ffffff"/>
  </g>
  <g id="axes_1">
   <g id="patch_2">
    <path d="M 47.81 318.04 
L 637.2 318.04 
L 637.2 25.44 
L 47.81 25.44 
z
" style="fill: #ffffff"/>
   </g>
   <g id="matplotlib.axis_1">
    <g id="xtick_1">
     <g id="line2d_1">
      <path d="M 64.212319 318.04 
L 64.212319 25.44 
" clip-path="url(#p517053f0ac)" style="fill: none; stroke: #b0b0b0; stroke-opacity: 0.3; stroke-width: 0.8; stroke-linecap: square"/>
     </g>
     <g id="line2d_2">
      <defs>
       <path id="m3d26ee3c59" d="M 0 0 
L 0 3.5 
" style="stroke: #000000; stroke-width: 0.8"/>
      </defs>
      <g>
       <use xlink:href="#m3d26ee3c59" x="64.212319" y="318.04" style="stroke: #000000; stroke-width: 0.8"/>
      </g>
     </g>
     <g id="text_1">
      <!-- 0 -->
      <g transform="translate(61.031069 332.638438) scale(0.1 -0.1)">
       <defs>
        <path id="DejaVuSans-30" d="M 2034 4250 
Q 1547 4250 1301 3770 
Q 1056 3291 1056 2328 
Q 1056 1369 1301 889 
Q 1547 409 2034 409 
Q 2525 409 2770 889 
Q 3016 1369 3016 2328 
Q 3016 3291 2770 3770 
Q 2525 4250 2034 4250 
z
M 2034 4750 
Q 2819 4750 3233 4129 
Q 3647 3509 3647 2328 
Q 3647 1150 3233 529 
Q 2819 -91 2034 -91 
Q 1250 -91 836 529 
Q 422 1150 422 2328 
Q 422 3509 836 4129 
Q 1250 4750 2034 4750 
z
" transform="scale(0.015625)"/>
       </defs>
       <use xlink:href="#DejaVuSans-30"/>
      </g>
     </g>
    </g>
    <g id="xtick_2">
     <g id="line2d_3">
      <path d="M 173.561113 318.04 
L 173.561113 25.44 
" clip-path="url(#p517053f0ac)" style="fill: none; stroke: #b0b0b0; stroke-opacity: 0.3; stroke-width: 0.8; stroke-linecap: square"/>
     </g>
     <g id="line2d_4">
      <g>
       <use xlink:href="#m3d26ee3c59" x="173.561113" y="318.04" style="stroke: #000000; stroke-width: 0.8"/>
      </g>
     </g>
     <g id="text_2">
      <!-- 1000 -->
      <g transform="translate(160.836113 332.638438) scale(0.1 -0.1)">
       <defs>
        <path id="DejaVuSans-31" d="M 794 531 
L 1825 531 
L 1825 4091 
L 703 3866 
L 703 4441 
L 1819 4666 
L 2450 4666 
L 2450 531 
L 3481 531 
L 3481 0 
L 794 0 
L 794 531 
z
" transform="scale(0.015625)"/>
       </defs>
       <use xlink:href="#DejaVuSans-31"/>
       <use xlink:href="#DejaVuSans-30" transform="translate(63.623047 0)"/>
       <use xlink:href="#DejaVuSans-30" transform="translate(127.246094 0)"/>
       <use xlink:href="#DejaVuSans-30" transform="translate(190.869141 0)"/>
      </g>
     </g>
    </g>
    <g id="xtick_3">
     <g id="line2d_5">
      <path d="M 282.909907 318.04 
L 282.909907 25.44 
" clip-path="url(#p517053f0ac)" style="fill: none; stroke: #b0b0b0; stroke-opacity: 0.3; stroke-width: 0.8; stroke-linecap: square"/>
     </g>
     <g id="line2d_6">
      <g>
       <use xlink:href="#m3d26ee3c59" x="282.909907" y="318.04" style="stroke: #000000; stroke-width: 0.8"/>
      </g>
     </g>
     <g id="text_3">
      <!-- 2000 -->
      <g transform="translate(270.184907 332.638438) scale(0.1 -0.1)">
       <defs>
        <path id="DejaVuSans-32" d="M 1228 531 
L 3431 531 
L 3431 0 
L 469 0 
L 469 531 
Q 828 903 1448 1529 
Q 2069 2156 2228 2338 
Q 2531 2678 2651 2914 
Q 2772 3150 2772 3378 
Q 2772 3750 2511 3984 
Q 2250 4219 1831 4219 
Q 1534 4219 1204 4116 
Q 875 4013 500 3803 
L 500 4441 
Q 881 4594 1212 4672 
Q 1544 4750 1819 4750 
Q 2544 4750 2975 4387 
Q 3406 4025 3406 3419 
Q 3406 3131 3298 2873 
Q 3191 2616 2906 2266 
Q 2828 2175 2409 1742 
Q 1991 1309 1228 531 
z
" transform="scale(0.015625)"/>
       </defs>
       <use xlink:href="#DejaVuSans-32"/>
       <use xlink:href="#DejaVuSans-30" transform="translate(63.623047 0)"/>
       <use xlink:href="#DejaVuSans-30" transform="translate(127.246094 0)"/>
       <use xlink:href="#DejaVuSans-30" transform="translate(190.869141 0)"/>
      </g>
     </g>
    </g>
    <g id="xtick_4">
     <g id="line2d_7">
      <path d="M 392.258701 318.04 
L 392.258701 25.44 
" clip-path="url(#p517053f0ac)" style="fill: none; stroke: #b0b0b0; stroke-opacity: 0.3; stroke-width: 0.8; stroke-linecap: square"/>
     </g>
     <g id="line2d_8">
      <g>
       <use xlink:href="#m3d26ee3c59" x="392.258701" y="318.04" style="stroke: #000000; stroke-width: 0.8"/>
      </g>
     </g>
     <g id="text_4">
      <!-- 3000 -->
      <g transform="translate(379.533701 332.638438) scale(0.1 -0.1)">
       <defs>
        <path id="DejaVuSans-33" d="M 2597 2516 
Q 3050 2419 3304 2112 
Q 3559 1806 3559 1356 
Q 3559 666 3084 287 
Q 2609 -91 1734 -91 
Q 1441 -91 1130 -33 
Q 819 25 488 141 
L 488 750 
Q 750 597 1062 519 
Q 1375 441 1716 441 
Q 2309 441 2620 675 
Q 2931 909 2931 1356 
Q 2931 1769 2642 2001 
Q 2353 2234 1838 2234 
L 1294 2234 
L 1294 2753 
L 1863 2753 
Q 2328 2753 2575 2939 
Q 2822 3125 2822 3475 
Q 2822 3834 2567 4026 
Q 2313 4219 1838 4219 
Q 1578 4219 1281 4162 
Q 984 4106 628 3988 
L 628 4550 
Q 988 4650 1302 4700 
Q 1616 4750 1894 4750 
Q 2613 4750 3031 4423 
Q 3450 4097 3450 3541 
Q 3450 3153 3228 2886 
Q 3006 2619 2597 2516 
z
" transform="scale(0.015625)"/>
       </defs>
       <use xlink:href="#DejaVuSans-33"/>
       <use xlink:href="#DejaVuSans-30" transform="translate(63.623047 0)"/>
       <use xlink:href="#DejaVuSans-30" transform="translate(127.246094 0)"/>
       <use xlink:href="#DejaVuSans-30" transform="translate(190.869141 0)"/>
      </g>
     </g>
    </g>
    <g id="xtick_5">
     <g id="line2d_9">
      <path d="M 501.607495 318.04 
L 501.607495 25.44 
" clip-path="url(#p517053f0ac)" style="fill: none; stroke: #b0b0b0; stroke-opacity: 0.3; stroke-width: 0.8; stroke-linecap: square"/>
     </g>
     <g id="line2d_10">
      <g>
       <use xlink:href="#m3d26ee3c59" x="501.607495" y="318.04" style="stroke: #000000; stroke-width: 0.8"/>
      </g>
     </g>
     <g id="text_5">
      <!-- 4000 -->
      <g transform="translate(488.882495 332.638438) scale(0.1 -0.1)">
       <defs>
        <path id="DejaVuSans-34" d="M 2419 4116 
L 825 1625 
L 2419 1625 
L 2419 4116 
z
M 2253 4666 
L 3047 4666 
L 3047 1625 
L 3713 1625 
L 3713 1100 
L 3047 1100 
L 3047 0 
L 2419 0 
L 2419 1100 
L 313 1100 
L 313 1709 
L 2253 4666 
z
" transform="scale(0.015625)"/>
       </defs>
       <use xlink:href="#DejaVuSans-34"/>
       <use xlink:href="#DejaVuSans-30" transform="translate(63.623047 0)"/>
       <use xlink:href="#DejaVuSans-30" transform="translate(127.246094 0)"/>
       <use xlink:href="#DejaVuSans-30" transform="translate(190.869141 0)"/>
      </g>
     </g>
    </g>
    <g id="xtick_6">
     <g id="line2d_11">
      <path d="M 610.956289 318.04 
L 610.956289 25.44 
" clip-path="url(#p517053f0ac)" style="fill: none; stroke: #b0b0b0; stroke-opacity: 0.3; stroke-width: 0.8; stroke-linecap: square"/>
     </g>
     <g id="line2d_12">
      <g>
       <use xlink:href="#m3d26ee3c59" x="610.956289" y="318.04" style="stroke: #000000; stroke-width: 0.8"/>
      </g>
     </g>
     <g id="text_6">
      <!-- 5000 -->
      <g transform="translate(598.231289 332.638438) scale(0.1 -0.1)">
       <defs>
        <path id="DejaVuSans-35" d="M 691 4666 
L 3169 4666 
L 3169 4134 
L 1269 4134 
L 1269 2991 
Q 1406 3038 1543 3061 
Q 1681 3084 1819 3084 
Q 2600 3084 3056 2656 
Q 3513 2228 3513 1497 
Q 3513 744 3044 326 
Q 2575 -91 1722 -91 
Q 1428 -91 1123 -41 
Q 819 9 494 109 
L 494 744 
Q 775 591 1075 516 
Q 1375 441 1709 441 
Q 2250 441 2565 725 
Q 2881 1009 2881 1497 
Q 2881 1984 2565 2268 
Q 2250 2553 1709 2553 
Q 1456 2553 1204 2497 
Q 953 2441 691 2322 
L 691 4666 
z
" transform="scale(0.015625)"/>
       </defs>
       <use xlink:href="#DejaVuSans-35"/>
       <use xlink:href="#DejaVuSans-30" transform="translate(63.623047 0)"/>
       <use xlink:href="#DejaVuSans-30" transform="translate(127.246094 0)"/>
       <use xlink:href="#DejaVuSans-30" transform="translate(190.869141 0)"/>
      </g>
     </g>
    </g>
    <g id="text_7">
     <!-- step -->
     <g transform="translate(331.689375 346.316563) scale(0.1 -0.1)">
      <defs>
       <path id="DejaVuSans-73" d="M 2834 3397 
L 2834 2853 
Q 2591 2978 2328 3040 
Q 2066 3103 1784 3103 
Q 1356 3103 1142 2972 
Q 928 2841 928 2578 
Q 928 2378 1081 2264 
Q 1234 2150 1697 2047 
L 1894 2003 
Q 2506 1872 2764 1633 
Q 3022 1394 3022 966 
Q 3022 478 2636 193 
Q 2250 -91 1575 -91 
Q 1294 -91 989 -36 
Q 684 19 347 128 
L 347 722 
Q 666 556 975 473 
Q 1284 391 1588 391 
Q 1994 391 2212 530 
Q 2431 669 2431 922 
Q 2431 1156 2273 1281 
Q 2116 1406 1581 1522 
L 1381 1569 
Q 847 1681 609 1914 
Q 372 2147 372 2553 
Q 372 3047 722 3315 
Q 1072 3584 1716 3584 
Q 2034 3584 2315 3537 
Q 2597 3491 2834 3397 
z
" transform="scale(0.015625)"/>
       <path id="DejaVuSans-74" d="M 1172 4494 
L 1172 3500 
L 2356 3500 
L 2356 3053 
L 1172 3053 
L 1172 1153 
Q 1172 725 1289 603 
Q 1406 481 1766 481 
L 2356 481 
L 2356 0 
L 1766 0 
Q 1100 0 847 248 
Q 594 497 594 1153 
L 594 3053 
L 172 3053 
L 172 3500 
L 594 3500 
L 594 4494 
L 1172 4494 
z
" transform="scale(0.015625)"/>
       <path id="DejaVuSans-65" d="M 3597 1894 
L 3597 1613 
L 953 1613 
Q 991 1019 1311 708 
Q 1631 397 2203 397 
Q 2534 397 2845 478 
Q 3156 559 3463 722 
L 3463 178 
Q 3153 47 2828 -22 
Q 2503 -91 2169 -91 
Q 1331 -91 842 396 
Q 353 884 353 1716 
Q 353 2575 817 3079 
Q 1281 3584 2069 3584 
Q 2775 3584 3186 3129 
Q 3597 2675 3597 1894 
z
M 3022 2063 
Q 3016 2534 2758 2815 
Q 2500 3097 2075 3097 
Q 1594 3097 1305 2825 
Q 1016 2553 972 2059 
L 3022 2063 
z
" transform="scale(0.015625)"/>
       <path id="DejaVuSans-70" d="M 1159 525 
L 1159 -1331 
L 581 -1331 
L 581 3500 
L 1159 3500 
L 1159 2969 
Q 1341 3281 1617 3432 
Q 1894 3584 2278 3584 
Q 2916 3584 3314 3078 
Q 3713 2572 3713 1747 
Q 3713 922 3314 415 
Q 2916 -91 2278 -91 
Q 1894 -91 1617 61 
Q 1341 213 1159 525 
z
M 3116 1747 
Q 3116 2381 2855 2742 
Q 2594 3103 2138 3103 
Q 1681 3103 1420 2742 
Q 1159 2381 1159 1747 
Q 1159 1113 1420 752 
Q 1681 391 2138 391 
Q 2594 391 2855 752 
Q 3116 1113 3116 1747 
z
" transform="scale(0.015625)"/>
      </defs>
      <use xlink:href="#DejaVuSans-73"/>
      <use xlink:href="#DejaVuSans-74" transform="translate(52.099609 0)"/>
      <use xlink:href="#DejaVuSans-65" transform="translate(91.308594 0)"/>
      <use xlink:href="#DejaVuSans-70" transform="translate(152.832031 0)"/>
     </g>
    </g>
   </g>
   <g id="matplotlib.axis_2">
    <g id="ytick_1">
     <g id="line2d_13">
      <path d="M 47.81 260.80937 
L 637.2 260.80937 
" clip-path="url(#p517053f0ac)" style="fill: none; stroke: #b0b0b0; stroke-opacity: 0.3; stroke-width: 0.8; stroke-linecap: square"/>
     </g>
     <g id="line2d_14">
      <defs>
       <path id="mf801666d34" d="M 0 0 
L -3.5 0 
" style="stroke: #000000; stroke-width: 0.8"/>
      </defs>
      <g>
       <use xlink:href="#mf801666d34" x="47.81" y="260.80937" style="stroke: #000000; stroke-width: 0.8"/>
      </g>
     </g>
     <g id="text_8">
      <!-- 2.4 -->
      <g transform="translate(24.906875 264.608588) scale(0.1 -0.1)">
       <defs>
        <path id="DejaVuSans-2e" d="M 684 794 
L 1344 794 
L 1344 0 
L 684 0 
L 684 794 
z
" transform="scale(0.015625)"/>
       </defs>
       <use xlink:href="#DejaVuSans-32"/>
       <use xlink:href="#DejaVuSans-2e" transform="translate(63.623047 0)"/>
       <use xlink:href="#DejaVuSans-34" transform="translate(95.410156 0)"/>
      </g>
     </g>
    </g>
    <g id="ytick_2">
     <g id="line2d_15">
      <path d="M 47.81 202.196666 
L 637.2 202.196666 
" clip-path="url(#p517053f0ac)" style="fill: none; stroke: #b0b0b0; stroke-opacity: 0.3; stroke-width: 0.8; stroke-linecap: square"/>
     </g>
     <g id="line2d_16">
      <g>
       <use xlink:href="#mf801666d34" x="47.81" y="202.196666" style="stroke: #000000; stroke-width: 0.8"/>
      </g>
     </g>
     <g id="text_9">
      <!-- 2.6 -->
      <g transform="translate(24.906875 205.995885) scale(0.1 -0.1)">
       <defs>
        <path id="DejaVuSans-36" d="M 2113 2584 
Q 1688 2584 1439 2293 
Q 1191 2003 1191 1497 
Q 1191 994 1439 701 
Q 1688 409 2113 409 
Q 2538 409 2786 701 
Q 3034 994 3034 1497 
Q 3034 2003 2786 2293 
Q 2538 2584 2113 2584 
z
M 3366 4563 
L 3366 3988 
Q 3128 4100 2886 4159 
Q 2644 4219 2406 4219 
Q 1781 4219 1451 3797 
Q 1122 3375 1075 2522 
Q 1259 2794 1537 2939 
Q 1816 3084 2150 3084 
Q 2853 3084 3261 2657 
Q 3669 2231 3669 1497 
Q 3669 778 3244 343 
Q 2819 -91 2113 -91 
Q 1303 -91 875 529 
Q 447 1150 447 2328 
Q 447 3434 972 4092 
Q 1497 4750 2381 4750 
Q 2619 4750 2861 4703 
Q 3103 4656 3366 4563 
z
" transform="scale(0.015625)"/>
       </defs>
       <use xlink:href="#DejaVuSans-32"/>
       <use xlink:href="#DejaVuSans-2e" transform="translate(63.623047 0)"/>
       <use xlink:href="#DejaVuSans-36" transform="translate(95.410156 0)"/>
      </g>
     </g>
    </g>
    <g id="ytick_3">
     <g id="line2d_17">
      <path d="M 47.81 143.583962 
L 637.2 143.583962 
" clip-path="url(#p517053f0ac)" style="fill: none; stroke: #b0b0b0; stroke-opacity: 0.3; stroke-width: 0.8; stroke-linecap: square"/>
     </g>
     <g id="line2d_18">
      <g>
       <use xlink:href="#mf801666d34" x="47.81" y="143.583962" style="stroke: #000000; stroke-width: 0.8"/>
      </g>
     </g>
     <g id="text_10">
      <!-- 2.8 -->
      <g transform="translate(24.906875 147.383181) scale(0.1 -0.1)">
       <defs>
        <path id="DejaVuSans-38" d="M 2034 2216 
Q 1584 2216 1326 1975 
Q 1069 1734 1069 1313 
Q 1069 891 1326 650 
Q 1584 409 2034 409 
Q 2484 409 2743 651 
Q 3003 894 3003 1313 
Q 3003 1734 2745 1975 
Q 2488 2216 2034 2216 
z
M 1403 2484 
Q 997 2584 770 2862 
Q 544 3141 544 3541 
Q 544 4100 942 4425 
Q 1341 4750 2034 4750 
Q 2731 4750 3128 4425 
Q 3525 4100 3525 3541 
Q 3525 3141 3298 2862 
Q 3072 2584 2669 2484 
Q 3125 2378 3379 2068 
Q 3634 1759 3634 1313 
Q 3634 634 3220 271 
Q 2806 -91 2034 -91 
Q 1263 -91 848 271 
Q 434 634 434 1313 
Q 434 1759 690 2068 
Q 947 2378 1403 2484 
z
M 1172 3481 
Q 1172 3119 1398 2916 
Q 1625 2713 2034 2713 
Q 2441 2713 2670 2916 
Q 2900 3119 2900 3481 
Q 2900 3844 2670 4047 
Q 2441 4250 2034 4250 
Q 1625 4250 1398 4047 
Q 1172 3844 1172 3481 
z
" transform="scale(0.015625)"/>
       </defs>
       <use xlink:href="#DejaVuSans-32"/>
       <use xlink:href="#DejaVuSans-2e" transform="translate(63.623047 0)"/>
       <use xlink:href="#DejaVuSans-38" transform="translate(95.410156 0)"/>
      </g>
     </g>
    </g>
    <g id="ytick_4">
     <g id="line2d_19">
      <path d="M 47.81 84.971259 
L 637.2 84.971259 
" clip-path="url(#p517053f0ac)" style="fill: none; stroke: #b0b0b0; stroke-opacity: 0.3; stroke-width: 0.8; stroke-linecap: square"/>
     </g>
     <g id="line2d_20">
      <g>
       <use xlink:href="#mf801666d34" x="47.81" y="84.971259" style="stroke: #000000; stroke-width: 0.8"/>
      </g>
     </g>
     <g id="text_11">
      <!-- 3.0 -->
      <g transform="translate(24.906875 88.770477) scale(0.1 -0.1)">
       <use xlink:href="#DejaVuSans-33"/>
       <use xlink:href="#DejaVuSans-2e" transform="translate(63.623047 0)"/>
       <use xlink:href="#DejaVuSans-30" transform="translate(95.410156 0)"/>
      </g>
     </g>
    </g>
    <g id="ytick_5">
     <g id="line2d_21">
      <path d="M 47.81 26.358555 
L 637.2 26.358555 
" clip-path="url(#p517053f0ac)" style="fill: none; stroke: #b0b0b0; stroke-opacity: 0.3; stroke-width: 0.8; stroke-linecap: square"/>
     </g>
     <g id="line2d_22">
      <g>
       <use xlink:href="#mf801666d34" x="47.81" y="26.358555" style="stroke: #000000; stroke-width: 0.8"/>
      </g>
     </g>
     <g id="text_12">
      <!-- 3.2 -->
      <g transform="translate(24.906875 30.157774) scale(0.1 -0.1)">
       <use xlink:href="#DejaVuSans-33"/>
       <use xlink:href="#DejaVuSans-2e" transform="translate(63.623047 0)"/>
       <use xlink:href="#DejaVuSans-32" transform="translate(95.410156 0)"/>
      </g>
     </g>
    </g>
    <g id="text_13">
     <!-- loss -->
     <g transform="translate(18.827188 181.397813) rotate(-90) scale(0.1 -0.1)">
      <defs>
       <path id="DejaVuSans-6c" d="M 603 4863 
L 1178 4863 
L 1178 0 
L 603 0 
L 603 4863 
z
" transform="scale(0.015625)"/>
       <path id="DejaVuSans-6f" d="M 1959 3097 
Q 1497 3097 1228 2736 
Q 959 2375 959 1747 
Q 959 1119 1226 758 
Q 1494 397 1959 397 
Q 2419 397 2687 759 
Q 2956 1122 2956 1747 
Q 2956 2369 2687 2733 
Q 2419 3097 1959 3097 
z
M 1959 3584 
Q 2709 3584 3137 3096 
Q 3566 2609 3566 1747 
Q 3566 888 3137 398 
Q 2709 -91 1959 -91 
Q 1206 -91 779 398 
Q 353 888 353 1747 
Q 353 2609 779 3096 
Q 1206 3584 1959 3584 
z
" transform="scale(0.015625)"/>
      </defs>
      <use xlink:href="#DejaVuSans-6c"/>
      <use xlink:href="#DejaVuSans-6f" transform="translate(27.783203 0)"/>
      <use xlink:href="#DejaVuSans-73" transform="translate(88.964844 0)"/>
      <use xlink:href="#DejaVuSans-73" transform="translate(141.064453 0)"/>
     </g>
    </g>
   </g>
   <g id="line2d_23">
    <path d="M 74.600455 304.74 
L 75.147199 268.567419 
L 76.240686 251.144037 
L 77.334174 217.385786 
L 77.880918 214.157277 
L 78.427662 207.576563 
L 78.974406 189.226691 
L 79.52115 182.25298 
L 80.067894 179.799726 
L 80.614638 181.798747 
L 81.161382 186.058173 
L 81.708126 177.085098 
L 82.25487 183.732498 
L 83.348358 167.799753 
L 83.895102 159.346272 
L 84.441846 152.667288 
L 84.98859 155.152854 
L 85.535334 151.688866 
L 86.082078 161.693507 
L 86.628822 150.684403 
L 87.175566 144.553625 
L 87.72231 146.309783 
L 88.269054 154.747608 
L 88.815798 153.91262 
L 89.362542 159.261892 
L 90.45603 172.374755 
L 91.002774 198.895505 
L 91.549518 215.524246 
L 92.096262 209.357647 
L 92.643006 217.120067 
L 93.18975 217.364479 
L 93.736494 221.281044 
L 94.283237 226.188066 
L 94.829981 239.111594 
L 95.376725 244.09413 
L 96.470213 228.087391 
L 97.016957 215.937589 
L 97.563701 218.996359 
L 98.110445 213.479125 
L 98.657189 204.579524 
L 99.203933 188.873297 
L 100.297421 179.303982 
L 100.844165 178.863562 
L 101.390909 194.118404 
L 101.937653 175.067357 
L 102.484397 164.948849 
L 103.031141 150.341354 
L 103.577885 145.579738 
L 104.124629 135.793111 
L 104.671373 118.221398 
L 105.218117 123.32731 
L 105.764861 120.211329 
L 106.311605 120.079806 
L 106.858349 129.171862 
L 107.405093 145.287887 
L 107.951837 155.542648 
L 108.498581 156.829159 
L 109.045325 157.301691 
L 110.138813 185.07441 
L 110.685557 187.932337 
L 111.232301 194.368657 
L 111.779045 194.982054 
L 112.325788 181.198436 
L 112.872532 173.500966 
L 113.419276 172.620703 
L 113.96602 170.051273 
L 114.512764 161.228038 
L 115.059508 162.040682 
L 116.152996 140.468795 
L 116.69974 133.754389 
L 117.246484 124.614907 
L 117.793228 120.178472 
L 118.339972 107.220232 
L 118.886716 106.020505 
L 119.43346 98.627532 
L 119.980204 105.386188 
L 121.073692 97.810367 
L 121.620436 97.97966 
L 122.16718 85.929442 
L 122.713924 82.787874 
L 123.260668 85.825364 
L 123.807412 79.426988 
L 124.9009 90.850285 
L 125.447644 101.448672 
L 125.994388 101.001904 
L 126.541132 114.186278 
L 127.087876 120.562267 
L 127.63462 125.399354 
L 128.181364 139.284269 
L 128.728108 140.479517 
L 129.274852 155.076041 
L 129.821596 147.996698 
L 130.36834 156.349559 
L 130.915083 151.602634 
L 131.461827 156.639115 
L 132.008571 155.551696 
L 132.555315 153.815784 
L 133.102059 152.639032 
L 133.648803 153.086267 
L 134.195547 147.18005 
L 134.742291 169.685148 
L 135.289035 161.188701 
L 135.835779 155.696827 
L 136.382523 161.66292 
L 136.929267 162.381077 
L 137.476011 155.852407 
L 138.022755 169.177731 
L 138.569499 151.013155 
L 139.116243 137.999011 
L 139.662987 140.162975 
L 140.209731 128.104062 
L 140.756475 133.308905 
L 141.303219 135.6685 
L 141.849963 142.906257 
L 142.396707 135.805833 
L 142.943451 138.093509 
L 143.490195 139.291041 
L 144.036939 146.531429 
L 144.583683 148.442988 
L 145.130427 154.504205 
L 145.677171 149.106847 
L 146.223915 153.934292 
L 146.770659 166.676171 
L 147.317403 164.066065 
L 147.864147 175.100109 
L 148.410891 175.492491 
L 148.957635 159.492776 
L 149.504378 174.798069 
L 150.051122 178.481416 
L 150.597866 172.548456 
L 151.14461 186.971607 
L 151.691354 194.94562 
L 152.238098 198.508068 
L 152.784842 199.773732 
L 153.331586 202.405153 
L 153.87833 203.546215 
L 154.425074 198.718392 
L 155.518562 198.316025 
L 156.065306 188.128533 
L 156.61205 187.119511 
L 157.158794 191.336277 
L 157.705538 190.031946 
L 158.252282 189.15416 
L 158.799026 185.57639 
L 159.34577 192.924107 
L 159.892514 191.817858 
L 160.439258 189.175559 
L 160.986002 192.166644 
L 161.532746 192.740662 
L 162.07949 188.363264 
L 162.626234 187.570999 
L 163.172978 182.739193 
L 163.719722 184.979119 
L 164.266466 181.596311 
L 164.81321 179.239025 
L 165.359954 185.785631 
L 165.906698 182.05286 
L 166.453442 188.983006 
L 167.000186 201.376941 
L 167.546929 191.397586 
L 168.093673 189.695262 
L 168.640417 174.221239 
L 169.733905 170.40589 
L 170.280649 166.238219 
L 170.827393 173.098291 
L 171.374137 175.951554 
L 171.920881 177.561449 
L 172.467625 186.823884 
L 173.014369 183.443155 
L 173.561113 177.035713 
L 174.107857 182.976649 
L 174.654601 179.534038 
L 175.201345 181.743789 
L 175.748089 187.106037 
L 176.294833 188.70899 
L 176.841577 195.547349 
L 177.388321 188.699907 
L 177.935065 189.241479 
L 178.481809 200.471028 
L 179.028553 195.628795 
L 179.575297 211.30373 
L 180.122041 209.060343 
L 180.668785 197.48707 
L 181.215529 207.335016 
L 182.855761 219.554809 
L 183.402505 216.734707 
L 183.949249 223.166517 
L 184.495993 220.677785 
L 185.042737 215.939381 
L 185.589481 209.918229 
L 186.136224 209.400922 
L 186.682968 199.904494 
L 187.229712 193.118714 
L 187.776456 188.829389 
L 188.3232 189.095947 
L 188.869944 180.951248 
L 189.416688 178.0793 
L 189.963432 185.805223 
L 190.510176 180.936085 
L 191.05692 173.732832 
L 191.603664 176.03409 
L 192.150408 170.436889 
L 192.697152 160.26036 
L 193.243896 158.589198 
L 193.79064 151.712119 
L 194.337384 152.791764 
L 194.884128 147.021232 
L 195.430872 151.452322 
L 195.977616 150.95967 
L 196.52436 139.875643 
L 197.071104 135.537401 
L 197.617848 141.217059 
L 198.164592 133.348074 
L 198.711336 135.962991 
L 199.25808 142.838822 
L 199.804824 141.86541 
L 200.351568 138.342045 
L 201.445056 127.460087 
L 201.9918 124.285773 
L 202.538544 124.682166 
L 203.085288 124.138609 
L 203.632032 120.378857 
L 204.178776 124.992107 
L 205.272263 115.230169 
L 205.819007 117.322012 
L 206.365751 109.572147 
L 206.912495 112.358316 
L 207.459239 130.159978 
L 208.005983 137.072006 
L 208.552727 135.46987 
L 209.099471 145.587148 
L 209.646215 147.187904 
L 210.192959 137.436995 
L 210.739703 140.532846 
L 211.286447 140.379251 
L 211.833191 132.808084 
L 212.379935 137.994817 
L 212.926679 148.407785 
L 213.473423 155.242608 
L 214.020167 173.31755 
L 214.566911 181.202739 
L 215.113655 179.855723 
L 215.660399 183.033967 
L 216.207143 181.004474 
L 216.753887 179.936533 
L 217.300631 189.443665 
L 217.847375 176.72526 
L 218.394119 170.525138 
L 218.940863 162.816254 
L 219.487607 164.460106 
L 220.034351 163.731511 
L 220.581095 157.48867 
L 221.674583 173.575748 
L 222.221327 168.531005 
L 222.768071 172.232263 
L 223.314814 170.378474 
L 223.861558 169.223133 
L 224.408302 176.512794 
L 224.955046 154.99719 
L 225.50179 161.974384 
L 226.048534 151.361248 
L 226.595278 150.362549 
L 227.142022 141.719507 
L 227.688766 141.100925 
L 228.23551 137.239586 
L 228.782254 149.740138 
L 229.328998 151.990751 
L 229.875742 155.966833 
L 230.422486 147.343173 
L 230.96923 143.375479 
L 231.515974 149.386364 
L 232.062718 141.659557 
L 232.609462 136.571004 
L 233.156206 150.639521 
L 233.70295 158.037773 
L 234.249694 160.916627 
L 234.796438 160.70945 
L 235.343182 159.860221 
L 235.889926 169.684111 
L 236.43667 162.939345 
L 236.983414 172.819527 
L 237.530158 175.105962 
L 238.076902 193.289162 
L 239.17039 189.432816 
L 239.717134 185.807382 
L 240.263878 191.359932 
L 240.810622 192.184507 
L 241.357365 197.633172 
L 241.904109 207.156378 
L 242.450853 203.249166 
L 242.997597 207.749768 
L 243.544341 206.133854 
L 244.091085 206.531512 
L 244.637829 210.448769 
L 245.184573 208.927209 
L 245.731317 210.687314 
L 246.278061 208.095288 
L 246.824805 200.77322 
L 247.371549 202.63465 
L 247.918293 195.323808 
L 248.465037 186.282709 
L 249.011781 184.360743 
L 249.558525 187.184202 
L 250.105269 182.556489 
L 250.652013 173.177131 
L 251.198757 171.438071 
L 251.745501 171.539479 
L 252.292245 177.104474 
L 252.838989 165.16429 
L 253.385733 168.780393 
L 253.932477 171.055439 
L 254.479221 176.426117 
L 255.025965 170.991241 
L 255.572709 169.884018 
L 256.119453 180.128888 
L 256.666197 179.297899 
L 257.212941 175.568716 
L 257.759685 179.47719 
L 258.306429 178.200252 
L 258.853173 180.061392 
L 259.399917 200.115339 
L 259.94666 205.06513 
L 260.493404 212.634746 
L 261.586892 237.606105 
L 262.133636 235.112877 
L 262.68038 240.664771 
L 263.227124 244.039641 
L 263.773868 257.615422 
L 264.320612 259.52464 
L 264.867356 254.19503 
L 265.4141 257.329884 
L 265.960844 267.172398 
L 266.507588 261.484729 
L 267.054332 252.850065 
L 267.601076 253.345602 
L 268.14782 260.284493 
L 268.694564 256.897353 
L 269.241308 248.321318 
L 269.788052 264.09142 
L 270.334796 258.748636 
L 271.428284 237.857209 
L 271.975028 238.281617 
L 272.521772 237.320464 
L 273.068516 237.260025 
L 273.61526 238.237158 
L 274.162004 232.664268 
L 274.708748 221.106849 
L 275.255492 213.183524 
L 275.802236 213.235963 
L 276.34898 205.316289 
L 276.895724 201.553676 
L 277.989212 208.064165 
L 278.535955 206.301953 
L 279.082699 192.629225 
L 279.629443 193.429788 
L 280.176187 202.923659 
L 280.722931 182.494038 
L 281.269675 182.7347 
L 281.816419 187.39184 
L 282.363163 195.506222 
L 282.909907 191.502929 
L 283.456651 195.55682 
L 284.003395 196.033821 
L 284.550139 194.539427 
L 285.096883 196.485874 
L 285.643627 194.9518 
L 286.190371 197.30657 
L 286.737115 192.973069 
L 287.283859 198.891706 
L 287.830603 190.322543 
L 288.377347 184.264218 
L 288.924091 180.315355 
L 290.564323 211.075815 
L 291.111067 213.208638 
L 291.657811 219.960398 
L 292.204555 217.925549 
L 292.751299 212.955772 
L 293.298043 206.561504 
L 293.844787 210.258993 
L 294.391531 202.579727 
L 294.938275 191.954482 
L 295.485019 184.208006 
L 296.031763 186.472785 
L 296.578506 202.645141 
L 297.12525 205.808926 
L 297.671994 218.941083 
L 298.218738 220.131908 
L 298.765482 230.329238 
L 299.312226 234.215661 
L 299.85897 239.640611 
L 300.405714 239.721414 
L 300.952458 228.766189 
L 301.499202 227.6672 
L 302.045946 228.909559 
L 302.59269 234.285606 
L 303.139434 237.087492 
L 303.686178 235.84244 
L 304.232922 239.690765 
L 305.32641 237.267479 
L 305.873154 240.440772 
L 306.419898 252.015977 
L 306.966642 248.410223 
L 307.513386 232.27356 
L 308.06013 229.862257 
L 308.606874 222.283841 
L 309.153618 221.036972 
L 309.700362 218.42239 
L 310.247106 222.37291 
L 310.79385 216.658173 
L 311.340594 205.530542 
L 311.887338 205.439311 
L 312.434082 202.2894 
L 312.980826 188.456057 
L 313.52757 183.042835 
L 314.074314 168.442084 
L 314.621058 175.363789 
L 315.714545 165.738573 
L 316.261289 169.960772 
L 316.808033 176.881296 
L 317.354777 166.142869 
L 317.901521 164.311854 
L 318.448265 169.830695 
L 318.995009 165.978635 
L 319.541753 164.79673 
L 320.088497 166.066143 
L 320.635241 160.88945 
L 321.181985 161.458888 
L 321.728729 163.643863 
L 322.275473 167.666231 
L 322.822217 178.461751 
L 323.368961 174.284819 
L 323.915705 188.779697 
L 324.462449 187.604935 
L 325.009193 205.921754 
L 325.555937 202.670722 
L 326.102681 200.150673 
L 327.196169 193.383405 
L 327.742913 196.570855 
L 328.836401 212.962818 
L 329.383145 212.98974 
L 329.929889 207.906491 
L 330.476633 213.231961 
L 331.023377 212.360251 
L 331.570121 220.119122 
L 332.116865 208.691989 
L 333.210353 200.013665 
L 333.757096 190.948629 
L 334.30384 197.163347 
L 334.850584 193.25815 
L 335.397328 192.192857 
L 335.944072 176.432702 
L 336.490816 177.646815 
L 337.03756 183.403559 
L 337.584304 186.340731 
L 338.677792 173.789861 
L 339.77128 141.081396 
L 340.318024 133.419333 
L 340.864768 138.031178 
L 341.411512 136.401139 
L 342.505 126.374234 
L 343.051744 123.743016 
L 343.598488 128.08888 
L 344.145232 121.764362 
L 344.691976 112.566632 
L 345.785464 87.728647 
L 346.332208 87.110146 
L 346.878952 96.534156 
L 347.425696 94.776105 
L 347.97244 99.082897 
L 348.519184 108.536955 
L 349.065928 103.642202 
L 349.612672 101.656802 
L 350.159416 105.92738 
L 350.70616 106.241761 
L 351.252904 113.444651 
L 351.799647 111.690003 
L 352.893135 91.135575 
L 353.439879 82.166444 
L 353.986623 79.726274 
L 354.533367 73.425788 
L 355.080111 80.869072 
L 355.626855 95.05331 
L 356.720343 114.650799 
L 357.267087 114.071594 
L 357.813831 109.384807 
L 358.360575 117.429272 
L 358.907319 110.716445 
L 359.454063 100.643441 
L 360.000807 117.473081 
L 360.547551 118.650414 
L 361.094295 133.987135 
L 361.641039 134.555029 
L 362.187783 140.928495 
L 363.281271 125.678272 
L 363.828015 140.778041 
L 364.374759 147.423616 
L 364.921503 157.303277 
L 365.468247 175.075132 
L 366.014991 170.382692 
L 366.561735 170.976903 
L 367.108479 171.379372 
L 367.655223 168.06515 
L 368.201967 179.543038 
L 368.748711 181.225861 
L 369.295455 170.708599 
L 369.842199 170.464498 
L 370.388942 175.972862 
L 370.935686 173.345504 
L 371.48243 178.268335 
L 372.029174 165.454398 
L 372.575918 176.320079 
L 373.122662 171.010302 
L 373.669406 190.418546 
L 374.21615 203.153553 
L 374.762894 188.198786 
L 375.309638 196.358291 
L 375.856382 195.996764 
L 376.403126 176.75422 
L 376.94987 182.6017 
L 377.496614 185.498905 
L 378.043358 198.886408 
L 378.590102 200.541307 
L 379.136846 189.883501 
L 379.68359 190.008701 
L 380.230334 191.119104 
L 380.777078 202.491286 
L 381.323822 193.711218 
L 381.870566 187.049743 
L 382.41731 183.668748 
L 382.964054 185.621071 
L 384.057542 185.973294 
L 384.604286 175.756474 
L 385.15103 178.401603 
L 385.697774 187.907283 
L 386.244518 164.954498 
L 386.791262 150.886918 
L 387.338006 153.837506 
L 387.88475 148.283334 
L 388.431494 145.358809 
L 388.978237 131.460676 
L 390.071725 147.335476 
L 390.618469 145.501684 
L 391.165213 147.478906 
L 391.711957 127.21615 
L 392.258701 127.477946 
L 392.805445 137.196905 
L 393.352189 142.870477 
L 393.898933 150.582631 
L 394.445677 139.680613 
L 394.992421 139.422717 
L 396.085909 137.672149 
L 396.632653 139.627878 
L 397.179397 157.509476 
L 397.726141 166.486589 
L 398.819629 181.012095 
L 399.366373 171.894994 
L 399.913117 175.134355 
L 400.459861 170.601674 
L 401.006605 162.979424 
L 401.553349 161.743811 
L 402.100093 160.008888 
L 403.193581 181.220327 
L 404.287069 177.027304 
L 404.833813 167.865694 
L 405.380557 164.871625 
L 405.927301 159.873025 
L 406.474045 156.522649 
L 407.020788 162.196378 
L 407.567532 159.274738 
L 408.114276 153.49137 
L 408.66102 159.165189 
L 409.207764 153.506161 
L 409.754508 154.272697 
L 410.301252 162.398849 
L 410.847996 164.680445 
L 411.39474 164.080966 
L 411.941484 150.993677 
L 412.488228 145.562172 
L 413.034972 137.873373 
L 413.581716 137.969949 
L 414.12846 126.599738 
L 414.675204 128.335049 
L 415.221948 135.246319 
L 415.768692 136.124035 
L 416.315436 150.307497 
L 416.86218 154.215126 
L 417.408924 156.843916 
L 417.955668 150.052018 
L 418.502412 144.701858 
L 419.049156 152.963488 
L 419.5959 153.702508 
L 420.142644 161.724373 
L 420.689388 154.740667 
L 421.236132 154.273759 
L 421.782876 149.950075 
L 422.32962 154.082097 
L 422.876364 164.870741 
L 423.423108 168.642578 
L 423.969852 180.484783 
L 424.516596 183.050276 
L 425.06334 192.67821 
L 425.610083 182.38029 
L 426.156827 166.556094 
L 426.703571 163.789758 
L 427.250315 156.853003 
L 427.797059 158.523651 
L 428.343803 156.290507 
L 428.890547 155.482964 
L 429.437291 156.863567 
L 429.984035 154.218085 
L 430.530779 163.524754 
L 431.077523 161.770825 
L 431.624267 158.180614 
L 432.717755 171.187554 
L 433.264499 165.288674 
L 433.811243 169.273183 
L 434.357987 174.837028 
L 434.904731 167.978263 
L 435.451475 167.847323 
L 435.998219 168.469175 
L 436.544963 175.883987 
L 437.091707 191.718523 
L 437.638451 199.949147 
L 438.185195 201.596371 
L 438.731939 196.74715 
L 439.278683 205.584317 
L 439.825427 210.791628 
L 440.372171 225.760194 
L 440.918915 222.230432 
L 441.465659 220.18186 
L 442.012403 212.312298 
L 442.559147 221.681916 
L 443.105891 211.803202 
L 443.652635 213.338655 
L 444.199378 221.813733 
L 444.746122 227.033326 
L 445.292866 224.007155 
L 445.83961 225.659801 
L 446.386354 230.750701 
L 446.933098 212.597899 
L 447.479842 222.727734 
L 448.026586 212.448679 
L 448.57333 209.393298 
L 449.120074 212.980969 
L 449.666818 217.484933 
L 450.213562 213.106221 
L 450.760306 213.327869 
L 451.30705 199.773102 
L 451.853794 195.950088 
L 452.400538 188.425878 
L 452.947282 192.459961 
L 453.494026 190.354409 
L 454.04077 200.874948 
L 454.587514 184.834416 
L 455.134258 173.156188 
L 455.681002 164.793189 
L 456.227746 168.426924 
L 456.77449 170.833224 
L 457.321234 169.830267 
L 457.867978 172.548489 
L 458.414722 165.245764 
L 458.961466 174.964944 
L 459.50821 163.147727 
L 460.054954 157.979409 
L 460.601698 158.896246 
L 461.148442 153.916987 
L 461.695186 156.828698 
L 462.241929 157.929349 
L 462.788673 165.012113 
L 463.335417 162.991225 
L 463.882161 158.615026 
L 464.428905 155.228976 
L 464.975649 144.631043 
L 465.522393 150.901104 
L 466.069137 161.352809 
L 466.615881 169.136886 
L 467.162625 161.831029 
L 467.709369 151.861603 
L 468.256113 134.708418 
L 468.802857 138.28715 
L 469.349601 140.21349 
L 469.896345 134.542591 
L 470.989833 149.116784 
L 471.536577 145.01872 
L 472.083321 161.07321 
L 472.630065 157.873459 
L 473.176809 165.653218 
L 473.723553 163.278258 
L 474.270297 165.868902 
L 474.817041 165.19866 
L 475.910529 186.884934 
L 476.457273 180.034474 
L 477.004017 175.768815 
L 477.550761 168.854265 
L 478.097505 171.307886 
L 478.644249 184.59722 
L 479.190993 190.747202 
L 479.737737 194.976524 
L 480.284481 196.633401 
L 480.831224 193.729767 
L 481.377968 195.830169 
L 481.924712 193.67934 
L 482.471456 187.404721 
L 483.0182 175.630535 
L 483.564944 176.127362 
L 484.111688 172.316268 
L 484.658432 174.468627 
L 485.205176 164.520317 
L 485.75192 165.152922 
L 486.298664 154.999859 
L 486.845408 140.487437 
L 487.392152 136.035168 
L 487.938896 128.81148 
L 488.48564 132.010794 
L 489.032384 139.399142 
L 489.579128 138.669656 
L 490.125872 145.898039 
L 490.672616 150.17887 
L 491.21936 133.574944 
L 491.766104 136.330918 
L 492.312848 140.936559 
L 492.859592 140.366017 
L 493.406336 153.18487 
L 493.95308 162.640521 
L 494.499824 160.395051 
L 495.046568 160.910188 
L 495.593312 166.539545 
L 496.140056 183.656386 
L 496.6868 180.172233 
L 497.233544 173.404626 
L 498.327032 201.263846 
L 498.873776 203.219432 
L 499.420519 203.196566 
L 499.967263 205.687237 
L 500.514007 195.832852 
L 501.060751 200.910298 
L 501.607495 198.921953 
L 502.154239 209.637966 
L 502.700983 206.751391 
L 503.247727 201.260227 
L 504.341215 197.318476 
L 504.887959 180.238646 
L 505.434703 180.701341 
L 505.981447 176.865862 
L 506.528191 166.158408 
L 507.074935 158.653581 
L 507.621679 175.305584 
L 508.168423 182.800008 
L 508.715167 177.059901 
L 509.261911 167.657908 
L 509.808655 169.622283 
L 510.355399 166.243423 
L 510.902143 164.164821 
L 511.448887 169.080225 
L 511.995631 149.659043 
L 512.542375 146.941716 
L 513.089119 138.168418 
L 513.635863 134.202548 
L 514.182607 124.675593 
L 514.729351 129.430277 
L 515.276095 121.158977 
L 515.822839 137.683278 
L 516.369583 132.054801 
L 516.916327 125.231115 
L 517.463071 135.031168 
L 518.009814 142.695247 
L 518.556558 132.686063 
L 519.103302 128.944897 
L 519.650046 128.947772 
L 520.19679 128.016895 
L 520.743534 134.213132 
L 521.290278 138.70049 
L 521.837022 122.882842 
L 522.383766 118.515757 
L 522.93051 132.746443 
L 523.477254 133.178292 
L 524.023998 128.870228 
L 524.570742 134.111724 
L 525.117486 137.88103 
L 525.66423 135.741479 
L 526.210974 137.904486 
L 526.757718 126.822954 
L 527.304462 122.718437 
L 527.851206 123.933525 
L 528.944694 99.721123 
L 529.491438 102.815451 
L 530.038182 110.453419 
L 530.584926 97.210336 
L 531.13167 109.272425 
L 531.678414 115.367083 
L 532.225158 110.377245 
L 532.771902 117.121647 
L 533.318646 116.709082 
L 533.86539 107.760194 
L 534.412134 113.035556 
L 534.958878 119.855482 
L 535.505622 123.04391 
L 536.599109 136.623377 
L 537.692597 141.733474 
L 538.239341 160.04156 
L 538.786085 170.26084 
L 539.332829 176.009642 
L 539.879573 183.946305 
L 540.426317 178.431241 
L 540.973061 174.104375 
L 541.519805 182.39222 
L 542.613293 165.707578 
L 543.160037 182.792287 
L 543.706781 189.548609 
L 544.800269 210.687781 
L 545.347013 214.939123 
L 545.893757 214.575342 
L 546.440501 212.419853 
L 546.987245 215.242695 
L 547.533989 211.230457 
L 548.080733 216.292787 
L 548.627477 219.510376 
L 549.174221 209.149917 
L 549.720965 206.3154 
L 550.267709 210.393998 
L 550.814453 208.865566 
L 551.361197 209.445121 
L 551.907941 211.814921 
L 552.454685 222.405573 
L 553.548173 233.369054 
L 554.094917 219.918363 
L 555.188404 211.540016 
L 556.281892 190.187645 
L 556.828636 194.844823 
L 558.468868 178.944013 
L 559.015612 172.195083 
L 559.562356 167.212669 
L 560.1091 164.862283 
L 561.202588 152.28279 
L 561.749332 144.976748 
L 562.296076 144.454631 
L 562.84282 138.928786 
L 563.389564 130.827739 
L 564.483052 137.573528 
L 565.57654 124.037421 
L 566.123284 124.45843 
L 566.670028 133.989892 
L 567.216772 135.285273 
L 567.763516 134.364244 
L 568.31026 134.288953 
L 568.857004 139.277547 
L 569.403748 131.796738 
L 569.950492 134.632178 
L 570.497236 130.475809 
L 571.04398 129.910274 
L 571.590724 131.36607 
L 572.137468 129.589503 
L 572.684212 120.378144 
L 573.230955 117.090484 
L 573.777699 122.236475 
L 574.871187 116.292101 
L 575.417931 104.826676 
L 575.964675 108.366527 
L 576.511419 113.272865 
L 577.058163 105.188294 
L 577.604907 90.185521 
L 578.151651 97.972893 
L 578.698395 92.342323 
L 579.245139 89.796115 
L 579.791883 82.153581 
L 580.338627 85.204777 
L 580.885371 74.515085 
L 581.432115 76.679518 
L 581.978859 73.517383 
L 582.525603 74.572593 
L 583.619091 94.958753 
L 584.165835 93.47977 
L 584.712579 90.581897 
L 585.259323 97.681227 
L 585.806067 92.071556 
L 586.899555 104.596064 
L 587.446299 103.684331 
L 587.993043 113.482001 
L 588.539787 132.69333 
L 589.086531 128.178023 
L 589.633275 136.390871 
L 590.180019 138.829921 
L 590.726763 144.880678 
L 591.273506 148.775618 
L 591.82025 165.15644 
L 592.366994 167.760858 
L 592.913738 179.192571 
L 593.460482 184.449993 
L 594.007226 176.81802 
L 594.55397 172.695092 
L 595.100714 177.655884 
L 595.647458 180.622116 
L 596.194202 182.587393 
L 596.740946 188.299929 
L 597.28769 183.743045 
L 597.834434 177.28418 
L 598.381178 177.252525 
L 598.927922 174.554524 
L 599.474666 170.778663 
L 600.02141 161.490323 
L 600.568154 155.941462 
L 601.114898 151.609286 
L 601.661642 151.906957 
L 602.208386 142.955563 
L 602.75513 137.451654 
L 603.301874 138.102056 
L 603.848618 136.100484 
L 604.395362 133.188731 
L 604.942106 136.469149 
L 605.48885 153.114023 
L 606.035594 159.59568 
L 607.129082 155.91837 
L 607.675826 156.141578 
L 608.22257 157.296559 
L 608.769314 159.458542 
L 609.862801 168.630385 
L 610.409545 159.015657 
L 610.409545 159.015657 
" clip-path="url(#p517053f0ac)" style="fill: none; stroke: #1f77b4; stroke-width: 1.5; stroke-linecap: square"/>
   </g>
   <g id="line2d_24">
    <path d="M 74.600455 227.377868 
L 75.147199 202.42653 
L 76.240686 169.731711 
L 76.78743 150.734774 
L 77.334174 141.80488 
L 78.427662 90.457169 
L 78.974406 86.409769 
L 79.52115 122.642305 
L 80.067894 130.238623 
L 80.614638 118.845333 
L 81.161382 122.004666 
L 81.708126 114.701761 
L 82.25487 122.465886 
L 82.801614 110.854205 
L 83.348358 108.464006 
L 83.895102 127.200626 
L 84.441846 139.164747 
L 84.98859 137.561424 
L 85.535334 128.514523 
L 86.082078 116.362156 
L 86.628822 123.087211 
L 87.175566 134.001372 
L 87.72231 139.561661 
L 88.269054 134.813684 
L 88.815798 143.73097 
L 89.362542 142.060405 
L 89.909286 145.489971 
L 90.45603 123.270186 
L 91.002774 118.747826 
L 91.549518 127.359048 
L 92.643006 119.5825 
L 93.18975 128.260859 
L 93.736494 133.989811 
L 94.283237 127.563252 
L 94.829981 116.570775 
L 95.376725 115.412279 
L 95.923469 108.475499 
L 96.470213 109.296356 
L 97.016957 121.204518 
L 97.563701 110.438365 
L 98.110445 87.940614 
L 98.657189 90.833945 
L 99.203933 84.665762 
L 99.750677 84.680707 
L 100.297421 85.552096 
L 100.844165 81.697916 
L 101.390909 65.098255 
L 101.937653 70.517154 
L 102.484397 66.302652 
L 103.031141 73.162539 
L 103.577885 73.323377 
L 104.124629 66.932361 
L 104.671373 79.479755 
L 105.218117 76.10885 
L 105.764861 78.963214 
L 106.311605 77.494307 
L 106.858349 77.05322 
L 107.405093 79.829659 
L 107.951837 73.878047 
L 108.498581 76.277951 
L 109.045325 75.563141 
L 109.592069 61.060728 
L 110.138813 74.933537 
L 110.685557 79.7376 
L 111.232301 81.638298 
L 111.779045 86.257906 
L 112.325788 94.830804 
L 112.872532 85.193762 
L 113.419276 89.614938 
L 113.96602 77.785717 
L 114.512764 82.787035 
L 115.606252 58.373378 
L 116.152996 75.260034 
L 116.69974 71.203798 
L 117.246484 79.641984 
L 117.793228 81.304946 
L 118.339972 85.962152 
L 118.886716 85.848964 
L 119.43346 79.521263 
L 120.526948 104.335987 
L 121.073692 106.088298 
L 121.620436 99.864898 
L 122.16718 101.614408 
L 122.713924 98.064865 
L 123.260668 88.311976 
L 123.807412 94.048082 
L 124.354156 95.651361 
L 124.9009 104.083946 
L 125.447644 99.981116 
L 125.994388 99.203132 
L 126.541132 106.816442 
L 127.087876 100.910334 
L 127.63462 102.888656 
L 128.181364 98.591321 
L 128.728108 98.255901 
L 129.274852 91.920794 
L 129.821596 83.842707 
L 130.36834 98.033164 
L 130.915083 84.288237 
L 131.461827 74.8517 
L 132.008571 79.569673 
L 132.555315 94.791613 
L 133.102059 96.962257 
L 133.648803 114.264506 
L 134.195547 121.938877 
L 135.835779 129.062834 
L 136.929267 146.906865 
L 137.476011 139.928878 
L 138.022755 129.689734 
L 138.569499 127.740042 
L 139.116243 129.026581 
L 139.662987 136.606387 
L 140.209731 142.216851 
L 140.756475 145.625326 
L 141.303219 143.2389 
L 142.396707 166.616264 
L 142.943451 151.97642 
L 143.490195 140.486123 
L 144.036939 138.862925 
L 144.583683 125.653925 
L 145.130427 121.868925 
L 145.677171 123.191144 
L 146.223915 119.666325 
L 147.317403 99.542464 
L 147.864147 110.336297 
L 148.410891 112.199973 
L 148.957635 124.089458 
L 149.504378 126.168112 
L 150.051122 115.91842 
L 150.597866 111.410285 
L 151.14461 108.840915 
L 151.691354 114.116699 
L 152.238098 115.847825 
L 152.784842 133.555832 
L 153.331586 128.108698 
L 153.87833 136.593872 
L 154.425074 138.144445 
L 154.971818 135.545306 
L 156.065306 142.542864 
L 156.61205 139.085657 
L 157.158794 146.870523 
L 157.705538 161.914712 
L 158.252282 170.143834 
L 158.799026 157.481054 
L 159.34577 153.847923 
L 159.892514 148.07237 
L 160.439258 138.791951 
L 160.986002 141.052003 
L 161.532746 135.161322 
L 162.07949 136.371854 
L 162.626234 139.315353 
L 163.172978 135.277291 
L 163.719722 118.726941 
L 164.266466 123.888705 
L 164.81321 125.523007 
L 165.359954 134.507865 
L 165.906698 133.590997 
L 166.453442 130.948729 
L 167.000186 141.72182 
L 167.546929 146.039435 
L 168.093673 146.290788 
L 168.640417 146.906652 
L 169.187161 144.753672 
L 169.733905 147.085465 
L 170.280649 161.433758 
L 170.827393 163.822371 
L 171.374137 165.468267 
L 171.920881 165.867263 
L 172.467625 173.816475 
L 173.014369 176.514728 
L 173.561113 176.071182 
L 174.107857 182.080149 
L 174.654601 192.836678 
L 175.201345 195.657811 
L 175.748089 190.085316 
L 176.294833 179.653402 
L 176.841577 190.42534 
L 177.388321 203.952671 
L 178.481809 194.554913 
L 179.028553 196.262621 
L 179.575297 194.832712 
L 180.122041 186.667307 
L 180.668785 180.542639 
L 181.215529 162.591012 
L 181.762273 165.379259 
L 182.309017 169.681311 
L 182.855761 171.111419 
L 183.402505 164.980693 
L 184.495993 158.832881 
L 185.042737 149.231135 
L 185.589481 130.341176 
L 186.682968 121.050189 
L 187.229712 122.194584 
L 187.776456 113.833111 
L 188.3232 102.912807 
L 189.416688 100.715654 
L 190.510176 77.781186 
L 191.603664 84.092097 
L 192.150408 95.464597 
L 192.697152 102.639367 
L 193.243896 103.919708 
L 193.79064 101.421338 
L 194.337384 111.582009 
L 195.430872 99.243134 
L 195.977616 106.983055 
L 196.52436 110.360773 
L 197.071104 118.523862 
L 197.617848 128.402182 
L 198.164592 122.03704 
L 198.711336 109.449704 
L 199.25808 109.037181 
L 199.804824 106.378095 
L 200.351568 109.582216 
L 200.898312 131.677207 
L 201.445056 146.893577 
L 201.9918 150.9113 
L 202.538544 159.391436 
L 203.085288 156.636702 
L 203.632032 144.815349 
L 204.178776 152.624364 
L 204.725519 152.09054 
L 205.272263 152.854249 
L 205.819007 172.695284 
L 206.365751 176.422494 
L 206.912495 167.622289 
L 207.459239 149.808361 
L 208.005983 141.173497 
L 208.552727 137.906782 
L 209.099471 142.190894 
L 209.646215 165.514446 
L 210.192959 170.001849 
L 210.739703 163.543083 
L 211.286447 162.230262 
L 211.833191 137.329587 
L 212.379935 120.798781 
L 212.926679 109.013384 
L 213.473423 110.893149 
L 214.020167 118.604311 
L 214.566911 122.05546 
L 215.113655 108.627755 
L 215.660399 106.552423 
L 216.207143 105.337961 
L 216.753887 90.643286 
L 217.300631 106.336773 
L 217.847375 115.128303 
L 218.394119 126.71482 
L 218.940863 132.749772 
L 219.487607 132.501154 
L 220.034351 140.973507 
L 220.581095 137.614131 
L 221.127839 117.220932 
L 221.674583 118.931267 
L 222.221327 114.011388 
L 222.768071 115.228482 
L 223.314814 115.457577 
L 223.861558 124.657851 
L 224.408302 106.425279 
L 224.955046 93.626654 
L 225.50179 91.568396 
L 226.595278 107.635148 
L 227.142022 102.471402 
L 227.688766 103.776614 
L 228.23551 78.42996 
L 228.782254 68.500256 
L 229.328998 72.756074 
L 229.875742 64.626495 
L 230.422486 62.596688 
L 230.96923 63.899451 
L 231.515974 64.290051 
L 232.062718 76.568505 
L 232.609462 79.100701 
L 233.156206 77.89957 
L 233.70295 83.962743 
L 234.249694 96.876154 
L 234.796438 88.560824 
L 235.343182 105.148921 
L 235.889926 114.345715 
L 236.43667 120.319934 
L 237.530158 128.220791 
L 238.076902 134.958727 
L 238.623646 130.023141 
L 239.17039 143.259072 
L 239.717134 144.987603 
L 240.263878 151.321508 
L 240.810622 154.67286 
L 241.357365 163.667336 
L 241.904109 161.358014 
L 242.450853 166.090671 
L 242.997597 164.261739 
L 243.544341 163.274653 
L 244.091085 174.016843 
L 244.637829 175.874507 
L 245.184573 179.191523 
L 245.731317 192.899428 
L 246.278061 193.25277 
L 246.824805 195.326459 
L 247.371549 186.481142 
L 249.011781 147.166516 
L 249.558525 157.218152 
L 250.105269 153.070203 
L 250.652013 157.840738 
L 251.198757 150.223997 
L 251.745501 146.684495 
L 252.292245 129.93243 
L 252.838989 121.837546 
L 253.385733 98.925713 
L 253.932477 104.460981 
L 254.479221 100.605068 
L 255.025965 99.564188 
L 255.572709 98.079919 
L 256.119453 82.221126 
L 257.212941 67.631188 
L 257.759685 52.137238 
L 258.306429 52.291032 
L 258.853173 64.934193 
L 259.399917 72.722972 
L 259.94666 78.230678 
L 260.493404 79.08026 
L 261.586892 84.843474 
L 262.133636 83.250603 
L 262.68038 73.380301 
L 263.227124 85.623714 
L 263.773868 88.740436 
L 264.320612 109.352132 
L 264.867356 104.46714 
L 265.4141 117.269996 
L 265.960844 108.238463 
L 266.507588 107.731826 
L 267.054332 126.744229 
L 267.601076 129.2939 
L 268.14782 130.667764 
L 268.694564 136.34739 
L 269.241308 143.480273 
L 269.788052 145.577331 
L 270.334796 142.37191 
L 270.88154 144.0351 
L 271.428284 141.921213 
L 271.975028 144.305179 
L 272.521772 138.212897 
L 273.068516 144.600062 
L 273.61526 158.017765 
L 274.162004 155.02523 
L 275.255492 159.672413 
L 275.802236 169.767213 
L 276.34898 166.53355 
L 276.895724 173.502084 
L 277.442468 173.252219 
L 277.989212 158.023767 
L 278.535955 161.198598 
L 279.082699 155.624719 
L 279.629443 155.507101 
L 280.176187 157.287221 
L 280.722931 143.832964 
L 281.269675 150.468954 
L 281.816419 150.884823 
L 282.363163 157.299235 
L 282.909907 151.402905 
L 283.456651 152.936804 
L 284.003395 153.891906 
L 284.550139 150.221876 
L 285.096883 149.416349 
L 285.643627 139.802554 
L 287.283859 95.087527 
L 287.830603 94.530463 
L 288.377347 105.614868 
L 288.924091 106.934749 
L 289.470835 102.263303 
L 290.017579 111.76668 
L 290.564323 116.129835 
L 291.111067 112.871836 
L 291.657811 103.852593 
L 292.204555 103.943755 
L 292.751299 100.974965 
L 293.298043 88.112506 
L 293.844787 81.452131 
L 294.391531 87.935866 
L 294.938275 92.327776 
L 295.485019 94.558964 
L 296.031763 92.56483 
L 296.578506 98.60911 
L 297.12525 103.37365 
L 297.671994 121.119417 
L 298.218738 133.140841 
L 298.765482 130.766172 
L 299.312226 122.964274 
L 299.85897 134.889966 
L 300.405714 140.743636 
L 300.952458 137.632605 
L 301.499202 149.700469 
L 302.045946 145.458434 
L 302.59269 170.856371 
L 303.139434 172.883065 
L 303.686178 171.860579 
L 304.779666 185.620255 
L 305.32641 189.004733 
L 305.873154 186.315776 
L 306.419898 185.54391 
L 306.966642 185.741238 
L 307.513386 189.111392 
L 308.06013 193.211751 
L 308.606874 180.352408 
L 309.153618 177.06064 
L 309.700362 183.478989 
L 310.247106 175.800897 
L 311.340594 166.279985 
L 311.887338 167.289748 
L 312.434082 151.659894 
L 312.980826 150.079614 
L 313.52757 139.891462 
L 314.074314 133.883456 
L 314.621058 141.610241 
L 315.167801 137.561552 
L 315.714545 137.286219 
L 316.261289 116.480416 
L 316.808033 111.088239 
L 317.354777 119.727407 
L 317.901521 126.599102 
L 318.448265 114.053465 
L 318.995009 92.662403 
L 319.541753 94.581466 
L 320.088497 93.932179 
L 320.635241 97.789532 
L 321.181985 111.55557 
L 321.728729 99.179239 
L 322.822217 81.985518 
L 323.368961 85.649298 
L 323.915705 87.380731 
L 324.462449 92.709992 
L 325.009193 71.549866 
L 325.555937 66.717478 
L 326.102681 64.515168 
L 326.649425 71.869348 
L 327.196169 83.607243 
L 327.742913 90.928894 
L 328.289657 91.988786 
L 328.836401 90.019411 
L 329.383145 101.011218 
L 329.929889 115.452368 
L 330.476633 119.521299 
L 331.023377 113.236769 
L 331.570121 111.496385 
L 332.116865 89.361956 
L 332.663609 90.689101 
L 333.210353 93.039092 
L 333.757096 89.216109 
L 334.30384 89.330179 
L 334.850584 88.174705 
L 335.397328 74.618566 
L 335.944072 86.063812 
L 336.490816 89.030366 
L 337.03756 91.287347 
L 337.584304 77.29745 
L 338.131048 79.851669 
L 338.677792 75.394897 
L 339.224536 69.032578 
L 339.77128 69.184514 
L 340.318024 68.002668 
L 340.864768 74.866464 
L 341.411512 69.955955 
L 341.958256 80.167116 
L 342.505 72.46134 
L 343.051744 83.627467 
L 343.598488 91.201387 
L 344.145232 100.930356 
L 344.691976 117.847535 
L 345.23872 120.407368 
L 345.785464 121.590238 
L 346.332208 132.563798 
L 346.878952 133.351616 
L 347.425696 126.060275 
L 347.97244 131.023897 
L 348.519184 149.683291 
L 349.065928 143.47078 
L 349.612672 146.356576 
L 350.159416 147.769461 
L 350.70616 143.700274 
L 351.252904 146.602906 
L 351.799647 148.373712 
L 352.346391 153.173813 
L 352.893135 135.052358 
L 353.986623 112.209318 
L 354.533367 119.639697 
L 355.080111 119.09025 
L 355.626855 117.229997 
L 356.720343 130.369499 
L 357.267087 126.796064 
L 357.813831 135.943224 
L 358.360575 134.851767 
L 358.907319 134.60578 
L 359.454063 119.181911 
L 360.000807 117.795784 
L 360.547551 108.807746 
L 361.094295 112.704503 
L 361.641039 112.176049 
L 362.187783 117.846682 
L 362.734527 116.980223 
L 363.281271 117.507004 
L 363.828015 131.160748 
L 364.374759 151.323859 
L 364.921503 162.644549 
L 366.014991 149.048593 
L 366.561735 142.444413 
L 367.108479 137.506871 
L 367.655223 126.619431 
L 368.201967 128.461224 
L 368.748711 127.074524 
L 369.842199 131.794646 
L 370.388942 142.655216 
L 370.935686 146.455281 
L 371.48243 148.519122 
L 372.029174 135.723079 
L 372.575918 136.30161 
L 373.122662 123.727717 
L 373.669406 117.18391 
L 374.21615 114.835037 
L 375.309638 87.043883 
L 375.856382 79.523111 
L 376.94987 75.946891 
L 377.496614 81.609685 
L 378.043358 76.925425 
L 378.590102 71.220424 
L 379.136846 67.579685 
L 379.68359 65.794185 
L 380.230334 71.964192 
L 380.777078 62.831097 
L 381.323822 51.387377 
L 381.870566 55.636263 
L 382.41731 63.66407 
L 384.057542 69.319776 
L 384.604286 66.21699 
L 385.15103 53.924009 
L 385.697774 62.359456 
L 386.244518 60.461105 
L 386.791262 69.689481 
L 387.338006 70.209044 
L 387.88475 68.550103 
L 388.431494 63.129411 
L 389.524981 81.059501 
L 390.618469 66.843485 
L 391.165213 64.476186 
L 391.711957 68.525634 
L 392.258701 81.780899 
L 392.805445 77.784844 
L 393.352189 75.767083 
L 393.898933 77.950175 
L 394.445677 74.053956 
L 394.992421 71.81816 
L 395.539165 73.423353 
L 396.085909 81.896641 
L 397.179397 105.210391 
L 397.726141 107.323921 
L 398.272885 112.285199 
L 398.819629 109.839725 
L 399.366373 111.063463 
L 399.913117 101.897835 
L 400.459861 105.856701 
L 401.006605 108.70085 
L 401.553349 113.355886 
L 402.100093 112.263989 
L 402.646837 109.045891 
L 403.740325 97.489918 
L 404.287069 84.505081 
L 404.833813 86.110504 
L 405.380557 92.632417 
L 405.927301 105.896276 
L 406.474045 108.458307 
L 407.020788 113.668744 
L 408.66102 84.809939 
L 409.207764 73.592617 
L 409.754508 78.641346 
L 410.847996 63.487462 
L 411.39474 65.891715 
L 411.941484 55.889077 
L 412.488228 61.764724 
L 413.034972 55.610714 
L 413.581716 58.684479 
L 414.12846 62.854022 
L 414.675204 65.176595 
L 415.221948 88.447715 
L 415.768692 96.11162 
L 416.86218 68.73963 
L 417.408924 63.070076 
L 417.955668 49.410372 
L 418.502412 49.587179 
L 419.049156 53.639502 
L 419.5959 63.181609 
L 420.689388 53.523868 
L 421.236132 54.014479 
L 421.782876 56.269598 
L 422.32962 53.863955 
L 422.876364 73.973072 
L 423.423108 61.526713 
L 423.969852 71.513278 
L 424.516596 73.230276 
L 425.06334 74.091991 
L 425.610083 75.185561 
L 426.156827 53.932118 
L 426.703571 45.841954 
L 427.250315 54.343341 
L 428.343803 62.258449 
L 428.890547 69.311178 
L 429.437291 81.452232 
L 429.984035 90.682876 
L 430.530779 97.321957 
L 431.624267 133.600706 
L 432.171011 144.75036 
L 432.717755 158.330358 
L 433.264499 164.902701 
L 433.811243 168.250848 
L 434.357987 181.951574 
L 434.904731 182.53536 
L 435.451475 168.839633 
L 435.998219 161.912765 
L 436.544963 157.037223 
L 437.091707 160.661315 
L 437.638451 160.621038 
L 438.185195 163.228908 
L 438.731939 167.495629 
L 439.278683 179.464659 
L 439.825427 184.486648 
L 440.918915 158.864087 
L 442.012403 134.805554 
L 442.559147 136.122578 
L 443.105891 134.956306 
L 443.652635 124.830392 
L 444.199378 123.626061 
L 445.292866 105.909119 
L 445.83961 97.317321 
L 446.386354 106.028104 
L 446.933098 104.261493 
L 447.479842 109.328686 
L 448.026586 123.155083 
L 448.57333 126.270467 
L 449.120074 130.06374 
L 449.666818 129.350925 
L 450.213562 128.279955 
L 450.760306 131.690806 
L 451.30705 126.959979 
L 451.853794 124.612678 
L 453.494026 108.494096 
L 454.587514 110.46906 
L 455.681002 87.202024 
L 456.227746 88.593045 
L 456.77449 105.091657 
L 457.321234 101.622118 
L 457.867978 111.404105 
L 458.414722 111.766303 
L 458.961466 110.659038 
L 459.50821 96.130181 
L 461.148442 79.781542 
L 461.695186 70.413535 
L 462.241929 87.524838 
L 462.788673 98.528209 
L 463.335417 104.604043 
L 463.882161 122.156685 
L 464.428905 119.372347 
L 464.975649 115.367058 
L 465.522393 114.21234 
L 466.069137 110.507982 
L 466.615881 118.611502 
L 467.162625 123.946741 
L 467.709369 109.624436 
L 468.256113 115.332168 
L 468.802857 112.552497 
L 469.349601 116.659341 
L 469.896345 109.211881 
L 470.443089 124.726755 
L 470.989833 115.937338 
L 471.536577 131.139797 
L 472.083321 131.814877 
L 472.630065 139.638065 
L 473.176809 143.155194 
L 473.723553 131.623334 
L 474.817041 123.565762 
L 475.363785 129.952546 
L 475.910529 143.678495 
L 476.457273 142.390517 
L 477.004017 148.648891 
L 477.550761 144.048746 
L 478.097505 143.382976 
L 478.644249 133.642842 
L 479.190993 143.832227 
L 479.737737 144.278858 
L 480.284481 145.560387 
L 480.831224 137.98704 
L 481.377968 133.481801 
L 481.924712 147.6077 
L 482.471456 141.807081 
L 483.0182 149.31957 
L 483.564944 146.080775 
L 484.111688 137.678042 
L 484.658432 144.403052 
L 485.205176 140.947591 
L 485.75192 139.797107 
L 486.298664 141.81135 
L 486.845408 137.683066 
L 487.938896 146.464318 
L 488.48564 168.859592 
L 489.032384 167.307548 
L 489.579128 180.500187 
L 490.125872 169.118121 
L 490.672616 166.6703 
L 491.21936 161.715611 
L 491.766104 178.212015 
L 492.312848 178.138052 
L 492.859592 170.516836 
L 493.95308 143.983231 
L 494.499824 147.516504 
L 495.046568 138.173227 
L 495.593312 140.768748 
L 496.140056 157.890082 
L 496.6868 160.317707 
L 497.233544 149.133103 
L 497.780288 135.537629 
L 498.327032 131.808617 
L 498.873776 129.460491 
L 499.420519 99.350321 
L 499.967263 94.489658 
L 500.514007 88.484594 
L 501.060751 96.235663 
L 501.607495 98.555218 
L 502.154239 104.790035 
L 502.700983 98.401434 
L 503.247727 103.434564 
L 504.341215 120.960215 
L 504.887959 122.481282 
L 505.434703 123.180027 
L 505.981447 134.543199 
L 506.528191 128.948439 
L 507.621679 106.056384 
L 508.168423 105.482939 
L 508.715167 112.340873 
L 509.261911 110.81074 
L 510.355399 117.616427 
L 510.902143 114.527168 
L 511.448887 109.972862 
L 511.995631 101.851703 
L 512.542375 95.671697 
L 513.089119 87.424227 
L 513.635863 84.389115 
L 514.182607 78.184567 
L 514.729351 68.086951 
L 515.276095 68.87435 
L 515.822839 75.23894 
L 516.369583 71.216466 
L 516.916327 54.490387 
L 517.463071 59.210596 
L 518.009814 58.037281 
L 518.556558 63.720202 
L 519.103302 67.909913 
L 519.650046 63.838243 
L 520.19679 67.4907 
L 520.743534 73.001292 
L 521.290278 99.097675 
L 521.837022 113.800302 
L 522.383766 112.247521 
L 522.93051 119.153756 
L 523.477254 111.667759 
L 524.023998 111.231117 
L 524.570742 115.486392 
L 525.117486 113.642595 
L 525.66423 117.696556 
L 526.210974 117.911614 
L 526.757718 108.960444 
L 527.304462 110.670462 
L 527.851206 120.334024 
L 528.39795 111.794566 
L 528.944694 110.361737 
L 529.491438 119.614446 
L 530.038182 107.9856 
L 530.584926 118.74944 
L 531.13167 103.90542 
L 531.678414 94.28914 
L 532.225158 81.710601 
L 532.771902 76.37183 
L 533.318646 88.720823 
L 533.86539 84.082762 
L 534.412134 99.675731 
L 534.958878 101.260877 
L 535.505622 97.356312 
L 536.052365 81.846809 
L 536.599109 79.24507 
L 537.145853 83.87823 
L 537.692597 83.229404 
L 538.239341 78.13108 
L 538.786085 80.774085 
L 539.332829 79.972233 
L 539.879573 87.92106 
L 540.426317 75.677235 
L 540.973061 84.197062 
L 541.519805 71.411363 
L 542.066549 85.928226 
L 542.613293 84.996587 
L 543.160037 88.14675 
L 543.706781 77.786993 
L 544.253525 64.931146 
L 544.800269 66.946074 
L 545.347013 51.068929 
L 545.893757 60.621189 
L 546.440501 66.621799 
L 546.987245 86.477408 
L 547.533989 96.588062 
L 548.080733 90.91755 
L 548.627477 93.425238 
L 549.174221 93.000851 
L 549.720965 103.297849 
L 550.267709 118.761783 
L 550.814453 120.766156 
L 551.361197 127.703352 
L 552.454685 150.940165 
L 553.001429 149.835884 
L 553.548173 154.87453 
L 554.094917 157.248865 
L 554.64166 169.361212 
L 555.188404 171.626669 
L 555.735148 170.807401 
L 556.281892 184.485635 
L 556.828636 171.020405 
L 557.37538 176.84642 
L 558.468868 183.802411 
L 559.015612 182.605944 
L 559.562356 193.002548 
L 560.1091 195.750515 
L 560.655844 189.353051 
L 561.202588 181.085031 
L 561.749332 192.222826 
L 562.84282 187.873353 
L 563.389564 182.326497 
L 563.936308 184.278897 
L 564.483052 187.417558 
L 565.57654 177.17724 
L 566.123284 188.970214 
L 566.670028 178.618286 
L 567.216772 180.435637 
L 567.763516 195.089212 
L 568.31026 174.07067 
L 568.857004 167.059526 
L 569.403748 144.647217 
L 569.950492 139.827412 
L 570.497236 130.567116 
L 572.137468 151.849217 
L 572.684212 139.945878 
L 573.230955 130.469517 
L 573.777699 129.308213 
L 574.324443 124.812896 
L 574.871187 130.9175 
L 575.417931 119.27249 
L 575.964675 119.226549 
L 576.511419 109.595953 
L 577.058163 95.29629 
L 577.604907 96.133773 
L 578.151651 90.601674 
L 578.698395 83.110384 
L 579.245139 85.52153 
L 579.791883 89.250839 
L 580.338627 94.884752 
L 580.885371 90.635614 
L 581.432115 95.456079 
L 581.978859 94.26929 
L 583.072347 67.187317 
L 583.619091 60.578067 
L 584.165835 62.237197 
L 584.712579 50.316511 
L 585.259323 51.809375 
L 585.806067 38.74 
L 586.352811 42.356096 
L 586.899555 47.261874 
L 587.446299 62.026765 
L 587.993043 67.052754 
L 588.539787 67.42682 
L 589.086531 72.790744 
L 589.633275 66.730331 
L 590.180019 74.523218 
L 590.726763 88.838853 
L 591.273506 98.143029 
L 591.82025 104.787308 
L 592.366994 98.765052 
L 592.913738 94.971611 
L 593.460482 102.293598 
L 594.007226 100.061827 
L 594.55397 108.522046 
L 595.100714 113.096447 
L 595.647458 120.989388 
L 596.194202 123.252891 
L 596.740946 127.845187 
L 597.28769 124.939747 
L 597.834434 124.632877 
L 598.381178 126.036793 
L 598.927922 132.997822 
L 599.474666 133.778479 
L 600.02141 119.976946 
L 600.568154 118.534027 
L 601.114898 122.936079 
L 601.661642 117.730346 
L 602.208386 116.980091 
L 602.75513 128.683098 
L 603.301874 126.022883 
L 603.848618 126.991271 
L 604.395362 125.355402 
L 604.942106 133.203865 
L 605.48885 124.276249 
L 606.035594 119.522624 
L 606.582338 119.473182 
L 607.129082 106.799823 
L 607.675826 103.882051 
L 608.22257 108.671863 
L 608.769314 98.100154 
L 609.316058 96.917235 
L 609.862801 95.425706 
L 610.409545 102.038879 
L 610.409545 102.038879 
" clip-path="url(#p517053f0ac)" style="fill: none; stroke: #ff7f0e; stroke-width: 1.5; stroke-linecap: square"/>
   </g>
   <g id="patch_3">
    <path d="M 47.81 318.04 
L 47.81 25.44 
" style="fill: none; stroke: #000000; stroke-width: 0.8; stroke-linejoin: miter; stroke-linecap: square"/>
   </g>
   <g id="patch_4">
    <path d="M 637.2 318.04 
L 637.2 25.44 
" style="fill: none; stroke: #000000; stroke-width: 0.8; stroke-linejoin: miter; stroke-linecap: square"/>
   </g>
   <g id="patch_5">
    <path d="M 47.81 318.04 
L 637.2 318.04 
" style="fill: none; stroke: #000000; stroke-width: 0.8; stroke-linejoin: miter; stroke-linecap: square"/>
   </g>
   <g id="patch_6">
    <path d="M 47.81 25.44 
L 637.2 25.44 
" style="fill: none; stroke: #000000; stroke-width: 0.8; stroke-linejoin: miter; stroke-linecap: square"/>
   </g>
   <g id="text_14">
    <!-- Generator GAN realism loss (moving average 20) -->
    <g transform="translate(194.532812 19.44) scale(0.12 -0.12)">
     <defs>
      <path id="DejaVuSans-47" d="M 3809 666 
L 3809 1919 
L 2778 1919 
L 2778 2438 
L 4434 2438 
L 4434 434 
Q 4069 175 3628 42 
Q 3188 -91 2688 -91 
Q 1594 -91 976 548 
Q 359 1188 359 2328 
Q 359 3472 976 4111 
Q 1594 4750 2688 4750 
Q 3144 4750 3555 4637 
Q 3966 4525 4313 4306 
L 4313 3634 
Q 3963 3931 3569 4081 
Q 3175 4231 2741 4231 
Q 1884 4231 1454 3753 
Q 1025 3275 1025 2328 
Q 1025 1384 1454 906 
Q 1884 428 2741 428 
Q 3075 428 3337 486 
Q 3600 544 3809 666 
z
" transform="scale(0.015625)"/>
      <path id="DejaVuSans-6e" d="M 3513 2113 
L 3513 0 
L 2938 0 
L 2938 2094 
Q 2938 2591 2744 2837 
Q 2550 3084 2163 3084 
Q 1697 3084 1428 2787 
Q 1159 2491 1159 1978 
L 1159 0 
L 581 0 
L 581 3500 
L 1159 3500 
L 1159 2956 
Q 1366 3272 1645 3428 
Q 1925 3584 2291 3584 
Q 2894 3584 3203 3211 
Q 3513 2838 3513 2113 
z
" transform="scale(0.015625)"/>
      <path id="DejaVuSans-72" d="M 2631 2963 
Q 2534 3019 2420 3045 
Q 2306 3072 2169 3072 
Q 1681 3072 1420 2755 
Q 1159 2438 1159 1844 
L 1159 0 
L 581 0 
L 581 3500 
L 1159 3500 
L 1159 2956 
Q 1341 3275 1631 3429 
Q 1922 3584 2338 3584 
Q 2397 3584 2469 3576 
Q 2541 3569 2628 3553 
L 2631 2963 
z
" transform="scale(0.015625)"/>
      <path id="DejaVuSans-61" d="M 2194 1759 
Q 1497 1759 1228 1600 
Q 959 1441 959 1056 
Q 959 750 1161 570 
Q 1363 391 1709 391 
Q 2188 391 2477 730 
Q 2766 1069 2766 1631 
L 2766 1759 
L 2194 1759 
z
M 3341 1997 
L 3341 0 
L 2766 0 
L 2766 531 
Q 2569 213 2275 61 
Q 1981 -91 1556 -91 
Q 1019 -91 701 211 
Q 384 513 384 1019 
Q 384 1609 779 1909 
Q 1175 2209 1959 2209 
L 2766 2209 
L 2766 2266 
Q 2766 2663 2505 2880 
Q 2244 3097 1772 3097 
Q 1472 3097 1187 3025 
Q 903 2953 641 2809 
L 641 3341 
Q 956 3463 1253 3523 
Q 1550 3584 1831 3584 
Q 2591 3584 2966 3190 
Q 3341 2797 3341 1997 
z
" transform="scale(0.015625)"/>
      <path id="DejaVuSans-20" transform="scale(0.015625)"/>
      <path id="DejaVuSans-41" d="M 2188 4044 
L 1331 1722 
L 3047 1722 
L 2188 4044 
z
M 1831 4666 
L 2547 4666 
L 4325 0 
L 3669 0 
L 3244 1197 
L 1141 1197 
L 716 0 
L 50 0 
L 1831 4666 
z
" transform="scale(0.015625)"/>
      <path id="DejaVuSans-4e" d="M 628 4666 
L 1478 4666 
L 3547 763 
L 3547 4666 
L 4159 4666 
L 4159 0 
L 3309 0 
L 1241 3903 
L 1241 0 
L 628 0 
L 628 4666 
z
" transform="scale(0.015625)"/>
      <path id="DejaVuSans-69" d="M 603 3500 
L 1178 3500 
L 1178 0 
L 603 0 
L 603 3500 
z
M 603 4863 
L 1178 4863 
L 1178 4134 
L 603 4134 
L 603 4863 
z
" transform="scale(0.015625)"/>
      <path id="DejaVuSans-6d" d="M 3328 2828 
Q 3544 3216 3844 3400 
Q 4144 3584 4550 3584 
Q 5097 3584 5394 3201 
Q 5691 2819 5691 2113 
L 5691 0 
L 5113 0 
L 5113 2094 
Q 5113 2597 4934 2840 
Q 4756 3084 4391 3084 
Q 3944 3084 3684 2787 
Q 3425 2491 3425 1978 
L 3425 0 
L 2847 0 
L 2847 2094 
Q 2847 2600 2669 2842 
Q 2491 3084 2119 3084 
Q 1678 3084 1418 2786 
Q 1159 2488 1159 1978 
L 1159 0 
L 581 0 
L 581 3500 
L 1159 3500 
L 1159 2956 
Q 1356 3278 1631 3431 
Q 1906 3584 2284 3584 
Q 2666 3584 2933 3390 
Q 3200 3197 3328 2828 
z
" transform="scale(0.015625)"/>
      <path id="DejaVuSans-28" d="M 1984 4856 
Q 1566 4138 1362 3434 
Q 1159 2731 1159 2009 
Q 1159 1288 1364 580 
Q 1569 -128 1984 -844 
L 1484 -844 
Q 1016 -109 783 600 
Q 550 1309 550 2009 
Q 550 2706 781 3412 
Q 1013 4119 1484 4856 
L 1984 4856 
z
" transform="scale(0.015625)"/>
      <path id="DejaVuSans-76" d="M 191 3500 
L 800 3500 
L 1894 563 
L 2988 3500 
L 3597 3500 
L 2284 0 
L 1503 0 
L 191 3500 
z
" transform="scale(0.015625)"/>
      <path id="DejaVuSans-67" d="M 2906 1791 
Q 2906 2416 2648 2759 
Q 2391 3103 1925 3103 
Q 1463 3103 1205 2759 
Q 947 2416 947 1791 
Q 947 1169 1205 825 
Q 1463 481 1925 481 
Q 2391 481 2648 825 
Q 2906 1169 2906 1791 
z
M 3481 434 
Q 3481 -459 3084 -895 
Q 2688 -1331 1869 -1331 
Q 1566 -1331 1297 -1286 
Q 1028 -1241 775 -1147 
L 775 -588 
Q 1028 -725 1275 -790 
Q 1522 -856 1778 -856 
Q 2344 -856 2625 -561 
Q 2906 -266 2906 331 
L 2906 616 
Q 2728 306 2450 153 
Q 2172 0 1784 0 
Q 1141 0 747 490 
Q 353 981 353 1791 
Q 353 2603 747 3093 
Q 1141 3584 1784 3584 
Q 2172 3584 2450 3431 
Q 2728 3278 2906 2969 
L 2906 3500 
L 3481 3500 
L 3481 434 
z
" transform="scale(0.015625)"/>
      <path id="DejaVuSans-29" d="M 513 4856 
L 1013 4856 
Q 1481 4119 1714 3412 
Q 1947 2706 1947 2009 
Q 1947 1309 1714 600 
Q 1481 -109 1013 -844 
L 513 -844 
Q 928 -128 1133 580 
Q 1338 1288 1338 2009 
Q 1338 2731 1133 3434 
Q 928 4138 513 4856 
z
" transform="scale(0.015625)"/>
     </defs>
     <use xlink:href="#DejaVuSans-47"/>
     <use xlink:href="#DejaVuSans-65" transform="translate(77.490234 0)"/>
     <use xlink:href="#DejaVuSans-6e" transform="translate(139.013672 0)"/>
     <use xlink:href="#DejaVuSans-65" transform="translate(202.392578 0)"/>
     <use xlink:href="#DejaVuSans-72" transform="translate(263.916016 0)"/>
     <use xlink:href="#DejaVuSans-61" transform="translate(305.029297 0)"/>
     <use xlink:href="#DejaVuSans-74" transform="translate(366.308594 0)"/>
     <use xlink:href="#DejaVuSans-6f" transform="translate(405.517578 0)"/>
     <use xlink:href="#DejaVuSans-72" transform="translate(466.699219 0)"/>
     <use xlink:href="#DejaVuSans-20" transform="translate(507.8125 0)"/>
     <use xlink:href="#DejaVuSans-47" transform="translate(539.599609 0)"/>
     <use xlink:href="#DejaVuSans-41" transform="translate(617.089844 0)"/>
     <use xlink:href="#DejaVuSans-4e" transform="translate(685.498047 0)"/>
     <use xlink:href="#DejaVuSans-20" transform="translate(760.302734 0)"/>
     <use xlink:href="#DejaVuSans-72" transform="translate(792.089844 0)"/>
     <use xlink:href="#DejaVuSans-65" transform="translate(830.953125 0)"/>
     <use xlink:href="#DejaVuSans-61" transform="translate(892.476562 0)"/>
     <use xlink:href="#DejaVuSans-6c" transform="translate(953.755859 0)"/>
     <use xlink:href="#DejaVuSans-69" transform="translate(981.539062 0)"/>
     <use xlink:href="#DejaVuSans-73" transform="translate(1009.322266 0)"/>
     <use xlink:href="#DejaVuSans-6d" transform="translate(1061.421875 0)"/>
     <use xlink:href="#DejaVuSans-20" transform="translate(1158.833984 0)"/>
     <use xlink:href="#DejaVuSans-6c" transform="translate(1190.621094 0)"/>
     <use xlink:href="#DejaVuSans-6f" transform="translate(1218.404297 0)"/>
     <use xlink:href="#DejaVuSans-73" transform="translate(1279.585938 0)"/>
     <use xlink:href="#DejaVuSans-73" transform="translate(1331.685547 0)"/>
     <use xlink:href="#DejaVuSans-20" transform="translate(1383.785156 0)"/>
     <use xlink:href="#DejaVuSans-28" transform="translate(1415.572266 0)"/>
     <use xlink:href="#DejaVuSans-6d" transform="translate(1454.585938 0)"/>
     <use xlink:href="#DejaVuSans-6f" transform="translate(1551.998047 0)"/>
     <use xlink:href="#DejaVuSans-76" transform="translate(1613.179688 0)"/>
     <use xlink:href="#DejaVuSans-69" transform="translate(1672.359375 0)"/>
     <use xlink:href="#DejaVuSans-6e" transform="translate(1700.142578 0)"/>
     <use xlink:href="#DejaVuSans-67" transform="translate(1763.521484 0)"/>
     <use xlink:href="#DejaVuSans-20" transform="translate(1826.998047 0)"/>
     <use xlink:href="#DejaVuSans-61" transform="translate(1858.785156 0)"/>
     <use xlink:href="#DejaVuSans-76" transform="translate(1920.064453 0)"/>
     <use xlink:href="#DejaVuSans-65" transform="translate(1979.244141 0)"/>
     <use xlink:href="#DejaVuSans-72" transform="translate(2040.767578 0)"/>
     <use xlink:href="#DejaVuSans-61" transform="translate(2081.880859 0)"/>
     <use xlink:href="#DejaVuSans-67" transform="translate(2143.160156 0)"/>
     <use xlink:href="#DejaVuSans-65" transform="translate(2206.636719 0)"/>
     <use xlink:href="#DejaVuSans-20" transform="translate(2268.160156 0)"/>
     <use xlink:href="#DejaVuSans-32" transform="translate(2299.947266 0)"/>
     <use xlink:href="#DejaVuSans-30" transform="translate(2363.570312 0)"/>
     <use xlink:href="#DejaVuSans-29" transform="translate(2427.193359 0)"/>
    </g>
   </g>
   <g id="legend_1">
    <g id="patch_7">
     <path d="M 560.003125 313.04 
L 630.2 313.04 
Q 632.2 313.04 632.2 311.04 
L 632.2 282.68375 
Q 632.2 280.68375 630.2 280.68375 
L 560.003125 280.68375 
Q 558.003125 280.68375 558.003125 282.68375 
L 558.003125 311.04 
Q 558.003125 313.04 560.003125 313.04 
z
" style="fill: #ffffff; opacity: 0.8; stroke: #cccccc; stroke-linejoin: miter"/>
    </g>
    <g id="line2d_25">
     <path d="M 562.003125 288.782188 
L 572.003125 288.782188 
L 582.003125 288.782188 
" style="fill: none; stroke: #1f77b4; stroke-width: 1.5; stroke-linecap: square"/>
    </g>
    <g id="text_15">
     <!-- PyTorch -->
     <g transform="translate(590.003125 292.282188) scale(0.1 -0.1)">
      <defs>
       <path id="DejaVuSans-50" d="M 1259 4147 
L 1259 2394 
L 2053 2394 
Q 2494 2394 2734 2622 
Q 2975 2850 2975 3272 
Q 2975 3691 2734 3919 
Q 2494 4147 2053 4147 
L 1259 4147 
z
M 628 4666 
L 2053 4666 
Q 2838 4666 3239 4311 
Q 3641 3956 3641 3272 
Q 3641 2581 3239 2228 
Q 2838 1875 2053 1875 
L 1259 1875 
L 1259 0 
L 628 0 
L 628 4666 
z
" transform="scale(0.015625)"/>
       <path id="DejaVuSans-79" d="M 2059 -325 
Q 1816 -950 1584 -1140 
Q 1353 -1331 966 -1331 
L 506 -1331 
L 506 -850 
L 844 -850 
Q 1081 -850 1212 -737 
Q 1344 -625 1503 -206 
L 1606 56 
L 191 3500 
L 800 3500 
L 1894 763 
L 2988 3500 
L 3597 3500 
L 2059 -325 
z
" transform="scale(0.015625)"/>
       <path id="DejaVuSans-54" d="M -19 4666 
L 3928 4666 
L 3928 4134 
L 2272 4134 
L 2272 0 
L 1638 0 
L 1638 4134 
L -19 4134 
L -19 4666 
z
" transform="scale(0.015625)"/>
       <path id="DejaVuSans-63" d="M 3122 3366 
L 3122 2828 
Q 2878 2963 2633 3030 
Q 2388 3097 2138 3097 
Q 1578 3097 1268 2742 
Q 959 2388 959 1747 
Q 959 1106 1268 751 
Q 1578 397 2138 397 
Q 2388 397 2633 464 
Q 2878 531 3122 666 
L 3122 134 
Q 2881 22 2623 -34 
Q 2366 -91 2075 -91 
Q 1284 -91 818 406 
Q 353 903 353 1747 
Q 353 2603 823 3093 
Q 1294 3584 2113 3584 
Q 2378 3584 2631 3529 
Q 2884 3475 3122 3366 
z
" transform="scale(0.015625)"/>
       <path id="DejaVuSans-68" d="M 3513 2113 
L 3513 0 
L 2938 0 
L 2938 2094 
Q 2938 2591 2744 2837 
Q 2550 3084 2163 3084 
Q 1697 3084 1428 2787 
Q 1159 2491 1159 1978 
L 1159 0 
L 581 0 
L 581 4863 
L 1159 4863 
L 1159 2956 
Q 1366 3272 1645 3428 
Q 1925 3584 2291 3584 
Q 2894 3584 3203 3211 
Q 3513 2838 3513 2113 
z
" transform="scale(0.015625)"/>
      </defs>
      <use xlink:href="#DejaVuSans-50"/>
      <use xlink:href="#DejaVuSans-79" transform="translate(60.302734 0)"/>
      <use xlink:href="#DejaVuSans-54" transform="translate(119.482422 0)"/>
      <use xlink:href="#DejaVuSans-6f" transform="translate(163.566406 0)"/>
      <use xlink:href="#DejaVuSans-72" transform="translate(224.748047 0)"/>
      <use xlink:href="#DejaVuSans-63" transform="translate(263.611328 0)"/>
      <use xlink:href="#DejaVuSans-68" transform="translate(318.591797 0)"/>
     </g>
    </g>
    <g id="line2d_26">
     <path d="M 562.003125 303.460313 
L 572.003125 303.460313 
L 582.003125 303.460313 
" style="fill: none; stroke: #ff7f0e; stroke-width: 1.5; stroke-linecap: square"/>
    </g>
    <g id="text_16">
     <!-- Jittor -->
     <g transform="translate(590.003125 306.960313) scale(0.1 -0.1)">
      <defs>
       <path id="DejaVuSans-4a" d="M 628 4666 
L 1259 4666 
L 1259 325 
Q 1259 -519 939 -900 
Q 619 -1281 -91 -1281 
L -331 -1281 
L -331 -750 
L -134 -750 
Q 284 -750 456 -515 
Q 628 -281 628 325 
L 628 4666 
z
" transform="scale(0.015625)"/>
      </defs>
      <use xlink:href="#DejaVuSans-4a"/>
      <use xlink:href="#DejaVuSans-69" transform="translate(29.492188 0)"/>
      <use xlink:href="#DejaVuSans-74" transform="translate(57.275391 0)"/>
      <use xlink:href="#DejaVuSans-74" transform="translate(96.484375 0)"/>
      <use xlink:href="#DejaVuSans-6f" transform="translate(135.693359 0)"/>
      <use xlink:href="#DejaVuSans-72" transform="translate(196.875 0)"/>
     </g>
    </g>
   </g>
  </g>
 </g>
 <defs>
  <clipPath id="p517053f0ac">
   <rect x="47.81" y="25.44" width="589.39" height="292.6"/>
  </clipPath>
 </defs>
</svg>
