<?xml version="1.0" encoding="utf-8" standalone="no"?>
<!DOCTYPE svg PUBLIC "-//W3C//DTD SVG 1.1//EN"
  "http://www.w3.org/Graphics/SVG/1.1/DTD/svg11.dtd">
<svg xmlns:xlink="http://www.w3.org/1999/xlink" width="648pt" height="360pt" viewBox="0 0 648 360" xmlns="http://www.w3.org/2000/svg" version="1.1">
 <metadata>
  <rdf:RDF xmlns:dc="http://purl.org/dc/elements/1.1/" xmlns:cc="http://creativecommons.org/ns#" xmlns:rdf="http://www.w3.org/1999/02/22-rdf-syntax-ns#">
   <cc:Work>
    <dc:type rdf:resource="http://purl.org/dc/dcmitype/StillImage"/>
    <dc:date>2026-07-05T02:29:09.341700</dc:date>
    <dc:format>image/svg+xml</dc:format>
    <dc:creator>
     <cc:Agent>
      <dc:title>Matplotlib v3.10.0, https://matplotlib.org/</dc:title>
     </cc:Agent>
    </dc:creator>
   </cc:Work>
  </rdf:RDF>
 </metadata>
 <defs>
  <style type="text/css">*{stroke-linejoin: round; stroke-linecap: butt}</style>
 </defs>
 <g id="figure_1">
  <g id="patch_1">
   <path d="M 0 360 
L 648 360 
L 648 0 
L 0 0 
z
" style="fill: #ffffff"/>
  </g>
  <g id="axes_1">
   <g id="patch_2">
    <path d="M 54.2 318.04 
L 637.2 318.04 
L 637.2 25.44 
L 54.2 25.44 
z
" style="fill: #ffffff"/>
   </g>
   <g id="matplotlib.axis_1">
    <g id="xtick_1">
     <g id="line2d_1">
      <path d="M 70.42449 318.04 
L 70.42449 25.44 
" clip-path="url(#pc84194e5dd)" style="fill: none; stroke: #b0b0b0; stroke-opacity: 0.3; stroke-width: 0.8; stroke-linecap: square"/>
     </g>
     <g id="line2d_2">
      <defs>
       <path id="m73f718e47e" d="M 0 0 
L 0 3.5 
" style="stroke: #000000; stroke-width: 0.8"/>
      </defs>
      <g>
       <use xlink:href="#m73f718e47e" x="70.42449" y="318.04" style="stroke: #000000; stroke-width: 0.8"/>
      </g>
     </g>
     <g id="text_1">
      <!-- 0 -->
      <g transform="translate(67.24324 332.638438) scale(0.1 -0.1)">
       <defs>
        <path id="DejaVuSans-30" d="M 2034 4250 
Q 1547 4250 1301 3770 
Q 1056 3291 1056 2328 
Q 1056 1369 1301 889 
Q 1547 409 2034 409 
Q 2525 409 2770 889 
Q 3016 1369 3016 2328 
Q 3016 3291 2770 3770 
Q 2525 4250 2034 4250 
z
M 2034 4750 
Q 2819 4750 3233 4129 
Q 3647 3509 3647 2328 
Q 3647 1150 3233 529 
Q 2819 -91 2034 -91 
Q 1250 -91 836 529 
Q 422 1150 422 2328 
Q 422 3509 836 4129 
Q 1250 4750 2034 4750 
z
" transform="scale(0.015625)"/>
       </defs>
       <use xlink:href="#DejaVuSans-30"/>
      </g>
     </g>
    </g>
    <g id="xtick_2">
     <g id="line2d_3">
      <path d="M 178.587755 318.04 
L 178.587755 25.44 
" clip-path="url(#pc84194e5dd)" style="fill: none; stroke: #b0b0b0; stroke-opacity: 0.3; stroke-width: 0.8; stroke-linecap: square"/>
     </g>
     <g id="line2d_4">
      <g>
       <use xlink:href="#m73f718e47e" x="178.587755" y="318.04" style="stroke: #000000; stroke-width: 0.8"/>
      </g>
     </g>
     <g id="text_2">
      <!-- 1000 -->
      <g transform="translate(165.862755 332.638438) scale(0.1 -0.1)">
       <defs>
        <path id="DejaVuSans-31" d="M 794 531 
L 1825 531 
L 1825 4091 
L 703 3866 
L 703 4441 
L 1819 4666 
L 2450 4666 
L 2450 531 
L 3481 531 
L 3481 0 
L 794 0 
L 794 531 
z
" transform="scale(0.015625)"/>
       </defs>
       <use xlink:href="#DejaVuSans-31"/>
       <use xlink:href="#DejaVuSans-30" transform="translate(63.623047 0)"/>
       <use xlink:href="#DejaVuSans-30" transform="translate(127.246094 0)"/>
       <use xlink:href="#DejaVuSans-30" transform="translate(190.869141 0)"/>
      </g>
     </g>
    </g>
    <g id="xtick_3">
     <g id="line2d_5">
      <path d="M 286.75102 318.04 
L 286.75102 25.44 
" clip-path="url(#pc84194e5dd)" style="fill: none; stroke: #b0b0b0; stroke-opacity: 0.3; stroke-width: 0.8; stroke-linecap: square"/>
     </g>
     <g id="line2d_6">
      <g>
       <use xlink:href="#m73f718e47e" x="286.75102" y="318.04" style="stroke: #000000; stroke-width: 0.8"/>
      </g>
     </g>
     <g id="text_3">
      <!-- 2000 -->
      <g transform="translate(274.02602 332.638438) scale(0.1 -0.1)">
       <defs>
        <path id="DejaVuSans-32" d="M 1228 531 
L 3431 531 
L 3431 0 
L 469 0 
L 469 531 
Q 828 903 1448 1529 
Q 2069 2156 2228 2338 
Q 2531 2678 2651 2914 
Q 2772 3150 2772 3378 
Q 2772 3750 2511 3984 
Q 2250 4219 1831 4219 
Q 1534 4219 1204 4116 
Q 875 4013 500 3803 
L 500 4441 
Q 881 4594 1212 4672 
Q 1544 4750 1819 4750 
Q 2544 4750 2975 4387 
Q 3406 4025 3406 3419 
Q 3406 3131 3298 2873 
Q 3191 2616 2906 2266 
Q 2828 2175 2409 1742 
Q 1991 1309 1228 531 
z
" transform="scale(0.015625)"/>
       </defs>
       <use xlink:href="#DejaVuSans-32"/>
       <use xlink:href="#DejaVuSans-30" transform="translate(63.623047 0)"/>
       <use xlink:href="#DejaVuSans-30" transform="translate(127.246094 0)"/>
       <use xlink:href="#DejaVuSans-30" transform="translate(190.869141 0)"/>
      </g>
     </g>
    </g>
    <g id="xtick_4">
     <g id="line2d_7">
      <path d="M 394.914286 318.04 
L 394.914286 25.44 
" clip-path="url(#pc84194e5dd)" style="fill: none; stroke: #b0b0b0; stroke-opacity: 0.3; stroke-width: 0.8; stroke-linecap: square"/>
     </g>
     <g id="line2d_8">
      <g>
       <use xlink:href="#m73f718e47e" x="394.914286" y="318.04" style="stroke: #000000; stroke-width: 0.8"/>
      </g>
     </g>
     <g id="text_4">
      <!-- 3000 -->
      <g transform="translate(382.189286 332.638438) scale(0.1 -0.1)">
       <defs>
        <path id="DejaVuSans-33" d="M 2597 2516 
Q 3050 2419 3304 2112 
Q 3559 1806 3559 1356 
Q 3559 666 3084 287 
Q 2609 -91 1734 -91 
Q 1441 -91 1130 -33 
Q 819 25 488 141 
L 488 750 
Q 750 597 1062 519 
Q 1375 441 1716 441 
Q 2309 441 2620 675 
Q 2931 909 2931 1356 
Q 2931 1769 2642 2001 
Q 2353 2234 1838 2234 
L 1294 2234 
L 1294 2753 
L 1863 2753 
Q 2328 2753 2575 2939 
Q 2822 3125 2822 3475 
Q 2822 3834 2567 4026 
Q 2313 4219 1838 4219 
Q 1578 4219 1281 4162 
Q 984 4106 628 3988 
L 628 4550 
Q 988 4650 1302 4700 
Q 1616 4750 1894 4750 
Q 2613 4750 3031 4423 
Q 3450 4097 3450 3541 
Q 3450 3153 3228 2886 
Q 3006 2619 2597 2516 
z
" transform="scale(0.015625)"/>
       </defs>
       <use xlink:href="#DejaVuSans-33"/>
       <use xlink:href="#DejaVuSans-30" transform="translate(63.623047 0)"/>
       <use xlink:href="#DejaVuSans-30" transform="translate(127.246094 0)"/>
       <use xlink:href="#DejaVuSans-30" transform="translate(190.869141 0)"/>
      </g>
     </g>
    </g>
    <g id="xtick_5">
     <g id="line2d_9">
      <path d="M 503.077551 318.04 
L 503.077551 25.44 
" clip-path="url(#pc84194e5dd)" style="fill: none; stroke: #b0b0b0; stroke-opacity: 0.3; stroke-width: 0.8; stroke-linecap: square"/>
     </g>
     <g id="line2d_10">
      <g>
       <use xlink:href="#m73f718e47e" x="503.077551" y="318.04" style="stroke: #000000; stroke-width: 0.8"/>
      </g>
     </g>
     <g id="text_5">
      <!-- 4000 -->
      <g transform="translate(490.352551 332.638438) scale(0.1 -0.1)">
       <defs>
        <path id="DejaVuSans-34" d="M 2419 4116 
L 825 1625 
L 2419 1625 
L 2419 4116 
z
M 2253 4666 
L 3047 4666 
L 3047 1625 
L 3713 1625 
L 3713 1100 
L 3047 1100 
L 3047 0 
L 2419 0 
L 2419 1100 
L 313 1100 
L 313 1709 
L 2253 4666 
z
" transform="scale(0.015625)"/>
       </defs>
       <use xlink:href="#DejaVuSans-34"/>
       <use xlink:href="#DejaVuSans-30" transform="translate(63.623047 0)"/>
       <use xlink:href="#DejaVuSans-30" transform="translate(127.246094 0)"/>
       <use xlink:href="#DejaVuSans-30" transform="translate(190.869141 0)"/>
      </g>
     </g>
    </g>
    <g id="xtick_6">
     <g id="line2d_11">
      <path d="M 611.240816 318.04 
L 611.240816 25.44 
" clip-path="url(#pc84194e5dd)" style="fill: none; stroke: #b0b0b0; stroke-opacity: 0.3; stroke-width: 0.8; stroke-linecap: square"/>
     </g>
     <g id="line2d_12">
      <g>
       <use xlink:href="#m73f718e47e" x="611.240816" y="318.04" style="stroke: #000000; stroke-width: 0.8"/>
      </g>
     </g>
     <g id="text_6">
      <!-- 5000 -->
      <g transform="translate(598.515816 332.638438) scale(0.1 -0.1)">
       <defs>
        <path id="DejaVuSans-35" d="M 691 4666 
L 3169 4666 
L 3169 4134 
L 1269 4134 
L 1269 2991 
Q 1406 3038 1543 3061 
Q 1681 3084 1819 3084 
Q 2600 3084 3056 2656 
Q 3513 2228 3513 1497 
Q 3513 744 3044 326 
Q 2575 -91 1722 -91 
Q 1428 -91 1123 -41 
Q 819 9 494 109 
L 494 744 
Q 775 591 1075 516 
Q 1375 441 1709 441 
Q 2250 441 2565 725 
Q 2881 1009 2881 1497 
Q 2881 1984 2565 2268 
Q 2250 2553 1709 2553 
Q 1456 2553 1204 2497 
Q 953 2441 691 2322 
L 691 4666 
z
" transform="scale(0.015625)"/>
       </defs>
       <use xlink:href="#DejaVuSans-35"/>
       <use xlink:href="#DejaVuSans-30" transform="translate(63.623047 0)"/>
       <use xlink:href="#DejaVuSans-30" transform="translate(127.246094 0)"/>
       <use xlink:href="#DejaVuSans-30" transform="translate(190.869141 0)"/>
      </g>
     </g>
    </g>
    <g id="text_7">
     <!-- step -->
     <g transform="translate(334.884375 346.316563) scale(0.1 -0.1)">
      <defs>
       <path id="DejaVuSans-73" d="M 2834 3397 
L 2834 2853 
Q 2591 2978 2328 3040 
Q 2066 3103 1784 3103 
Q 1356 3103 1142 2972 
Q 928 2841 928 2578 
Q 928 2378 1081 2264 
Q 1234 2150 1697 2047 
L 1894 2003 
Q 2506 1872 2764 1633 
Q 3022 1394 3022 966 
Q 3022 478 2636 193 
Q 2250 -91 1575 -91 
Q 1294 -91 989 -36 
Q 684 19 347 128 
L 347 722 
Q 666 556 975 473 
Q 1284 391 1588 391 
Q 1994 391 2212 530 
Q 2431 669 2431 922 
Q 2431 1156 2273 1281 
Q 2116 1406 1581 1522 
L 1381 1569 
Q 847 1681 609 1914 
Q 372 2147 372 2553 
Q 372 3047 722 3315 
Q 1072 3584 1716 3584 
Q 2034 3584 2315 3537 
Q 2597 3491 2834 3397 
z
" transform="scale(0.015625)"/>
       <path id="DejaVuSans-74" d="M 1172 4494 
L 1172 3500 
L 2356 3500 
L 2356 3053 
L 1172 3053 
L 1172 1153 
Q 1172 725 1289 603 
Q 1406 481 1766 481 
L 2356 481 
L 2356 0 
L 1766 0 
Q 1100 0 847 248 
Q 594 497 594 1153 
L 594 3053 
L 172 3053 
L 172 3500 
L 594 3500 
L 594 4494 
L 1172 4494 
z
" transform="scale(0.015625)"/>
       <path id="DejaVuSans-65" d="M 3597 1894 
L 3597 1613 
L 953 1613 
Q 991 1019 1311 708 
Q 1631 397 2203 397 
Q 2534 397 2845 478 
Q 3156 559 3463 722 
L 3463 178 
Q 3153 47 2828 -22 
Q 2503 -91 2169 -91 
Q 1331 -91 842 396 
Q 353 884 353 1716 
Q 353 2575 817 3079 
Q 1281 3584 2069 3584 
Q 2775 3584 3186 3129 
Q 3597 2675 3597 1894 
z
M 3022 2063 
Q 3016 2534 2758 2815 
Q 2500 3097 2075 3097 
Q 1594 3097 1305 2825 
Q 1016 2553 972 2059 
L 3022 2063 
z
" transform="scale(0.015625)"/>
       <path id="DejaVuSans-70" d="M 1159 525 
L 1159 -1331 
L 581 -1331 
L 581 3500 
L 1159 3500 
L 1159 2969 
Q 1341 3281 1617 3432 
Q 1894 3584 2278 3584 
Q 2916 3584 3314 3078 
Q 3713 2572 3713 1747 
Q 3713 922 3314 415 
Q 2916 -91 2278 -91 
Q 1894 -91 1617 61 
Q 1341 213 1159 525 
z
M 3116 1747 
Q 3116 2381 2855 2742 
Q 2594 3103 2138 3103 
Q 1681 3103 1420 2742 
Q 1159 2381 1159 1747 
Q 1159 1113 1420 752 
Q 1681 391 2138 391 
Q 2594 391 2855 752 
Q 3116 1113 3116 1747 
z
" transform="scale(0.015625)"/>
      </defs>
      <use xlink:href="#DejaVuSans-73"/>
      <use xlink:href="#DejaVuSans-74" transform="translate(52.099609 0)"/>
      <use xlink:href="#DejaVuSans-65" transform="translate(91.308594 0)"/>
      <use xlink:href="#DejaVuSans-70" transform="translate(152.832031 0)"/>
     </g>
    </g>
   </g>
   <g id="matplotlib.axis_2">
    <g id="ytick_1">
     <g id="line2d_13">
      <path d="M 54.2 278.083252 
L 637.2 278.083252 
" clip-path="url(#pc84194e5dd)" style="fill: none; stroke: #b0b0b0; stroke-opacity: 0.3; stroke-width: 0.8; stroke-linecap: square"/>
     </g>
     <g id="line2d_14">
      <defs>
       <path id="m5142d1323c" d="M 0 0 
L -3.5 0 
" style="stroke: #000000; stroke-width: 0.8"/>
      </defs>
      <g>
       <use xlink:href="#m5142d1323c" x="54.2" y="278.083252" style="stroke: #000000; stroke-width: 0.8"/>
      </g>
     </g>
     <g id="text_8">
      <!-- 0.05 -->
      <g transform="translate(24.934375 281.882471) scale(0.1 -0.1)">
       <defs>
        <path id="DejaVuSans-2e" d="M 684 794 
L 1344 794 
L 1344 0 
L 684 0 
L 684 794 
z
" transform="scale(0.015625)"/>
       </defs>
       <use xlink:href="#DejaVuSans-30"/>
       <use xlink:href="#DejaVuSans-2e" transform="translate(63.623047 0)"/>
       <use xlink:href="#DejaVuSans-30" transform="translate(95.410156 0)"/>
       <use xlink:href="#DejaVuSans-35" transform="translate(159.033203 0)"/>
      </g>
     </g>
    </g>
    <g id="ytick_2">
     <g id="line2d_15">
      <path d="M 54.2 221.013967 
L 637.2 221.013967 
" clip-path="url(#pc84194e5dd)" style="fill: none; stroke: #b0b0b0; stroke-opacity: 0.3; stroke-width: 0.8; stroke-linecap: square"/>
     </g>
     <g id="line2d_16">
      <g>
       <use xlink:href="#m5142d1323c" x="54.2" y="221.013967" style="stroke: #000000; stroke-width: 0.8"/>
      </g>
     </g>
     <g id="text_9">
      <!-- 0.10 -->
      <g transform="translate(24.934375 224.813186) scale(0.1 -0.1)">
       <use xlink:href="#DejaVuSans-30"/>
       <use xlink:href="#DejaVuSans-2e" transform="translate(63.623047 0)"/>
       <use xlink:href="#DejaVuSans-31" transform="translate(95.410156 0)"/>
       <use xlink:href="#DejaVuSans-30" transform="translate(159.033203 0)"/>
      </g>
     </g>
    </g>
    <g id="ytick_3">
     <g id="line2d_17">
      <path d="M 54.2 163.944682 
L 637.2 163.944682 
" clip-path="url(#pc84194e5dd)" style="fill: none; stroke: #b0b0b0; stroke-opacity: 0.3; stroke-width: 0.8; stroke-linecap: square"/>
     </g>
     <g id="line2d_18">
      <g>
       <use xlink:href="#m5142d1323c" x="54.2" y="163.944682" style="stroke: #000000; stroke-width: 0.8"/>
      </g>
     </g>
     <g id="text_10">
      <!-- 0.15 -->
      <g transform="translate(24.934375 167.7439) scale(0.1 -0.1)">
       <use xlink:href="#DejaVuSans-30"/>
       <use xlink:href="#DejaVuSans-2e" transform="translate(63.623047 0)"/>
       <use xlink:href="#DejaVuSans-31" transform="translate(95.410156 0)"/>
       <use xlink:href="#DejaVuSans-35" transform="translate(159.033203 0)"/>
      </g>
     </g>
    </g>
    <g id="ytick_4">
     <g id="line2d_19">
      <path d="M 54.2 106.875396 
L 637.2 106.875396 
" clip-path="url(#pc84194e5dd)" style="fill: none; stroke: #b0b0b0; stroke-opacity: 0.3; stroke-width: 0.8; stroke-linecap: square"/>
     </g>
     <g id="line2d_20">
      <g>
       <use xlink:href="#m5142d1323c" x="54.2" y="106.875396" style="stroke: #000000; stroke-width: 0.8"/>
      </g>
     </g>
     <g id="text_11">
      <!-- 0.20 -->
      <g transform="translate(24.934375 110.674615) scale(0.1 -0.1)">
       <use xlink:href="#DejaVuSans-30"/>
       <use xlink:href="#DejaVuSans-2e" transform="translate(63.623047 0)"/>
       <use xlink:href="#DejaVuSans-32" transform="translate(95.410156 0)"/>
       <use xlink:href="#DejaVuSans-30" transform="translate(159.033203 0)"/>
      </g>
     </g>
    </g>
    <g id="ytick_5">
     <g id="line2d_21">
      <path d="M 54.2 49.806111 
L 637.2 49.806111 
" clip-path="url(#pc84194e5dd)" style="fill: none; stroke: #b0b0b0; stroke-opacity: 0.3; stroke-width: 0.8; stroke-linecap: square"/>
     </g>
     <g id="line2d_22">
      <g>
       <use xlink:href="#m5142d1323c" x="54.2" y="49.806111" style="stroke: #000000; stroke-width: 0.8"/>
      </g>
     </g>
     <g id="text_12">
      <!-- 0.25 -->
      <g transform="translate(24.934375 53.605329) scale(0.1 -0.1)">
       <use xlink:href="#DejaVuSans-30"/>
       <use xlink:href="#DejaVuSans-2e" transform="translate(63.623047 0)"/>
       <use xlink:href="#DejaVuSans-32" transform="translate(95.410156 0)"/>
       <use xlink:href="#DejaVuSans-35" transform="translate(159.033203 0)"/>
      </g>
     </g>
    </g>
    <g id="text_13">
     <!-- loss -->
     <g transform="translate(18.854688 181.397813) rotate(-90) scale(0.1 -0.1)">
      <defs>
       <path id="DejaVuSans-6c" d="M 603 4863 
L 1178 4863 
L 1178 0 
L 603 0 
L 603 4863 
z
" transform="scale(0.015625)"/>
       <path id="DejaVuSans-6f" d="M 1959 3097 
Q 1497 3097 1228 2736 
Q 959 2375 959 1747 
Q 959 1119 1226 758 
Q 1494 397 1959 397 
Q 2419 397 2687 759 
Q 2956 1122 2956 1747 
Q 2956 2369 2687 2733 
Q 2419 3097 1959 3097 
z
M 1959 3584 
Q 2709 3584 3137 3096 
Q 3566 2609 3566 1747 
Q 3566 888 3137 398 
Q 2709 -91 1959 -91 
Q 1206 -91 779 398 
Q 353 888 353 1747 
Q 353 2609 779 3096 
Q 1206 3584 1959 3584 
z
" transform="scale(0.015625)"/>
      </defs>
      <use xlink:href="#DejaVuSans-6c"/>
      <use xlink:href="#DejaVuSans-6f" transform="translate(27.783203 0)"/>
      <use xlink:href="#DejaVuSans-73" transform="translate(88.964844 0)"/>
      <use xlink:href="#DejaVuSans-73" transform="translate(141.064453 0)"/>
     </g>
    </g>
   </g>
   <g id="line2d_23">
    <path d="M 80.7 63.139696 
L 81.240816 51.058257 
L 81.781633 44.335077 
L 82.322449 40.778506 
L 82.863265 38.74 
L 83.404082 39.395297 
L 83.944898 46.949947 
L 84.485714 51.881804 
L 85.026531 61.353782 
L 85.567347 67.758357 
L 86.108163 76.006877 
L 88.271429 133.348336 
L 88.812245 151.043284 
L 92.057143 208.438987 
L 92.597959 213.261798 
L 93.138776 219.73897 
L 93.679592 228.238268 
L 94.761224 237.873189 
L 95.302041 241.405265 
L 96.92449 256.410897 
L 97.465306 260.621225 
L 99.087755 265.978103 
L 99.628571 266.868118 
L 100.169388 269.056031 
L 101.25102 272.006673 
L 102.332653 273.269395 
L 102.873469 273.534103 
L 103.414286 274.638357 
L 103.955102 274.755387 
L 104.495918 274.653687 
L 105.036735 275.427153 
L 105.577551 275.939262 
L 106.118367 275.998446 
L 107.2 276.658528 
L 107.740816 276.638471 
L 108.281633 276.898982 
L 108.822449 278.214934 
L 109.363265 277.389057 
L 109.904082 277.203241 
L 110.444898 277.928108 
L 111.526531 275.936252 
L 112.067347 275.406161 
L 112.608163 274.574064 
L 113.689796 274.405426 
L 114.230612 275.606474 
L 115.312245 277.259786 
L 115.853061 277.238924 
L 116.393878 277.656104 
L 116.934694 278.45345 
L 117.47551 278.382459 
L 118.016327 278.583375 
L 118.557143 279.498514 
L 119.097959 279.698129 
L 119.638776 280.534099 
L 120.179592 281.628409 
L 121.261224 279.571159 
L 121.802041 281.284441 
L 122.342857 282.444777 
L 122.883673 282.041519 
L 123.42449 283.222704 
L 123.965306 283.545082 
L 124.506122 284.501311 
L 126.128571 284.588539 
L 126.669388 285.349163 
L 127.75102 284.24798 
L 128.291837 284.244622 
L 128.832653 284.446733 
L 129.373469 284.01202 
L 129.914286 284.068174 
L 130.455102 283.467437 
L 130.995918 283.085148 
L 131.536735 285.170845 
L 132.077551 286.076851 
L 132.618367 286.219743 
L 133.159184 286.530742 
L 133.7 287.884745 
L 134.240816 287.492721 
L 134.781633 287.692946 
L 135.322449 287.110515 
L 135.863265 287.458451 
L 136.404082 286.999663 
L 137.485714 287.213286 
L 138.026531 287.930001 
L 138.567347 288.155207 
L 139.108163 289.383074 
L 139.64898 289.719631 
L 140.189796 290.724716 
L 140.730612 290.955589 
L 141.271429 291.659233 
L 141.812245 292.999103 
L 142.353061 293.070344 
L 142.893878 292.386077 
L 143.434694 292.059236 
L 143.97551 290.759962 
L 144.516327 289.978445 
L 145.057143 290.64932 
L 145.597959 291.000052 
L 146.138776 291.758562 
L 146.679592 291.942825 
L 147.761224 292.55073 
L 148.302041 292.894151 
L 148.842857 292.126303 
L 149.383673 292.234359 
L 150.465306 290.887275 
L 151.006122 289.381084 
L 151.546939 289.328197 
L 152.087755 288.069541 
L 153.169388 286.781345 
L 153.710204 287.255368 
L 154.25102 287.16556 
L 155.332653 288.260819 
L 155.873469 288.013065 
L 156.414286 288.049861 
L 156.955102 286.625502 
L 157.495918 286.672656 
L 158.036735 287.326921 
L 158.577551 286.206868 
L 159.118367 285.518034 
L 159.659184 285.75099 
L 160.740816 285.400334 
L 161.281633 284.832227 
L 162.904082 287.584553 
L 163.444898 287.912708 
L 163.985714 287.927544 
L 164.526531 287.795137 
L 165.067347 288.164467 
L 165.608163 288.303005 
L 166.14898 288.011654 
L 166.689796 287.96815 
L 167.230612 287.400505 
L 167.771429 288.563054 
L 168.312245 288.57494 
L 168.853061 288.198368 
L 169.393878 289.672123 
L 170.47551 290.757079 
L 171.016327 290.07226 
L 172.097959 292.5849 
L 172.638776 293.365388 
L 173.179592 292.557542 
L 173.720408 292.468285 
L 174.261224 293.202694 
L 174.802041 293.175375 
L 175.342857 293.729863 
L 175.883673 294.023753 
L 176.42449 294.597891 
L 177.506122 294.302429 
L 178.046939 295.442268 
L 178.587755 295.478907 
L 179.128571 296.218859 
L 179.669388 296.629546 
L 180.210204 296.838381 
L 180.75102 296.243981 
L 181.291837 297.184767 
L 181.832653 298.87437 
L 182.914286 299.227113 
L 183.455102 299.009432 
L 183.995918 299.527979 
L 184.536735 299.516578 
L 185.077551 299.015402 
L 185.618367 299.734673 
L 186.159184 300.221759 
L 186.7 299.921276 
L 187.240816 300.090853 
L 187.781633 300.545284 
L 188.322449 301.458869 
L 188.863265 300.971636 
L 189.404082 301.274349 
L 189.944898 300.339352 
L 191.026531 299.351008 
L 191.567347 299.91461 
L 192.108163 298.646003 
L 192.64898 298.612148 
L 193.189796 298.919026 
L 193.730612 298.657817 
L 194.271429 298.684757 
L 194.812245 298.349258 
L 195.893878 299.642434 
L 196.97551 298.853747 
L 197.516327 299.23602 
L 198.597959 298.859435 
L 199.138776 298.242865 
L 199.679592 298.404621 
L 200.761224 298.151683 
L 201.302041 298.477857 
L 201.842857 298.378042 
L 202.383673 298.160608 
L 202.92449 299.008952 
L 204.006122 296.445529 
L 204.546939 296.756644 
L 205.087755 296.373408 
L 205.628571 296.360574 
L 207.25102 292.792839 
L 207.791837 293.402902 
L 208.332653 292.96785 
L 209.414286 293.169776 
L 209.955102 293.260721 
L 210.495918 293.212331 
L 211.036735 293.031678 
L 211.577551 293.713237 
L 212.118367 293.749034 
L 213.2 295.045573 
L 213.740816 295.047507 
L 214.281633 295.628738 
L 214.822449 296.633056 
L 215.363265 296.447585 
L 215.904082 296.667614 
L 216.444898 296.369872 
L 217.526531 297.517112 
L 218.067347 299.017325 
L 218.608163 298.541534 
L 219.14898 298.268829 
L 219.689796 298.790684 
L 220.230612 298.601355 
L 220.771429 298.72226 
L 221.312245 299.112948 
L 221.853061 299.699715 
L 222.393878 299.393129 
L 222.934694 299.874872 
L 223.47551 299.963168 
L 224.557143 298.763746 
L 225.097959 298.990862 
L 225.638776 299.03816 
L 226.720408 297.834619 
L 227.261224 298.077659 
L 227.802041 297.889391 
L 228.342857 297.310086 
L 228.883673 297.574378 
L 229.42449 297.135581 
L 229.965306 297.45505 
L 230.506122 296.676291 
L 231.046939 297.279981 
L 231.587755 297.397339 
L 232.128571 296.36645 
L 233.210204 295.800087 
L 233.75102 295.034795 
L 234.291837 295.045102 
L 234.832653 295.267075 
L 235.373469 295.732979 
L 235.914286 295.94113 
L 236.455102 295.905147 
L 236.995918 296.426516 
L 237.536735 296.716843 
L 238.618367 298.194177 
L 239.159184 298.528358 
L 239.7 298.16964 
L 240.781633 299.054096 
L 241.322449 298.641443 
L 241.863265 297.785752 
L 242.404082 297.283958 
L 242.944898 297.878461 
L 243.485714 297.746813 
L 244.026531 298.241244 
L 245.108163 298.287948 
L 245.64898 298.231788 
L 246.189796 298.043494 
L 246.730612 297.548325 
L 247.271429 297.374367 
L 247.812245 297.417984 
L 248.353061 297.854185 
L 248.893878 297.602754 
L 249.434694 297.781732 
L 249.97551 297.495418 
L 250.516327 298.501874 
L 251.597959 299.189004 
L 252.138776 299.955763 
L 252.679592 300.102571 
L 253.761224 300.959228 
L 254.302041 301.014254 
L 254.842857 300.93755 
L 255.383673 301.67971 
L 255.92449 301.581206 
L 256.465306 300.932108 
L 257.006122 300.956231 
L 257.546939 301.393323 
L 258.087755 301.491309 
L 258.628571 302.024142 
L 259.169388 301.224892 
L 259.710204 301.438544 
L 260.25102 301.203254 
L 260.791837 301.708582 
L 261.332653 301.15404 
L 261.873469 301.288993 
L 262.414286 301.082994 
L 263.495918 301.805115 
L 265.118367 300.871211 
L 266.2 301.089561 
L 266.740816 300.869725 
L 267.281633 301.875813 
L 268.904082 301.219611 
L 269.444898 300.574549 
L 269.985714 301.36997 
L 270.526531 300.972941 
L 271.067347 301.406668 
L 271.608163 301.49265 
L 272.689796 301.070686 
L 273.230612 301.073126 
L 273.771429 300.938856 
L 274.312245 300.420007 
L 274.853061 301.060931 
L 275.393878 301.25148 
L 276.47551 300.862518 
L 277.557143 300.262751 
L 278.097959 299.966114 
L 278.638776 299.875041 
L 279.179592 299.93486 
L 279.720408 299.76823 
L 280.261224 300.063884 
L 280.802041 299.859155 
L 281.342857 300.067263 
L 281.883673 299.11964 
L 282.42449 298.60181 
L 282.965306 298.730599 
L 283.506122 298.618389 
L 284.046939 298.711769 
L 284.587755 298.308553 
L 285.128571 298.626813 
L 285.669388 298.399186 
L 286.210204 298.050726 
L 287.291837 298.217713 
L 288.373469 297.964047 
L 288.914286 298.173875 
L 289.455102 298.905403 
L 289.995918 298.787671 
L 291.077551 297.674125 
L 292.159184 296.916147 
L 292.7 296.989582 
L 293.240816 297.371625 
L 293.781633 297.096954 
L 294.322449 297.060186 
L 294.863265 296.557538 
L 295.404082 297.354562 
L 295.944898 297.42708 
L 296.485714 297.117762 
L 297.026531 297.508903 
L 297.567347 297.196086 
L 298.108163 297.662445 
L 298.64898 297.700016 
L 299.189796 298.628125 
L 299.730612 298.673289 
L 300.271429 298.472887 
L 300.812245 298.490914 
L 301.893878 299.749774 
L 302.434694 299.930471 
L 302.97551 299.652897 
L 304.597959 300.536782 
L 305.138776 300.571454 
L 305.679592 300.790782 
L 306.220408 300.206279 
L 306.761224 300.09661 
L 307.842857 300.674871 
L 308.383673 300.805492 
L 308.92449 299.204902 
L 309.465306 298.997139 
L 310.006122 298.368123 
L 310.546939 298.094231 
L 312.169388 299.183186 
L 312.710204 298.771235 
L 313.25102 298.861041 
L 313.791837 299.276334 
L 314.332653 298.84104 
L 314.873469 297.943215 
L 315.414286 297.988304 
L 315.955102 298.336353 
L 316.495918 297.913511 
L 317.036735 297.862177 
L 317.577551 297.282056 
L 318.118367 297.324074 
L 318.659184 296.924062 
L 319.2 297.968814 
L 319.740816 299.683603 
L 320.281633 299.749678 
L 320.822449 300.446922 
L 321.363265 300.677276 
L 321.904082 300.195856 
L 322.444898 300.764147 
L 322.985714 300.290928 
L 323.526531 300.10445 
L 324.067347 299.661728 
L 324.608163 299.572486 
L 325.14898 300.00702 
L 325.689796 300.942137 
L 326.771429 300.388439 
L 327.312245 300.893413 
L 327.853061 300.764015 
L 328.393878 301.698318 
L 328.934694 301.353736 
L 329.47551 302.176551 
L 330.557143 301.466113 
L 331.097959 301.852448 
L 331.638776 301.503934 
L 332.179592 301.319325 
L 332.720408 301.707484 
L 333.261224 301.417976 
L 333.802041 301.72171 
L 335.42449 303.168725 
L 335.965306 303.029362 
L 336.506122 301.792226 
L 337.046939 301.729322 
L 337.587755 301.932603 
L 338.128571 301.300064 
L 338.669388 301.615922 
L 339.210204 301.682078 
L 339.75102 302.244752 
L 340.291837 301.644787 
L 340.832653 301.246109 
L 341.373469 301.389553 
L 341.914286 301.370459 
L 342.455102 301.496088 
L 342.995918 301.498075 
L 343.536735 300.955278 
L 344.077551 300.905768 
L 344.618367 301.024825 
L 345.159184 300.851688 
L 345.7 300.332331 
L 346.240816 299.071199 
L 346.781633 299.046915 
L 347.322449 299.766029 
L 347.863265 299.621243 
L 348.404082 299.003447 
L 348.944898 299.205371 
L 349.485714 298.46615 
L 350.567347 297.631882 
L 351.108163 297.886943 
L 351.64898 297.669928 
L 352.730612 295.702425 
L 353.271429 295.078204 
L 353.812245 295.342763 
L 354.353061 296.069014 
L 354.893878 295.584566 
L 355.434694 295.284294 
L 355.97551 295.438954 
L 356.516327 296.383351 
L 357.057143 296.765326 
L 357.597959 296.87813 
L 358.138776 296.568581 
L 358.679592 296.618719 
L 359.220408 295.980823 
L 360.302041 297.240635 
L 360.842857 297.101144 
L 361.383673 297.344263 
L 361.92449 296.330346 
L 362.465306 296.492364 
L 363.546939 298.352989 
L 364.087755 297.904221 
L 364.628571 297.926582 
L 365.169388 297.051211 
L 365.710204 296.727812 
L 366.25102 296.244531 
L 366.791837 296.274042 
L 367.332653 296.130074 
L 367.873469 296.324618 
L 368.414286 296.037388 
L 368.955102 296.714759 
L 369.495918 297.134291 
L 370.036735 298.083811 
L 370.577551 297.229953 
L 371.118367 296.683958 
L 371.659184 297.14473 
L 372.2 296.471281 
L 372.740816 297.418712 
L 373.281633 298.081944 
L 373.822449 298.286886 
L 374.363265 298.319437 
L 374.904082 299.362795 
L 375.444898 298.839234 
L 377.067347 300.78204 
L 378.14898 300.817379 
L 378.689796 300.956481 
L 379.230612 300.811041 
L 379.771429 299.893057 
L 380.312245 300.158932 
L 380.853061 299.826742 
L 381.393878 299.925973 
L 381.934694 300.656033 
L 382.47551 299.841957 
L 383.016327 300.097425 
L 383.557143 299.985147 
L 384.638776 299.172079 
L 385.179592 298.385394 
L 385.720408 297.869552 
L 386.261224 298.272926 
L 386.802041 297.780658 
L 387.883673 297.769427 
L 388.42449 297.804574 
L 389.506122 297.615435 
L 390.046939 297.846619 
L 390.587755 298.274848 
L 391.669388 297.687788 
L 392.210204 297.65976 
L 392.75102 296.428666 
L 393.291837 296.757803 
L 393.832653 296.895876 
L 394.373469 296.241736 
L 394.914286 295.363009 
L 395.455102 294.93551 
L 395.995918 295.564018 
L 396.536735 295.560559 
L 397.077551 295.309764 
L 397.618367 294.911134 
L 398.159184 294.325155 
L 398.7 294.88418 
L 399.240816 294.620665 
L 399.781633 294.662153 
L 400.863265 295.500475 
L 401.944898 295.386811 
L 403.026531 297.054258 
L 403.567347 297.694478 
L 404.108163 298.067052 
L 404.64898 297.295924 
L 405.189796 296.938161 
L 405.730612 297.809646 
L 406.271429 298.054344 
L 406.812245 297.389621 
L 407.353061 297.495287 
L 407.893878 297.737703 
L 408.97551 298.95557 
L 409.516327 298.508362 
L 410.057143 299.160561 
L 410.597959 299.637282 
L 411.138776 299.536727 
L 411.679592 299.699007 
L 412.220408 300.08187 
L 412.761224 299.826154 
L 413.302041 299.867729 
L 414.383673 299.212403 
L 414.92449 299.046441 
L 416.006122 300.460064 
L 417.087755 301.61446 
L 417.628571 302.032605 
L 418.169388 301.915712 
L 418.710204 301.635431 
L 419.25102 301.89223 
L 420.332653 299.828265 
L 421.414286 298.695292 
L 421.955102 298.356751 
L 422.495918 298.207665 
L 423.036735 298.416215 
L 423.577551 299.073838 
L 424.118367 298.363871 
L 424.659184 298.429218 
L 425.2 299.330054 
L 425.740816 299.417657 
L 426.281633 300.044397 
L 426.822449 300.200503 
L 428.444898 298.611592 
L 428.985714 297.893925 
L 429.526531 298.521153 
L 430.067347 297.817425 
L 430.608163 297.92832 
L 431.14898 298.537918 
L 431.689796 298.293874 
L 432.230612 297.920199 
L 432.771429 298.204193 
L 433.312245 297.970817 
L 433.853061 297.403193 
L 434.934694 297.750878 
L 435.47551 296.986475 
L 436.557143 296.082003 
L 437.638776 296.185935 
L 438.720408 297.10415 
L 439.261224 297.956015 
L 439.802041 299.211075 
L 440.342857 298.799134 
L 440.883673 299.895842 
L 441.965306 301.376756 
L 443.046939 301.883113 
L 443.587755 302.072707 
L 444.669388 301.729515 
L 445.210204 300.755195 
L 445.75102 300.567863 
L 446.832653 301.630627 
L 447.373469 301.892092 
L 447.914286 301.054683 
L 448.455102 301.021849 
L 449.536735 299.455683 
L 450.077551 299.58961 
L 450.618367 299.428578 
L 451.159184 299.141783 
L 451.7 298.132222 
L 452.240816 298.34287 
L 452.781633 297.441391 
L 453.863265 297.505947 
L 454.404082 297.834937 
L 454.944898 297.383556 
L 455.485714 297.536208 
L 456.026531 297.350365 
L 456.567347 297.380565 
L 457.64898 297.796801 
L 458.189796 298.471911 
L 458.730612 298.539255 
L 459.271429 298.030737 
L 459.812245 298.389283 
L 460.353061 298.268406 
L 461.434694 297.243141 
L 461.97551 297.510222 
L 462.516327 297.906896 
L 463.057143 297.439195 
L 464.138776 297.661805 
L 464.679592 297.873384 
L 465.220408 297.230944 
L 465.761224 297.638572 
L 466.302041 297.296606 
L 466.842857 297.707025 
L 467.92449 297.740282 
L 468.465306 296.866939 
L 469.006122 296.228791 
L 469.546939 295.972193 
L 470.087755 296.504997 
L 470.628571 295.685591 
L 471.169388 295.818609 
L 471.710204 294.751041 
L 472.25102 294.88754 
L 472.791837 294.175179 
L 473.332653 294.148199 
L 473.873469 294.486365 
L 474.414286 295.04657 
L 474.955102 294.703154 
L 475.495918 294.999364 
L 476.036735 294.751711 
L 477.118367 294.537062 
L 478.2 295.607486 
L 478.740816 295.129597 
L 479.281633 295.584476 
L 479.822449 295.541032 
L 480.363265 295.094074 
L 480.904082 294.258885 
L 481.444898 295.252971 
L 483.067347 297.302081 
L 483.608163 297.739119 
L 484.14898 297.209345 
L 484.689796 297.658418 
L 485.230612 297.519836 
L 485.771429 297.663999 
L 486.312245 297.573011 
L 486.853061 297.738065 
L 487.393878 298.343606 
L 487.934694 298.663355 
L 489.016327 298.350855 
L 489.557143 298.832443 
L 490.638776 299.180693 
L 491.179592 300.205499 
L 491.720408 300.863932 
L 492.261224 300.919033 
L 492.802041 300.350875 
L 493.342857 300.809814 
L 493.883673 300.158873 
L 494.42449 299.868305 
L 494.965306 300.322862 
L 495.506122 300.089896 
L 496.587755 300.014649 
L 497.128571 299.885141 
L 497.669388 299.205464 
L 498.210204 298.842763 
L 498.75102 299.031646 
L 499.291837 298.284095 
L 499.832653 298.724113 
L 500.914286 298.681666 
L 501.455102 297.980309 
L 502.536735 298.457615 
L 503.077551 298.171558 
L 504.159184 298.894385 
L 504.7 299.346402 
L 505.240816 299.42323 
L 505.781633 299.702923 
L 506.322449 299.115648 
L 506.863265 298.970262 
L 507.404082 299.481487 
L 507.944898 299.192336 
L 508.485714 300.514909 
L 509.026531 301.364724 
L 509.567347 301.639663 
L 510.108163 302.949865 
L 510.64898 302.363051 
L 511.189796 302.239755 
L 511.730612 301.904924 
L 512.271429 302.837982 
L 512.812245 302.672619 
L 513.353061 302.073488 
L 513.893878 302.550043 
L 514.434694 302.675087 
L 514.97551 301.855547 
L 515.516327 301.532394 
L 516.057143 302.143569 
L 516.597959 301.916737 
L 517.138776 302.259316 
L 517.679592 302.845745 
L 518.220408 302.144407 
L 518.761224 301.932283 
L 519.302041 301.378656 
L 519.842857 300.473937 
L 520.92449 299.413754 
L 521.465306 299.665468 
L 522.006122 299.1448 
L 522.546939 299.128393 
L 523.087755 299.323865 
L 524.169388 298.858959 
L 524.710204 298.202818 
L 525.25102 297.969625 
L 525.791837 298.61979 
L 526.332653 298.795414 
L 526.873469 298.556801 
L 527.414286 298.844656 
L 527.955102 298.278025 
L 528.495918 298.185298 
L 529.036735 298.405159 
L 529.577551 299.259538 
L 530.118367 299.636274 
L 530.659184 300.185596 
L 531.2 299.664676 
L 531.740816 298.980239 
L 532.281633 298.967324 
L 532.822449 299.458733 
L 533.363265 299.71072 
L 533.904082 299.172435 
L 534.444898 299.009831 
L 534.985714 298.656822 
L 535.526531 299.116372 
L 536.067347 299.102129 
L 536.608163 298.352345 
L 537.14898 297.967165 
L 537.689796 298.457673 
L 538.230612 298.173916 
L 538.771429 298.07013 
L 539.312245 297.241495 
L 539.853061 295.698628 
L 541.47551 293.252498 
L 542.016327 294.25224 
L 543.638776 293.548119 
L 544.179592 292.942645 
L 544.720408 293.460461 
L 545.261224 293.616847 
L 545.802041 294.296302 
L 546.883673 294.218953 
L 547.42449 294.346899 
L 547.965306 294.341907 
L 548.506122 294.049322 
L 549.046939 294.128503 
L 549.587755 294.408292 
L 550.128571 294.184154 
L 550.669388 295.35745 
L 551.210204 294.758892 
L 552.291837 295.529153 
L 552.832653 295.490586 
L 553.373469 296.349172 
L 553.914286 296.547868 
L 554.995918 296.324359 
L 555.536735 296.491559 
L 556.077551 296.305807 
L 556.618367 296.557024 
L 557.159184 296.510475 
L 558.781633 296.839666 
L 559.322449 296.576747 
L 559.863265 296.067932 
L 560.404082 296.513081 
L 560.944898 297.543622 
L 561.485714 298.009216 
L 562.026531 299.210418 
L 562.567347 299.252598 
L 563.108163 299.642863 
L 563.64898 299.783164 
L 564.189796 299.458809 
L 564.730612 299.57946 
L 565.271429 299.576701 
L 565.812245 299.83479 
L 566.353061 298.985711 
L 567.97551 300.073213 
L 568.516327 300.176808 
L 569.057143 300.901333 
L 569.597959 300.870015 
L 570.679592 302.175761 
L 571.220408 302.088539 
L 572.302041 301.415388 
L 572.842857 301.065576 
L 573.383673 300.949412 
L 573.92449 300.599639 
L 574.465306 300.811455 
L 575.006122 301.180398 
L 575.546939 301.019638 
L 576.087755 301.688883 
L 576.628571 301.288749 
L 577.169388 301.725149 
L 577.710204 300.835649 
L 578.791837 300.041002 
L 579.332653 300.052739 
L 579.873469 300.201461 
L 580.414286 299.974733 
L 580.955102 299.453061 
L 581.495918 299.568974 
L 582.036735 299.320951 
L 582.577551 299.293457 
L 583.118367 299.785269 
L 584.2 298.803794 
L 584.740816 299.474091 
L 585.281633 298.969567 
L 585.822449 298.230312 
L 586.363265 298.03945 
L 586.904082 297.54418 
L 587.444898 298.120554 
L 587.985714 297.845062 
L 588.526531 297.980713 
L 589.067347 297.145547 
L 589.608163 297.135788 
L 590.14898 296.475478 
L 590.689796 295.098565 
L 591.230612 294.945444 
L 592.853061 293.508709 
L 593.393878 293.354346 
L 593.934694 292.574124 
L 595.016327 293.818374 
L 595.557143 292.951553 
L 596.097959 292.770578 
L 596.638776 293.27999 
L 597.720408 293.622665 
L 598.261224 292.903761 
L 598.802041 293.189915 
L 599.342857 293.787836 
L 599.883673 294.553364 
L 600.42449 294.126695 
L 601.506122 295.160007 
L 602.046939 295.294134 
L 602.587755 295.882878 
L 603.128571 296.222619 
L 603.669388 296.392383 
L 604.210204 296.098563 
L 604.75102 295.665926 
L 605.832653 294.345656 
L 606.373469 294.34823 
L 606.914286 295.179234 
L 607.455102 295.264928 
L 607.995918 294.811771 
L 608.536735 295.162161 
L 609.077551 296.027417 
L 610.159184 295.614468 
L 610.7 295.696984 
L 610.7 295.696984 
" clip-path="url(#pc84194e5dd)" style="fill: none; stroke: #1f77b4; stroke-width: 1.5; stroke-linecap: square"/>
   </g>
   <g id="line2d_24">
    <path d="M 80.7 67.090669 
L 81.781633 46.362338 
L 82.322449 41.566269 
L 82.863265 43.64362 
L 83.404082 51.099498 
L 83.944898 60.197715 
L 84.485714 78.808146 
L 85.026531 87.221831 
L 85.567347 97.697573 
L 87.189796 136.18928 
L 87.730612 141.687886 
L 88.812245 159.356464 
L 90.97551 197.77581 
L 92.057143 211.789536 
L 93.138776 231.004684 
L 94.220408 235.903366 
L 94.761224 237.754305 
L 95.302041 239.01458 
L 96.383673 249.700137 
L 97.465306 254.165857 
L 98.006122 254.30357 
L 99.087755 259.270112 
L 99.628571 259.690316 
L 101.25102 264.76653 
L 101.791837 264.94145 
L 102.332653 266.24213 
L 102.873469 265.908057 
L 103.414286 265.805868 
L 103.955102 266.172863 
L 104.495918 268.498007 
L 105.036735 269.661279 
L 105.577551 269.581158 
L 106.118367 270.158705 
L 107.2 269.179279 
L 107.740816 270.028241 
L 108.281633 270.385085 
L 108.822449 274.04041 
L 109.363265 274.302308 
L 109.904082 275.669719 
L 110.444898 276.053795 
L 110.985714 275.455398 
L 111.526531 276.383438 
L 112.067347 276.322616 
L 112.608163 276.580663 
L 113.14898 276.592073 
L 113.689796 278.172494 
L 114.230612 277.892093 
L 115.312245 277.028349 
L 115.853061 277.041638 
L 116.393878 277.569118 
L 116.934694 277.313531 
L 117.47551 278.897401 
L 118.016327 278.876193 
L 118.557143 278.709032 
L 119.097959 278.955596 
L 119.638776 277.2296 
L 120.179592 277.599133 
L 120.720408 276.562772 
L 121.261224 277.791236 
L 121.802041 278.643342 
L 122.883673 278.493839 
L 123.42449 279.11004 
L 123.965306 280.665122 
L 124.506122 279.931592 
L 125.046939 280.727995 
L 126.128571 280.939178 
L 126.669388 281.100381 
L 127.75102 282.361296 
L 128.291837 281.473989 
L 128.832653 282.107267 
L 129.373469 282.4375 
L 129.914286 283.006749 
L 130.455102 283.238507 
L 130.995918 283.775808 
L 131.536735 284.570304 
L 132.618367 282.761672 
L 133.159184 282.333071 
L 133.7 282.592135 
L 134.781633 280.968147 
L 135.322449 281.312442 
L 135.863265 281.790263 
L 136.404082 280.909509 
L 136.944898 280.262147 
L 138.026531 277.894437 
L 138.567347 277.784115 
L 139.108163 278.645605 
L 139.64898 279.055692 
L 140.189796 279.821735 
L 140.730612 279.138025 
L 141.271429 280.309651 
L 141.812245 279.849943 
L 142.353061 279.220029 
L 142.893878 279.710629 
L 144.516327 282.223784 
L 145.057143 283.334889 
L 145.597959 283.114602 
L 146.138776 283.218437 
L 146.679592 283.649153 
L 147.220408 285.179929 
L 147.761224 285.615447 
L 148.842857 288.542793 
L 149.383673 288.678779 
L 150.465306 289.226441 
L 151.006122 289.117254 
L 151.546939 289.378648 
L 152.087755 288.38008 
L 153.169388 289.713481 
L 153.710204 290.0774 
L 154.25102 289.575881 
L 154.791837 289.606087 
L 155.332653 289.398711 
L 155.873469 288.45141 
L 156.414286 289.408017 
L 156.955102 289.189677 
L 158.036735 288.220772 
L 158.577551 288.698595 
L 159.118367 288.934224 
L 159.659184 288.777923 
L 160.2 288.936082 
L 160.740816 288.932575 
L 161.281633 289.135804 
L 161.822449 288.892435 
L 162.904082 290.810578 
L 163.444898 290.724978 
L 163.985714 290.483611 
L 164.526531 289.272323 
L 165.067347 290.426865 
L 165.608163 290.254623 
L 166.14898 290.569447 
L 166.689796 291.24525 
L 167.230612 291.479025 
L 167.771429 292.31837 
L 168.312245 292.267772 
L 168.853061 292.626763 
L 169.393878 293.266551 
L 169.934694 292.672483 
L 171.016327 292.79266 
L 172.097959 292.103063 
L 172.638776 292.418599 
L 173.179592 291.82138 
L 173.720408 292.197255 
L 174.261224 292.28763 
L 175.342857 294.381887 
L 175.883673 294.033611 
L 176.42449 293.485224 
L 176.965306 293.712102 
L 177.506122 293.712277 
L 178.046939 293.838031 
L 178.587755 293.535753 
L 179.128571 293.942799 
L 180.210204 292.980335 
L 180.75102 293.294171 
L 181.291837 292.897948 
L 181.832653 292.867585 
L 182.373469 292.966174 
L 182.914286 293.243596 
L 183.455102 293.368363 
L 183.995918 294.025605 
L 184.536735 293.932875 
L 185.077551 293.976016 
L 185.618367 293.871973 
L 186.159184 294.067903 
L 186.7 293.783622 
L 187.240816 294.825276 
L 187.781633 294.749473 
L 188.322449 295.199159 
L 188.863265 295.148455 
L 189.944898 296.026893 
L 190.485714 296.296415 
L 191.026531 296.848404 
L 192.108163 297.534309 
L 192.64898 297.676264 
L 193.189796 298.035213 
L 194.812245 297.258142 
L 195.893878 297.924062 
L 196.434694 297.638177 
L 196.97551 297.132746 
L 197.516327 297.372143 
L 198.057143 297.264423 
L 198.597959 297.336385 
L 199.138776 297.686152 
L 199.679592 297.220034 
L 200.220408 297.084102 
L 200.761224 296.209629 
L 201.302041 296.714327 
L 201.842857 295.393668 
L 202.92449 295.144692 
L 203.465306 295.566903 
L 204.006122 295.788358 
L 205.087755 296.902954 
L 205.628571 297.961885 
L 206.169388 298.098451 
L 206.710204 298.396996 
L 207.25102 299.330629 
L 207.791837 299.739122 
L 208.332653 300.567854 
L 208.873469 300.512372 
L 209.955102 300.903369 
L 210.495918 301.623828 
L 211.036735 301.510406 
L 211.577551 302.36958 
L 212.118367 302.225179 
L 212.659184 303.131497 
L 213.2 303.110777 
L 214.281633 302.682101 
L 215.904082 301.890356 
L 216.444898 301.498707 
L 217.526531 301.551782 
L 218.608163 300.919084 
L 219.14898 300.307005 
L 219.689796 300.455967 
L 220.230612 300.994246 
L 221.853061 299.963092 
L 222.934694 300.483317 
L 223.47551 300.982901 
L 224.557143 301.27958 
L 225.097959 301.051182 
L 225.638776 301.259073 
L 226.179592 300.918656 
L 227.261224 300.753788 
L 228.883673 301.279428 
L 229.42449 301.563961 
L 229.965306 302.377606 
L 230.506122 302.249172 
L 231.046939 301.326479 
L 231.587755 301.31452 
L 232.669388 302.341006 
L 233.75102 301.539609 
L 234.832653 301.602374 
L 235.373469 301.509259 
L 235.914286 301.267771 
L 236.455102 300.592307 
L 236.995918 300.88049 
L 237.536735 300.819212 
L 238.077551 300.986527 
L 238.618367 300.800865 
L 239.159184 300.353781 
L 240.240816 300.7262 
L 240.781633 300.556786 
L 241.863265 301.676211 
L 242.404082 301.911186 
L 242.944898 301.627666 
L 243.485714 300.809029 
L 244.026531 301.503424 
L 245.108163 301.840246 
L 245.64898 302.100572 
L 246.189796 302.084018 
L 246.730612 302.450346 
L 247.271429 302.98141 
L 247.812245 303.279999 
L 248.353061 303.277375 
L 248.893878 302.904087 
L 249.434694 302.818549 
L 249.97551 303.100533 
L 250.516327 302.750484 
L 251.057143 302.097736 
L 251.597959 301.78641 
L 252.138776 300.449676 
L 253.220408 299.38647 
L 253.761224 298.373753 
L 254.302041 299.365339 
L 254.842857 298.672144 
L 255.383673 298.994275 
L 256.465306 296.931764 
L 257.006122 296.958162 
L 258.087755 295.302512 
L 258.628571 294.734586 
L 259.169388 294.725347 
L 259.710204 294.098165 
L 260.25102 293.828735 
L 260.791837 293.961197 
L 261.332653 293.965493 
L 261.873469 294.473273 
L 262.414286 294.194795 
L 262.955102 294.651871 
L 263.495918 294.776037 
L 264.036735 294.592733 
L 264.577551 294.071429 
L 265.118367 292.843555 
L 265.659184 292.214355 
L 266.2 292.225397 
L 266.740816 292.60167 
L 267.281633 293.162337 
L 267.822449 293.461608 
L 268.363265 294.251497 
L 268.904082 294.318121 
L 269.985714 294.245222 
L 271.067347 294.862079 
L 271.608163 294.002445 
L 272.14898 293.946656 
L 272.689796 294.191778 
L 273.230612 294.966173 
L 273.771429 295.203091 
L 274.312245 294.552958 
L 274.853061 294.315017 
L 275.393878 295.539802 
L 276.47551 297.28767 
L 277.016327 296.968611 
L 277.557143 297.372095 
L 278.097959 296.390772 
L 278.638776 296.337993 
L 279.179592 296.704892 
L 279.720408 297.289409 
L 280.261224 298.045765 
L 280.802041 298.497851 
L 281.342857 299.203041 
L 281.883673 298.85935 
L 282.42449 299.189018 
L 282.965306 299.115589 
L 284.046939 297.709335 
L 284.587755 298.26134 
L 286.210204 300.281658 
L 286.75102 300.398872 
L 287.832653 300.424988 
L 288.373469 299.929193 
L 288.914286 301.006994 
L 289.995918 299.639006 
L 291.077551 299.682095 
L 291.618367 300.12614 
L 292.159184 299.570807 
L 292.7 299.869404 
L 293.240816 300.38562 
L 293.781633 300.290671 
L 294.322449 300.827638 
L 294.863265 300.720186 
L 295.404082 300.380542 
L 295.944898 299.851567 
L 296.485714 299.758143 
L 297.026531 298.827596 
L 297.567347 298.56681 
L 298.108163 298.59674 
L 298.64898 298.457361 
L 299.189796 299.168929 
L 299.730612 299.152836 
L 300.271429 299.866319 
L 300.812245 300.016233 
L 301.353061 299.954717 
L 301.893878 299.343894 
L 302.434694 298.438161 
L 304.057143 298.476536 
L 304.597959 298.576035 
L 305.138776 298.275024 
L 305.679592 298.320471 
L 306.220408 297.873646 
L 306.761224 298.341857 
L 307.302041 297.684679 
L 307.842857 298.594527 
L 308.92449 298.792681 
L 309.465306 299.204315 
L 310.546939 298.891651 
L 311.087755 299.050282 
L 312.169388 299.828403 
L 313.25102 299.386374 
L 313.791837 299.757496 
L 314.332653 299.521458 
L 314.873469 299.105321 
L 316.495918 300.01344 
L 317.036735 300.580048 
L 317.577551 300.034783 
L 318.118367 300.795612 
L 318.659184 300.375367 
L 319.2 301.107248 
L 320.281633 301.187991 
L 320.822449 300.984843 
L 321.904082 301.92612 
L 322.444898 301.825833 
L 322.985714 301.977117 
L 324.067347 303.226852 
L 324.608163 303.108181 
L 325.14898 303.414139 
L 326.230612 303.590655 
L 326.771429 303.916105 
L 327.312245 303.681109 
L 327.853061 303.726544 
L 328.393878 304.74 
L 328.934694 304.148065 
L 329.47551 304.704067 
L 330.016327 303.887191 
L 331.097959 303.712759 
L 331.638776 304.058135 
L 332.179592 303.96103 
L 332.720408 303.384409 
L 333.261224 303.546014 
L 333.802041 303.08858 
L 334.342857 302.892526 
L 335.42449 303.329588 
L 336.506122 303.039128 
L 337.046939 302.724293 
L 337.587755 302.89999 
L 338.128571 302.837007 
L 338.669388 303.14191 
L 339.210204 303.011796 
L 339.75102 303.660634 
L 340.291837 303.144472 
L 341.914286 304.005999 
L 342.455102 303.333067 
L 342.995918 303.433788 
L 343.536735 303.230936 
L 344.077551 302.739171 
L 344.618367 302.72649 
L 345.159184 303.207146 
L 345.7 302.529444 
L 346.240816 302.643886 
L 346.781633 302.570522 
L 347.863265 303.479027 
L 348.404082 302.522633 
L 348.944898 302.3352 
L 349.485714 302.007876 
L 350.567347 301.795103 
L 351.108163 302.111711 
L 351.64898 301.700062 
L 352.189796 301.097394 
L 353.271429 301.03019 
L 353.812245 300.492503 
L 354.353061 300.683104 
L 354.893878 301.179418 
L 355.434694 301.428906 
L 355.97551 301.135053 
L 356.516327 301.123071 
L 357.057143 300.970189 
L 357.597959 301.211142 
L 358.679592 300.625914 
L 359.220408 301.223271 
L 359.761224 301.587583 
L 360.302041 301.430378 
L 360.842857 301.098319 
L 361.383673 300.988533 
L 361.92449 301.025333 
L 362.465306 301.443812 
L 363.006122 301.625329 
L 363.546939 301.094778 
L 364.628571 302.520164 
L 365.169388 302.151026 
L 365.710204 301.441752 
L 366.25102 301.202956 
L 366.791837 300.837769 
L 367.332653 300.909296 
L 368.414286 299.741004 
L 370.036735 299.253822 
L 371.118367 300.00984 
L 371.659184 299.739598 
L 372.2 299.097976 
L 372.740816 298.856517 
L 373.281633 298.927921 
L 373.822449 298.74019 
L 374.363265 298.357465 
L 374.904082 298.256283 
L 375.444898 297.987321 
L 375.985714 297.380614 
L 376.526531 298.053058 
L 377.067347 297.915068 
L 377.608163 297.596455 
L 378.14898 298.36452 
L 378.689796 298.939254 
L 379.771429 299.732462 
L 381.393878 298.020563 
L 381.934694 297.581798 
L 382.47551 297.78056 
L 383.016327 298.389612 
L 383.557143 298.634009 
L 384.638776 297.337337 
L 385.179592 297.814134 
L 386.261224 297.208763 
L 386.802041 297.302142 
L 387.883673 297.173337 
L 388.42449 297.59419 
L 388.965306 297.287028 
L 389.506122 297.692244 
L 390.046939 297.737117 
L 390.587755 297.642237 
L 391.669388 299.148413 
L 392.210204 299.433105 
L 393.291837 299.699893 
L 393.832653 300.083659 
L 394.373469 299.419732 
L 394.914286 299.435828 
L 395.455102 300.201857 
L 395.995918 300.126461 
L 396.536735 299.575941 
L 397.077551 300.23469 
L 397.618367 301.094618 
L 398.159184 301.057219 
L 398.7 300.334553 
L 399.240816 300.068221 
L 399.781633 299.478052 
L 400.322449 299.745803 
L 400.863265 299.836318 
L 401.404082 299.463268 
L 402.485714 299.414473 
L 403.567347 299.204278 
L 404.108163 299.286069 
L 405.189796 298.740927 
L 405.730612 299.470143 
L 406.271429 299.702513 
L 406.812245 299.039885 
L 407.353061 299.400694 
L 407.893878 298.921079 
L 408.434694 298.773133 
L 408.97551 298.461923 
L 409.516327 299.267072 
L 410.057143 299.398006 
L 410.597959 299.216228 
L 411.138776 298.344729 
L 411.679592 298.262902 
L 412.220408 298.402849 
L 412.761224 297.773958 
L 413.842857 297.361174 
L 414.383673 296.716606 
L 416.006122 297.936907 
L 416.546939 297.249224 
L 417.087755 297.495797 
L 417.628571 298.06494 
L 418.169388 297.622387 
L 419.25102 295.480091 
L 420.332653 294.554143 
L 420.873469 294.552109 
L 421.414286 295.334605 
L 422.495918 295.523337 
L 424.118367 295.555767 
L 424.659184 295.332992 
L 425.2 295.486436 
L 425.740816 295.832134 
L 426.281633 295.099105 
L 427.363265 296.141058 
L 427.904082 295.898274 
L 428.444898 296.225291 
L 428.985714 296.387019 
L 429.526531 296.942941 
L 430.067347 297.916777 
L 430.608163 298.229949 
L 431.14898 298.199412 
L 431.689796 298.810525 
L 432.230612 298.181275 
L 432.771429 298.195609 
L 433.312245 297.909881 
L 433.853061 297.420726 
L 434.393878 298.464717 
L 434.934694 298.266515 
L 435.47551 298.194701 
L 436.016327 298.641329 
L 436.557143 298.115001 
L 437.097959 298.215179 
L 437.638776 297.702291 
L 438.179592 297.700157 
L 438.720408 297.201212 
L 439.261224 297.139158 
L 440.342857 297.788934 
L 440.883673 297.758384 
L 441.42449 298.699137 
L 441.965306 299.157589 
L 442.506122 298.233745 
L 443.046939 297.997216 
L 443.587755 298.169454 
L 444.669388 297.268006 
L 445.210204 296.495731 
L 445.75102 297.131282 
L 446.291837 298.037438 
L 446.832653 298.726152 
L 447.373469 298.575296 
L 447.914286 299.130894 
L 448.455102 298.725783 
L 448.995918 298.697947 
L 449.536735 298.989387 
L 450.077551 299.041066 
L 450.618367 299.26756 
L 451.159184 298.65719 
L 451.7 299.174751 
L 452.240816 298.965029 
L 452.781633 299.382325 
L 453.322449 300.155088 
L 453.863265 301.441869 
L 454.944898 300.978107 
L 455.485714 301.957869 
L 456.026531 302.294053 
L 456.567347 301.839801 
L 457.108163 301.799234 
L 457.64898 301.12455 
L 458.189796 300.701873 
L 458.730612 299.987871 
L 459.271429 300.41211 
L 460.353061 299.855827 
L 460.893878 299.961035 
L 461.434694 299.814963 
L 461.97551 300.004789 
L 462.516327 299.695122 
L 463.597959 298.487124 
L 464.138776 298.331922 
L 464.679592 297.652712 
L 465.220408 297.405355 
L 465.761224 298.336648 
L 466.302041 298.189728 
L 466.842857 298.171107 
L 467.383673 297.799802 
L 467.92449 297.142293 
L 468.465306 296.972326 
L 469.006122 297.608501 
L 469.546939 297.855301 
L 470.087755 297.83154 
L 470.628571 297.545777 
L 471.169388 297.499721 
L 471.710204 297.785957 
L 472.25102 297.70677 
L 472.791837 298.257442 
L 473.332653 298.423396 
L 473.873469 298.457046 
L 474.414286 298.992033 
L 474.955102 298.331944 
L 475.495918 298.14412 
L 476.036735 298.494485 
L 476.577551 299.010396 
L 477.118367 298.966704 
L 477.659184 299.063759 
L 478.2 300.201646 
L 478.740816 300.798754 
L 479.281633 301.016414 
L 479.822449 300.67149 
L 480.363265 300.991999 
L 480.904082 301.686546 
L 481.444898 301.445502 
L 481.985714 301.655478 
L 483.067347 301.239181 
L 483.608163 301.471145 
L 484.14898 300.639534 
L 484.689796 301.329943 
L 485.230612 300.714896 
L 485.771429 301.290958 
L 486.312245 301.316008 
L 487.393878 299.996687 
L 487.934694 300.291484 
L 488.47551 299.759897 
L 489.557143 297.551157 
L 490.097959 297.184834 
L 491.179592 297.452784 
L 491.720408 297.268019 
L 492.261224 298.122964 
L 492.802041 298.245026 
L 493.342857 298.137957 
L 493.883673 298.317817 
L 494.42449 298.114411 
L 494.965306 298.749897 
L 495.506122 298.242116 
L 496.046939 298.415671 
L 496.587755 298.368975 
L 497.128571 298.736666 
L 497.669388 299.700615 
L 498.210204 300.001605 
L 498.75102 299.760146 
L 499.291837 299.832353 
L 500.914286 302.359012 
L 501.455102 302.535236 
L 502.536735 302.154519 
L 503.077551 301.761751 
L 503.618367 301.797446 
L 504.7 300.82179 
L 505.781633 300.304119 
L 506.863265 300.12752 
L 507.404082 299.661372 
L 507.944898 299.624439 
L 509.026531 298.15454 
L 509.567347 297.922377 
L 510.108163 298.208268 
L 510.64898 298.259035 
L 511.189796 298.432946 
L 511.730612 298.387585 
L 512.271429 299.016698 
L 512.812245 299.014149 
L 513.353061 298.440473 
L 513.893878 298.458378 
L 514.434694 298.042691 
L 514.97551 299.091993 
L 515.516327 299.646247 
L 516.057143 299.466511 
L 516.597959 299.855444 
L 518.220408 301.408051 
L 518.761224 300.873339 
L 519.302041 301.39278 
L 520.383673 302.931967 
L 520.92449 303.411234 
L 521.465306 302.88273 
L 522.006122 302.1116 
L 522.546939 302.450597 
L 523.087755 301.57498 
L 523.628571 301.135647 
L 524.710204 302.042944 
L 525.25102 302.221487 
L 525.791837 301.234604 
L 526.332653 301.358338 
L 526.873469 301.808432 
L 527.955102 301.246186 
L 528.495918 301.28595 
L 530.118367 302.588898 
L 531.2 302.076734 
L 531.740816 301.270317 
L 532.822449 302.047522 
L 533.363265 301.526714 
L 534.444898 301.763182 
L 534.985714 301.913802 
L 535.526531 301.499028 
L 536.067347 301.49572 
L 536.608163 301.690248 
L 537.14898 302.090138 
L 537.689796 301.823464 
L 538.230612 302.39028 
L 538.771429 302.523464 
L 539.312245 302.486086 
L 539.853061 301.899619 
L 540.393878 302.082912 
L 540.934694 301.493796 
L 541.47551 301.952018 
L 542.016327 301.632277 
L 542.557143 302.429488 
L 543.638776 301.895303 
L 544.179592 302.027936 
L 544.720408 301.731695 
L 545.802041 302.394714 
L 546.342857 302.576624 
L 546.883673 302.469353 
L 547.42449 303.182486 
L 547.965306 303.085232 
L 548.506122 302.85975 
L 549.046939 302.854111 
L 549.587755 302.730744 
L 550.128571 302.785205 
L 551.210204 302.456273 
L 551.75102 302.870688 
L 552.291837 301.556589 
L 552.832653 301.985079 
L 553.373469 301.829678 
L 553.914286 301.793897 
L 554.455102 302.105004 
L 554.995918 302.116969 
L 555.536735 302.26254 
L 556.077551 301.869891 
L 556.618367 301.265271 
L 557.159184 301.514714 
L 557.7 301.91456 
L 558.781633 301.343865 
L 559.322449 302.051033 
L 559.863265 301.450066 
L 560.404082 301.385022 
L 561.485714 302.071406 
L 562.026531 302.047672 
L 562.567347 301.611551 
L 563.108163 302.902318 
L 563.64898 302.346016 
L 564.189796 302.182118 
L 565.271429 302.520682 
L 565.812245 302.232286 
L 566.353061 302.486643 
L 566.893878 303.08873 
L 568.516327 303.245386 
L 569.057143 302.97498 
L 569.597959 302.993207 
L 570.138776 302.72777 
L 570.679592 303.237835 
L 571.761224 302.698705 
L 572.302041 302.695917 
L 572.842857 302.575111 
L 573.383673 302.819108 
L 573.92449 301.364859 
L 574.465306 300.881723 
L 575.006122 301.005752 
L 575.546939 301.403924 
L 576.087755 301.11938 
L 576.628571 301.460469 
L 577.710204 301.537102 
L 578.25102 301.251678 
L 579.332653 300.502035 
L 579.873469 300.49584 
L 580.955102 299.616011 
L 582.036735 299.391148 
L 582.577551 298.808914 
L 583.118367 298.548959 
L 583.659184 298.486576 
L 584.2 298.680981 
L 584.740816 299.603762 
L 585.281633 300.018124 
L 586.363265 300.257125 
L 587.444898 300.061392 
L 587.985714 300.104005 
L 588.526531 300.018014 
L 589.067347 300.22354 
L 589.608163 299.903857 
L 590.14898 299.961915 
L 590.689796 299.599213 
L 591.230612 299.433634 
L 591.771429 299.827245 
L 592.312245 299.530951 
L 592.853061 299.864791 
L 593.393878 300.004926 
L 593.934694 300.454923 
L 594.47551 301.240658 
L 595.557143 301.688405 
L 596.097959 302.123814 
L 597.179592 301.102882 
L 598.261224 301.6646 
L 598.802041 301.507784 
L 599.342857 300.970975 
L 599.883673 301.001833 
L 600.42449 301.781815 
L 600.965306 302.045438 
L 601.506122 303.101522 
L 602.046939 303.685825 
L 602.587755 303.602723 
L 603.128571 303.024327 
L 604.210204 303.057366 
L 604.75102 302.493041 
L 605.832653 300.922556 
L 606.914286 300.198415 
L 607.455102 300.303549 
L 607.995918 300.061265 
L 608.536735 300.022245 
L 609.077551 298.691253 
L 609.618367 298.375763 
L 610.159184 298.729514 
L 610.7 298.455777 
L 610.7 298.455777 
" clip-path="url(#pc84194e5dd)" style="fill: none; stroke: #ff7f0e; stroke-width: 1.5; stroke-linecap: square"/>
   </g>
   <g id="patch_3">
    <path d="M 54.2 318.04 
L 54.2 25.44 
" style="fill: none; stroke: #000000; stroke-width: 0.8; stroke-linejoin: miter; stroke-linecap: square"/>
   </g>
   <g id="patch_4">
    <path d="M 637.2 318.04 
L 637.2 25.44 
" style="fill: none; stroke: #000000; stroke-width: 0.8; stroke-linejoin: miter; stroke-linecap: square"/>
   </g>
   <g id="patch_5">
    <path d="M 54.2 318.04 
L 637.2 318.04 
" style="fill: none; stroke: #000000; stroke-width: 0.8; stroke-linejoin: miter; stroke-linecap: square"/>
   </g>
   <g id="patch_6">
    <path d="M 54.2 25.44 
L 637.2 25.44 
" style="fill: none; stroke: #000000; stroke-width: 0.8; stroke-linejoin: miter; stroke-linecap: square"/>
   </g>
   <g id="text_14">
    <!-- Distribution matching loss (moving average 20) -->
    <g transform="translate(202.09375 19.44) scale(0.12 -0.12)">
     <defs>
      <path id="DejaVuSans-44" d="M 1259 4147 
L 1259 519 
L 2022 519 
Q 2988 519 3436 956 
Q 3884 1394 3884 2338 
Q 3884 3275 3436 3711 
Q 2988 4147 2022 4147 
L 1259 4147 
z
M 628 4666 
L 1925 4666 
Q 3281 4666 3915 4102 
Q 4550 3538 4550 2338 
Q 4550 1131 3912 565 
Q 3275 0 1925 0 
L 628 0 
L 628 4666 
z
" transform="scale(0.015625)"/>
      <path id="DejaVuSans-69" d="M 603 3500 
L 1178 3500 
L 1178 0 
L 603 0 
L 603 3500 
z
M 603 4863 
L 1178 4863 
L 1178 4134 
L 603 4134 
L 603 4863 
z
" transform="scale(0.015625)"/>
      <path id="DejaVuSans-72" d="M 2631 2963 
Q 2534 3019 2420 3045 
Q 2306 3072 2169 3072 
Q 1681 3072 1420 2755 
Q 1159 2438 1159 1844 
L 1159 0 
L 581 0 
L 581 3500 
L 1159 3500 
L 1159 2956 
Q 1341 3275 1631 3429 
Q 1922 3584 2338 3584 
Q 2397 3584 2469 3576 
Q 2541 3569 2628 3553 
L 2631 2963 
z
" transform="scale(0.015625)"/>
      <path id="DejaVuSans-62" d="M 3116 1747 
Q 3116 2381 2855 2742 
Q 2594 3103 2138 3103 
Q 1681 3103 1420 2742 
Q 1159 2381 1159 1747 
Q 1159 1113 1420 752 
Q 1681 391 2138 391 
Q 2594 391 2855 752 
Q 3116 1113 3116 1747 
z
M 1159 2969 
Q 1341 3281 1617 3432 
Q 1894 3584 2278 3584 
Q 2916 3584 3314 3078 
Q 3713 2572 3713 1747 
Q 3713 922 3314 415 
Q 2916 -91 2278 -91 
Q 1894 -91 1617 61 
Q 1341 213 1159 525 
L 1159 0 
L 581 0 
L 581 4863 
L 1159 4863 
L 1159 2969 
z
" transform="scale(0.015625)"/>
      <path id="DejaVuSans-75" d="M 544 1381 
L 544 3500 
L 1119 3500 
L 1119 1403 
Q 1119 906 1312 657 
Q 1506 409 1894 409 
Q 2359 409 2629 706 
Q 2900 1003 2900 1516 
L 2900 3500 
L 3475 3500 
L 3475 0 
L 2900 0 
L 2900 538 
Q 2691 219 2414 64 
Q 2138 -91 1772 -91 
Q 1169 -91 856 284 
Q 544 659 544 1381 
z
M 1991 3584 
L 1991 3584 
z
" transform="scale(0.015625)"/>
      <path id="DejaVuSans-6e" d="M 3513 2113 
L 3513 0 
L 2938 0 
L 2938 2094 
Q 2938 2591 2744 2837 
Q 2550 3084 2163 3084 
Q 1697 3084 1428 2787 
Q 1159 2491 1159 1978 
L 1159 0 
L 581 0 
L 581 3500 
L 1159 3500 
L 1159 2956 
Q 1366 3272 1645 3428 
Q 1925 3584 2291 3584 
Q 2894 3584 3203 3211 
Q 3513 2838 3513 2113 
z
" transform="scale(0.015625)"/>
      <path id="DejaVuSans-20" transform="scale(0.015625)"/>
      <path id="DejaVuSans-6d" d="M 3328 2828 
Q 3544 3216 3844 3400 
Q 4144 3584 4550 3584 
Q 5097 3584 5394 3201 
Q 5691 2819 5691 2113 
L 5691 0 
L 5113 0 
L 5113 2094 
Q 5113 2597 4934 2840 
Q 4756 3084 4391 3084 
Q 3944 3084 3684 2787 
Q 3425 2491 3425 1978 
L 3425 0 
L 2847 0 
L 2847 2094 
Q 2847 2600 2669 2842 
Q 2491 3084 2119 3084 
Q 1678 3084 1418 2786 
Q 1159 2488 1159 1978 
L 1159 0 
L 581 0 
L 581 3500 
L 1159 3500 
L 1159 2956 
Q 1356 3278 1631 3431 
Q 1906 3584 2284 3584 
Q 2666 3584 2933 3390 
Q 3200 3197 3328 2828 
z
" transform="scale(0.015625)"/>
      <path id="DejaVuSans-61" d="M 2194 1759 
Q 1497 1759 1228 1600 
Q 959 1441 959 1056 
Q 959 750 1161 570 
Q 1363 391 1709 391 
Q 2188 391 2477 730 
Q 2766 1069 2766 1631 
L 2766 1759 
L 2194 1759 
z
M 3341 1997 
L 3341 0 
L 2766 0 
L 2766 531 
Q 2569 213 2275 61 
Q 1981 -91 1556 -91 
Q 1019 -91 701 211 
Q 384 513 384 1019 
Q 384 1609 779 1909 
Q 1175 2209 1959 2209 
L 2766 2209 
L 2766 2266 
Q 2766 2663 2505 2880 
Q 2244 3097 1772 3097 
Q 1472 3097 1187 3025 
Q 903 2953 641 2809 
L 641 3341 
Q 956 3463 1253 3523 
Q 1550 3584 1831 3584 
Q 2591 3584 2966 3190 
Q 3341 2797 3341 1997 
z
" transform="scale(0.015625)"/>
      <path id="DejaVuSans-63" d="M 3122 3366 
L 3122 2828 
Q 2878 2963 2633 3030 
Q 2388 3097 2138 3097 
Q 1578 3097 1268 2742 
Q 959 2388 959 1747 
Q 959 1106 1268 751 
Q 1578 397 2138 397 
Q 2388 397 2633 464 
Q 2878 531 3122 666 
L 3122 134 
Q 2881 22 2623 -34 
Q 2366 -91 2075 -91 
Q 1284 -91 818 406 
Q 353 903 353 1747 
Q 353 2603 823 3093 
Q 1294 3584 2113 3584 
Q 2378 3584 2631 3529 
Q 2884 3475 3122 3366 
z
" transform="scale(0.015625)"/>
      <path id="DejaVuSans-68" d="M 3513 2113 
L 3513 0 
L 2938 0 
L 2938 2094 
Q 2938 2591 2744 2837 
Q 2550 3084 2163 3084 
Q 1697 3084 1428 2787 
Q 1159 2491 1159 1978 
L 1159 0 
L 581 0 
L 581 4863 
L 1159 4863 
L 1159 2956 
Q 1366 3272 1645 3428 
Q 1925 3584 2291 3584 
Q 2894 3584 3203 3211 
Q 3513 2838 3513 2113 
z
" transform="scale(0.015625)"/>
      <path id="DejaVuSans-67" d="M 2906 1791 
Q 2906 2416 2648 2759 
Q 2391 3103 1925 3103 
Q 1463 3103 1205 2759 
Q 947 2416 947 1791 
Q 947 1169 1205 825 
Q 1463 481 1925 481 
Q 2391 481 2648 825 
Q 2906 1169 2906 1791 
z
M 3481 434 
Q 3481 -459 3084 -895 
Q 2688 -1331 1869 -1331 
Q 1566 -1331 1297 -1286 
Q 1028 -1241 775 -1147 
L 775 -588 
Q 1028 -725 1275 -790 
Q 1522 -856 1778 -856 
Q 2344 -856 2625 -561 
Q 2906 -266 2906 331 
L 2906 616 
Q 2728 306 2450 153 
Q 2172 0 1784 0 
Q 1141 0 747 490 
Q 353 981 353 1791 
Q 353 2603 747 3093 
Q 1141 3584 1784 3584 
Q 2172 3584 2450 3431 
Q 2728 3278 2906 2969 
L 2906 3500 
L 3481 3500 
L 3481 434 
z
" transform="scale(0.015625)"/>
      <path id="DejaVuSans-28" d="M 1984 4856 
Q 1566 4138 1362 3434 
Q 1159 2731 1159 2009 
Q 1159 1288 1364 580 
Q 1569 -128 1984 -844 
L 1484 -844 
Q 1016 -109 783 600 
Q 550 1309 550 2009 
Q 550 2706 781 3412 
Q 1013 4119 1484 4856 
L 1984 4856 
z
" transform="scale(0.015625)"/>
      <path id="DejaVuSans-76" d="M 191 3500 
L 800 3500 
L 1894 563 
L 2988 3500 
L 3597 3500 
L 2284 0 
L 1503 0 
L 191 3500 
z
" transform="scale(0.015625)"/>
      <path id="DejaVuSans-29" d="M 513 4856 
L 1013 4856 
Q 1481 4119 1714 3412 
Q 1947 2706 1947 2009 
Q 1947 1309 1714 600 
Q 1481 -109 1013 -844 
L 513 -844 
Q 928 -128 1133 580 
Q 1338 1288 1338 2009 
Q 1338 2731 1133 3434 
Q 928 4138 513 4856 
z
" transform="scale(0.015625)"/>
     </defs>
     <use xlink:href="#DejaVuSans-44"/>
     <use xlink:href="#DejaVuSans-69" transform="translate(77.001953 0)"/>
     <use xlink:href="#DejaVuSans-73" transform="translate(104.785156 0)"/>
     <use xlink:href="#DejaVuSans-74" transform="translate(156.884766 0)"/>
     <use xlink:href="#DejaVuSans-72" transform="translate(196.09375 0)"/>
     <use xlink:href="#DejaVuSans-69" transform="translate(237.207031 0)"/>
     <use xlink:href="#DejaVuSans-62" transform="translate(264.990234 0)"/>
     <use xlink:href="#DejaVuSans-75" transform="translate(328.466797 0)"/>
     <use xlink:href="#DejaVuSans-74" transform="translate(391.845703 0)"/>
     <use xlink:href="#DejaVuSans-69" transform="translate(431.054688 0)"/>
     <use xlink:href="#DejaVuSans-6f" transform="translate(458.837891 0)"/>
     <use xlink:href="#DejaVuSans-6e" transform="translate(520.019531 0)"/>
     <use xlink:href="#DejaVuSans-20" transform="translate(583.398438 0)"/>
     <use xlink:href="#DejaVuSans-6d" transform="translate(615.185547 0)"/>
     <use xlink:href="#DejaVuSans-61" transform="translate(712.597656 0)"/>
     <use xlink:href="#DejaVuSans-74" transform="translate(773.876953 0)"/>
     <use xlink:href="#DejaVuSans-63" transform="translate(813.085938 0)"/>
     <use xlink:href="#DejaVuSans-68" transform="translate(868.066406 0)"/>
     <use xlink:href="#DejaVuSans-69" transform="translate(931.445312 0)"/>
     <use xlink:href="#DejaVuSans-6e" transform="translate(959.228516 0)"/>
     <use xlink:href="#DejaVuSans-67" transform="translate(1022.607422 0)"/>
     <use xlink:href="#DejaVuSans-20" transform="translate(1086.083984 0)"/>
     <use xlink:href="#DejaVuSans-6c" transform="translate(1117.871094 0)"/>
     <use xlink:href="#DejaVuSans-6f" transform="translate(1145.654297 0)"/>
     <use xlink:href="#DejaVuSans-73" transform="translate(1206.835938 0)"/>
     <use xlink:href="#DejaVuSans-73" transform="translate(1258.935547 0)"/>
     <use xlink:href="#DejaVuSans-20" transform="translate(1311.035156 0)"/>
     <use xlink:href="#DejaVuSans-28" transform="translate(1342.822266 0)"/>
     <use xlink:href="#DejaVuSans-6d" transform="translate(1381.835938 0)"/>
     <use xlink:href="#DejaVuSans-6f" transform="translate(1479.248047 0)"/>
     <use xlink:href="#DejaVuSans-76" transform="translate(1540.429688 0)"/>
     <use xlink:href="#DejaVuSans-69" transform="translate(1599.609375 0)"/>
     <use xlink:href="#DejaVuSans-6e" transform="translate(1627.392578 0)"/>
     <use xlink:href="#DejaVuSans-67" transform="translate(1690.771484 0)"/>
     <use xlink:href="#DejaVuSans-20" transform="translate(1754.248047 0)"/>
     <use xlink:href="#DejaVuSans-61" transform="translate(1786.035156 0)"/>
     <use xlink:href="#DejaVuSans-76" transform="translate(1847.314453 0)"/>
     <use xlink:href="#DejaVuSans-65" transform="translate(1906.494141 0)"/>
     <use xlink:href="#DejaVuSans-72" transform="translate(1968.017578 0)"/>
     <use xlink:href="#DejaVuSans-61" transform="translate(2009.130859 0)"/>
     <use xlink:href="#DejaVuSans-67" transform="translate(2070.410156 0)"/>
     <use xlink:href="#DejaVuSans-65" transform="translate(2133.886719 0)"/>
     <use xlink:href="#DejaVuSans-20" transform="translate(2195.410156 0)"/>
     <use xlink:href="#DejaVuSans-32" transform="translate(2227.197266 0)"/>
     <use xlink:href="#DejaVuSans-30" transform="translate(2290.820312 0)"/>
     <use xlink:href="#DejaVuSans-29" transform="translate(2354.443359 0)"/>
    </g>
   </g>
   <g id="legend_1">
    <g id="patch_7">
     <path d="M 560.003125 62.79625 
L 630.2 62.79625 
Q 632.2 62.79625 632.2 60.79625 
L 632.2 32.44 
Q 632.2 30.44 630.2 30.44 
L 560.003125 30.44 
Q 558.003125 30.44 558.003125 32.44 
L 558.003125 60.79625 
Q 558.003125 62.79625 560.003125 62.79625 
z
" style="fill: #ffffff; opacity: 0.8; stroke: #cccccc; stroke-linejoin: miter"/>
    </g>
    <g id="line2d_25">
     <path d="M 562.003125 38.538437 
L 572.003125 38.538437 
L 582.003125 38.538437 
" style="fill: none; stroke: #1f77b4; stroke-width: 1.5; stroke-linecap: square"/>
    </g>
    <g id="text_15">
     <!-- PyTorch -->
     <g transform="translate(590.003125 42.038437) scale(0.1 -0.1)">
      <defs>
       <path id="DejaVuSans-50" d="M 1259 4147 
L 1259 2394 
L 2053 2394 
Q 2494 2394 2734 2622 
Q 2975 2850 2975 3272 
Q 2975 3691 2734 3919 
Q 2494 4147 2053 4147 
L 1259 4147 
z
M 628 4666 
L 2053 4666 
Q 2838 4666 3239 4311 
Q 3641 3956 3641 3272 
Q 3641 2581 3239 2228 
Q 2838 1875 2053 1875 
L 1259 1875 
L 1259 0 
L 628 0 
L 628 4666 
z
" transform="scale(0.015625)"/>
       <path id="DejaVuSans-79" d="M 2059 -325 
Q 1816 -950 1584 -1140 
Q 1353 -1331 966 -1331 
L 506 -1331 
L 506 -850 
L 844 -850 
Q 1081 -850 1212 -737 
Q 1344 -625 1503 -206 
L 1606 56 
L 191 3500 
L 800 3500 
L 1894 763 
L 2988 3500 
L 3597 3500 
L 2059 -325 
z
" transform="scale(0.015625)"/>
       <path id="DejaVuSans-54" d="M -19 4666 
L 3928 4666 
L 3928 4134 
L 2272 4134 
L 2272 0 
L 1638 0 
L 1638 4134 
L -19 4134 
L -19 4666 
z
" transform="scale(0.015625)"/>
      </defs>
      <use xlink:href="#DejaVuSans-50"/>
      <use xlink:href="#DejaVuSans-79" transform="translate(60.302734 0)"/>
      <use xlink:href="#DejaVuSans-54" transform="translate(119.482422 0)"/>
      <use xlink:href="#DejaVuSans-6f" transform="translate(163.566406 0)"/>
      <use xlink:href="#DejaVuSans-72" transform="translate(224.748047 0)"/>
      <use xlink:href="#DejaVuSans-63" transform="translate(263.611328 0)"/>
      <use xlink:href="#DejaVuSans-68" transform="translate(318.591797 0)"/>
     </g>
    </g>
    <g id="line2d_26">
     <path d="M 562.003125 53.216563 
L 572.003125 53.216563 
L 582.003125 53.216563 
" style="fill: none; stroke: #ff7f0e; stroke-width: 1.5; stroke-linecap: square"/>
    </g>
    <g id="text_16">
     <!-- Jittor -->
     <g transform="translate(590.003125 56.716563) scale(0.1 -0.1)">
      <defs>
       <path id="DejaVuSans-4a" d="M 628 4666 
L 1259 4666 
L 1259 325 
Q 1259 -519 939 -900 
Q 619 -1281 -91 -1281 
L -331 -1281 
L -331 -750 
L -134 -750 
Q 284 -750 456 -515 
Q 628 -281 628 325 
L 628 4666 
z
" transform="scale(0.015625)"/>
      </defs>
      <use xlink:href="#DejaVuSans-4a"/>
      <use xlink:href="#DejaVuSans-69" transform="translate(29.492188 0)"/>
      <use xlink:href="#DejaVuSans-74" transform="translate(57.275391 0)"/>
      <use xlink:href="#DejaVuSans-74" transform="translate(96.484375 0)"/>
      <use xlink:href="#DejaVuSans-6f" transform="translate(135.693359 0)"/>
      <use xlink:href="#DejaVuSans-72" transform="translate(196.875 0)"/>
     </g>
    </g>
   </g>
  </g>
 </g>
 <defs>
  <clipPath id="pc84194e5dd">
   <rect x="54.2" y="25.44" width="583" height="292.6"/>
  </clipPath>
 </defs>
</svg>
