<?xml version="1.0" encoding="utf-8" standalone="no"?>
<!DOCTYPE svg PUBLIC "-//W3C//DTD SVG 1.1//EN"
  "http://www.w3.org/Graphics/SVG/1.1/DTD/svg11.dtd">
<svg xmlns:xlink="http://www.w3.org/1999/xlink" width="648pt" height="360pt" viewBox="0 0 648 360" xmlns="http://www.w3.org/2000/svg" version="1.1">
 <metadata>
  <rdf:RDF xmlns:dc="http://purl.org/dc/elements/1.1/" xmlns:cc="http://creativecommons.org/ns#" xmlns:rdf="http://www.w3.org/1999/02/22-rdf-syntax-ns#">
   <cc:Work>
    <dc:type rdf:resource="http://purl.org/dc/dcmitype/StillImage"/>
    <dc:date>2026-07-05T02:29:09.760845</dc:date>
    <dc:format>image/svg+xml</dc:format>
    <dc:creator>
     <cc:Agent>
      <dc:title>Matplotlib v3.10.0, https://matplotlib.org/</dc:title>
     </cc:Agent>
    </dc:creator>
   </cc:Work>
  </rdf:RDF>
 </metadata>
 <defs>
  <style type="text/css">*{stroke-linejoin: round; stroke-linecap: butt}</style>
 </defs>
 <g id="figure_1">
  <g id="patch_1">
   <path d="M 0 360 
L 648 360 
L 648 0 
L 0 0 
z
" style="fill: #ffffff"/>
  </g>
  <g id="axes_1">
   <g id="patch_2">
    <path d="M 54.2 318.04 
L 637.2 318.04 
L 637.2 25.44 
L 54.2 25.44 
z
" style="fill: #ffffff"/>
   </g>
   <g id="matplotlib.axis_1">
    <g id="xtick_1">
     <g id="line2d_1">
      <path d="M 70.42449 318.04 
L 70.42449 25.44 
" clip-path="url(#p00162076db)" style="fill: none; stroke: #b0b0b0; stroke-opacity: 0.3; stroke-width: 0.8; stroke-linecap: square"/>
     </g>
     <g id="line2d_2">
      <defs>
       <path id="ma38e919973" d="M 0 0 
L 0 3.5 
" style="stroke: #000000; stroke-width: 0.8"/>
      </defs>
      <g>
       <use xlink:href="#ma38e919973" x="70.42449" y="318.04" style="stroke: #000000; stroke-width: 0.8"/>
      </g>
     </g>
     <g id="text_1">
      <!-- 0 -->
      <g transform="translate(67.24324 332.638438) scale(0.1 -0.1)">
       <defs>
        <path id="DejaVuSans-30" d="M 2034 4250 
Q 1547 4250 1301 3770 
Q 1056 3291 1056 2328 
Q 1056 1369 1301 889 
Q 1547 409 2034 409 
Q 2525 409 2770 889 
Q 3016 1369 3016 2328 
Q 3016 3291 2770 3770 
Q 2525 4250 2034 4250 
z
M 2034 4750 
Q 2819 4750 3233 4129 
Q 3647 3509 3647 2328 
Q 3647 1150 3233 529 
Q 2819 -91 2034 -91 
Q 1250 -91 836 529 
Q 422 1150 422 2328 
Q 422 3509 836 4129 
Q 1250 4750 2034 4750 
z
" transform="scale(0.015625)"/>
       </defs>
       <use xlink:href="#DejaVuSans-30"/>
      </g>
     </g>
    </g>
    <g id="xtick_2">
     <g id="line2d_3">
      <path d="M 178.587755 318.04 
L 178.587755 25.44 
" clip-path="url(#p00162076db)" style="fill: none; stroke: #b0b0b0; stroke-opacity: 0.3; stroke-width: 0.8; stroke-linecap: square"/>
     </g>
     <g id="line2d_4">
      <g>
       <use xlink:href="#ma38e919973" x="178.587755" y="318.04" style="stroke: #000000; stroke-width: 0.8"/>
      </g>
     </g>
     <g id="text_2">
      <!-- 1000 -->
      <g transform="translate(165.862755 332.638438) scale(0.1 -0.1)">
       <defs>
        <path id="DejaVuSans-31" d="M 794 531 
L 1825 531 
L 1825 4091 
L 703 3866 
L 703 4441 
L 1819 4666 
L 2450 4666 
L 2450 531 
L 3481 531 
L 3481 0 
L 794 0 
L 794 531 
z
" transform="scale(0.015625)"/>
       </defs>
       <use xlink:href="#DejaVuSans-31"/>
       <use xlink:href="#DejaVuSans-30" transform="translate(63.623047 0)"/>
       <use xlink:href="#DejaVuSans-30" transform="translate(127.246094 0)"/>
       <use xlink:href="#DejaVuSans-30" transform="translate(190.869141 0)"/>
      </g>
     </g>
    </g>
    <g id="xtick_3">
     <g id="line2d_5">
      <path d="M 286.75102 318.04 
L 286.75102 25.44 
" clip-path="url(#p00162076db)" style="fill: none; stroke: #b0b0b0; stroke-opacity: 0.3; stroke-width: 0.8; stroke-linecap: square"/>
     </g>
     <g id="line2d_6">
      <g>
       <use xlink:href="#ma38e919973" x="286.75102" y="318.04" style="stroke: #000000; stroke-width: 0.8"/>
      </g>
     </g>
     <g id="text_3">
      <!-- 2000 -->
      <g transform="translate(274.02602 332.638438) scale(0.1 -0.1)">
       <defs>
        <path id="DejaVuSans-32" d="M 1228 531 
L 3431 531 
L 3431 0 
L 469 0 
L 469 531 
Q 828 903 1448 1529 
Q 2069 2156 2228 2338 
Q 2531 2678 2651 2914 
Q 2772 3150 2772 3378 
Q 2772 3750 2511 3984 
Q 2250 4219 1831 4219 
Q 1534 4219 1204 4116 
Q 875 4013 500 3803 
L 500 4441 
Q 881 4594 1212 4672 
Q 1544 4750 1819 4750 
Q 2544 4750 2975 4387 
Q 3406 4025 3406 3419 
Q 3406 3131 3298 2873 
Q 3191 2616 2906 2266 
Q 2828 2175 2409 1742 
Q 1991 1309 1228 531 
z
" transform="scale(0.015625)"/>
       </defs>
       <use xlink:href="#DejaVuSans-32"/>
       <use xlink:href="#DejaVuSans-30" transform="translate(63.623047 0)"/>
       <use xlink:href="#DejaVuSans-30" transform="translate(127.246094 0)"/>
       <use xlink:href="#DejaVuSans-30" transform="translate(190.869141 0)"/>
      </g>
     </g>
    </g>
    <g id="xtick_4">
     <g id="line2d_7">
      <path d="M 394.914286 318.04 
L 394.914286 25.44 
" clip-path="url(#p00162076db)" style="fill: none; stroke: #b0b0b0; stroke-opacity: 0.3; stroke-width: 0.8; stroke-linecap: square"/>
     </g>
     <g id="line2d_8">
      <g>
       <use xlink:href="#ma38e919973" x="394.914286" y="318.04" style="stroke: #000000; stroke-width: 0.8"/>
      </g>
     </g>
     <g id="text_4">
      <!-- 3000 -->
      <g transform="translate(382.189286 332.638438) scale(0.1 -0.1)">
       <defs>
        <path id="DejaVuSans-33" d="M 2597 2516 
Q 3050 2419 3304 2112 
Q 3559 1806 3559 1356 
Q 3559 666 3084 287 
Q 2609 -91 1734 -91 
Q 1441 -91 1130 -33 
Q 819 25 488 141 
L 488 750 
Q 750 597 1062 519 
Q 1375 441 1716 441 
Q 2309 441 2620 675 
Q 2931 909 2931 1356 
Q 2931 1769 2642 2001 
Q 2353 2234 1838 2234 
L 1294 2234 
L 1294 2753 
L 1863 2753 
Q 2328 2753 2575 2939 
Q 2822 3125 2822 3475 
Q 2822 3834 2567 4026 
Q 2313 4219 1838 4219 
Q 1578 4219 1281 4162 
Q 984 4106 628 3988 
L 628 4550 
Q 988 4650 1302 4700 
Q 1616 4750 1894 4750 
Q 2613 4750 3031 4423 
Q 3450 4097 3450 3541 
Q 3450 3153 3228 2886 
Q 3006 2619 2597 2516 
z
" transform="scale(0.015625)"/>
       </defs>
       <use xlink:href="#DejaVuSans-33"/>
       <use xlink:href="#DejaVuSans-30" transform="translate(63.623047 0)"/>
       <use xlink:href="#DejaVuSans-30" transform="translate(127.246094 0)"/>
       <use xlink:href="#DejaVuSans-30" transform="translate(190.869141 0)"/>
      </g>
     </g>
    </g>
    <g id="xtick_5">
     <g id="line2d_9">
      <path d="M 503.077551 318.04 
L 503.077551 25.44 
" clip-path="url(#p00162076db)" style="fill: none; stroke: #b0b0b0; stroke-opacity: 0.3; stroke-width: 0.8; stroke-linecap: square"/>
     </g>
     <g id="line2d_10">
      <g>
       <use xlink:href="#ma38e919973" x="503.077551" y="318.04" style="stroke: #000000; stroke-width: 0.8"/>
      </g>
     </g>
     <g id="text_5">
      <!-- 4000 -->
      <g transform="translate(490.352551 332.638438) scale(0.1 -0.1)">
       <defs>
        <path id="DejaVuSans-34" d="M 2419 4116 
L 825 1625 
L 2419 1625 
L 2419 4116 
z
M 2253 4666 
L 3047 4666 
L 3047 1625 
L 3713 1625 
L 3713 1100 
L 3047 1100 
L 3047 0 
L 2419 0 
L 2419 1100 
L 313 1100 
L 313 1709 
L 2253 4666 
z
" transform="scale(0.015625)"/>
       </defs>
       <use xlink:href="#DejaVuSans-34"/>
       <use xlink:href="#DejaVuSans-30" transform="translate(63.623047 0)"/>
       <use xlink:href="#DejaVuSans-30" transform="translate(127.246094 0)"/>
       <use xlink:href="#DejaVuSans-30" transform="translate(190.869141 0)"/>
      </g>
     </g>
    </g>
    <g id="xtick_6">
     <g id="line2d_11">
      <path d="M 611.240816 318.04 
L 611.240816 25.44 
" clip-path="url(#p00162076db)" style="fill: none; stroke: #b0b0b0; stroke-opacity: 0.3; stroke-width: 0.8; stroke-linecap: square"/>
     </g>
     <g id="line2d_12">
      <g>
       <use xlink:href="#ma38e919973" x="611.240816" y="318.04" style="stroke: #000000; stroke-width: 0.8"/>
      </g>
     </g>
     <g id="text_6">
      <!-- 5000 -->
      <g transform="translate(598.515816 332.638438) scale(0.1 -0.1)">
       <defs>
        <path id="DejaVuSans-35" d="M 691 4666 
L 3169 4666 
L 3169 4134 
L 1269 4134 
L 1269 2991 
Q 1406 3038 1543 3061 
Q 1681 3084 1819 3084 
Q 2600 3084 3056 2656 
Q 3513 2228 3513 1497 
Q 3513 744 3044 326 
Q 2575 -91 1722 -91 
Q 1428 -91 1123 -41 
Q 819 9 494 109 
L 494 744 
Q 775 591 1075 516 
Q 1375 441 1709 441 
Q 2250 441 2565 725 
Q 2881 1009 2881 1497 
Q 2881 1984 2565 2268 
Q 2250 2553 1709 2553 
Q 1456 2553 1204 2497 
Q 953 2441 691 2322 
L 691 4666 
z
" transform="scale(0.015625)"/>
       </defs>
       <use xlink:href="#DejaVuSans-35"/>
       <use xlink:href="#DejaVuSans-30" transform="translate(63.623047 0)"/>
       <use xlink:href="#DejaVuSans-30" transform="translate(127.246094 0)"/>
       <use xlink:href="#DejaVuSans-30" transform="translate(190.869141 0)"/>
      </g>
     </g>
    </g>
    <g id="text_7">
     <!-- step -->
     <g transform="translate(334.884375 346.316563) scale(0.1 -0.1)">
      <defs>
       <path id="DejaVuSans-73" d="M 2834 3397 
L 2834 2853 
Q 2591 2978 2328 3040 
Q 2066 3103 1784 3103 
Q 1356 3103 1142 2972 
Q 928 2841 928 2578 
Q 928 2378 1081 2264 
Q 1234 2150 1697 2047 
L 1894 2003 
Q 2506 1872 2764 1633 
Q 3022 1394 3022 966 
Q 3022 478 2636 193 
Q 2250 -91 1575 -91 
Q 1294 -91 989 -36 
Q 684 19 347 128 
L 347 722 
Q 666 556 975 473 
Q 1284 391 1588 391 
Q 1994 391 2212 530 
Q 2431 669 2431 922 
Q 2431 1156 2273 1281 
Q 2116 1406 1581 1522 
L 1381 1569 
Q 847 1681 609 1914 
Q 372 2147 372 2553 
Q 372 3047 722 3315 
Q 1072 3584 1716 3584 
Q 2034 3584 2315 3537 
Q 2597 3491 2834 3397 
z
" transform="scale(0.015625)"/>
       <path id="DejaVuSans-74" d="M 1172 4494 
L 1172 3500 
L 2356 3500 
L 2356 3053 
L 1172 3053 
L 1172 1153 
Q 1172 725 1289 603 
Q 1406 481 1766 481 
L 2356 481 
L 2356 0 
L 1766 0 
Q 1100 0 847 248 
Q 594 497 594 1153 
L 594 3053 
L 172 3053 
L 172 3500 
L 594 3500 
L 594 4494 
L 1172 4494 
z
" transform="scale(0.015625)"/>
       <path id="DejaVuSans-65" d="M 3597 1894 
L 3597 1613 
L 953 1613 
Q 991 1019 1311 708 
Q 1631 397 2203 397 
Q 2534 397 2845 478 
Q 3156 559 3463 722 
L 3463 178 
Q 3153 47 2828 -22 
Q 2503 -91 2169 -91 
Q 1331 -91 842 396 
Q 353 884 353 1716 
Q 353 2575 817 3079 
Q 1281 3584 2069 3584 
Q 2775 3584 3186 3129 
Q 3597 2675 3597 1894 
z
M 3022 2063 
Q 3016 2534 2758 2815 
Q 2500 3097 2075 3097 
Q 1594 3097 1305 2825 
Q 1016 2553 972 2059 
L 3022 2063 
z
" transform="scale(0.015625)"/>
       <path id="DejaVuSans-70" d="M 1159 525 
L 1159 -1331 
L 581 -1331 
L 581 3500 
L 1159 3500 
L 1159 2969 
Q 1341 3281 1617 3432 
Q 1894 3584 2278 3584 
Q 2916 3584 3314 3078 
Q 3713 2572 3713 1747 
Q 3713 922 3314 415 
Q 2916 -91 2278 -91 
Q 1894 -91 1617 61 
Q 1341 213 1159 525 
z
M 3116 1747 
Q 3116 2381 2855 2742 
Q 2594 3103 2138 3103 
Q 1681 3103 1420 2742 
Q 1159 2381 1159 1747 
Q 1159 1113 1420 752 
Q 1681 391 2138 391 
Q 2594 391 2855 752 
Q 3116 1113 3116 1747 
z
" transform="scale(0.015625)"/>
      </defs>
      <use xlink:href="#DejaVuSans-73"/>
      <use xlink:href="#DejaVuSans-74" transform="translate(52.099609 0)"/>
      <use xlink:href="#DejaVuSans-65" transform="translate(91.308594 0)"/>
      <use xlink:href="#DejaVuSans-70" transform="translate(152.832031 0)"/>
     </g>
    </g>
   </g>
   <g id="matplotlib.axis_2">
    <g id="ytick_1">
     <g id="line2d_13">
      <path d="M 54.2 288.366976 
L 637.2 288.366976 
" clip-path="url(#p00162076db)" style="fill: none; stroke: #b0b0b0; stroke-opacity: 0.3; stroke-width: 0.8; stroke-linecap: square"/>
     </g>
     <g id="line2d_14">
      <defs>
       <path id="m95d1f9f307" d="M 0 0 
L -3.5 0 
" style="stroke: #000000; stroke-width: 0.8"/>
      </defs>
      <g>
       <use xlink:href="#m95d1f9f307" x="54.2" y="288.366976" style="stroke: #000000; stroke-width: 0.8"/>
      </g>
     </g>
     <g id="text_8">
      <!-- 0.05 -->
      <g transform="translate(24.934375 292.166195) scale(0.1 -0.1)">
       <defs>
        <path id="DejaVuSans-2e" d="M 684 794 
L 1344 794 
L 1344 0 
L 684 0 
L 684 794 
z
" transform="scale(0.015625)"/>
       </defs>
       <use xlink:href="#DejaVuSans-30"/>
       <use xlink:href="#DejaVuSans-2e" transform="translate(63.623047 0)"/>
       <use xlink:href="#DejaVuSans-30" transform="translate(95.410156 0)"/>
       <use xlink:href="#DejaVuSans-35" transform="translate(159.033203 0)"/>
      </g>
     </g>
    </g>
    <g id="ytick_2">
     <g id="line2d_15">
      <path d="M 54.2 230.895896 
L 637.2 230.895896 
" clip-path="url(#p00162076db)" style="fill: none; stroke: #b0b0b0; stroke-opacity: 0.3; stroke-width: 0.8; stroke-linecap: square"/>
     </g>
     <g id="line2d_16">
      <g>
       <use xlink:href="#m95d1f9f307" x="54.2" y="230.895896" style="stroke: #000000; stroke-width: 0.8"/>
      </g>
     </g>
     <g id="text_9">
      <!-- 0.10 -->
      <g transform="translate(24.934375 234.695114) scale(0.1 -0.1)">
       <use xlink:href="#DejaVuSans-30"/>
       <use xlink:href="#DejaVuSans-2e" transform="translate(63.623047 0)"/>
       <use xlink:href="#DejaVuSans-31" transform="translate(95.410156 0)"/>
       <use xlink:href="#DejaVuSans-30" transform="translate(159.033203 0)"/>
      </g>
     </g>
    </g>
    <g id="ytick_3">
     <g id="line2d_17">
      <path d="M 54.2 173.424815 
L 637.2 173.424815 
" clip-path="url(#p00162076db)" style="fill: none; stroke: #b0b0b0; stroke-opacity: 0.3; stroke-width: 0.8; stroke-linecap: square"/>
     </g>
     <g id="line2d_18">
      <g>
       <use xlink:href="#m95d1f9f307" x="54.2" y="173.424815" style="stroke: #000000; stroke-width: 0.8"/>
      </g>
     </g>
     <g id="text_10">
      <!-- 0.15 -->
      <g transform="translate(24.934375 177.224034) scale(0.1 -0.1)">
       <use xlink:href="#DejaVuSans-30"/>
       <use xlink:href="#DejaVuSans-2e" transform="translate(63.623047 0)"/>
       <use xlink:href="#DejaVuSans-31" transform="translate(95.410156 0)"/>
       <use xlink:href="#DejaVuSans-35" transform="translate(159.033203 0)"/>
      </g>
     </g>
    </g>
    <g id="ytick_4">
     <g id="line2d_19">
      <path d="M 54.2 115.953734 
L 637.2 115.953734 
" clip-path="url(#p00162076db)" style="fill: none; stroke: #b0b0b0; stroke-opacity: 0.3; stroke-width: 0.8; stroke-linecap: square"/>
     </g>
     <g id="line2d_20">
      <g>
       <use xlink:href="#m95d1f9f307" x="54.2" y="115.953734" style="stroke: #000000; stroke-width: 0.8"/>
      </g>
     </g>
     <g id="text_11">
      <!-- 0.20 -->
      <g transform="translate(24.934375 119.752953) scale(0.1 -0.1)">
       <use xlink:href="#DejaVuSans-30"/>
       <use xlink:href="#DejaVuSans-2e" transform="translate(63.623047 0)"/>
       <use xlink:href="#DejaVuSans-32" transform="translate(95.410156 0)"/>
       <use xlink:href="#DejaVuSans-30" transform="translate(159.033203 0)"/>
      </g>
     </g>
    </g>
    <g id="ytick_5">
     <g id="line2d_21">
      <path d="M 54.2 58.482653 
L 637.2 58.482653 
" clip-path="url(#p00162076db)" style="fill: none; stroke: #b0b0b0; stroke-opacity: 0.3; stroke-width: 0.8; stroke-linecap: square"/>
     </g>
     <g id="line2d_22">
      <g>
       <use xlink:href="#m95d1f9f307" x="54.2" y="58.482653" style="stroke: #000000; stroke-width: 0.8"/>
      </g>
     </g>
     <g id="text_12">
      <!-- 0.25 -->
      <g transform="translate(24.934375 62.281872) scale(0.1 -0.1)">
       <use xlink:href="#DejaVuSans-30"/>
       <use xlink:href="#DejaVuSans-2e" transform="translate(63.623047 0)"/>
       <use xlink:href="#DejaVuSans-32" transform="translate(95.410156 0)"/>
       <use xlink:href="#DejaVuSans-35" transform="translate(159.033203 0)"/>
      </g>
     </g>
    </g>
    <g id="text_13">
     <!-- loss -->
     <g transform="translate(18.854688 181.397813) rotate(-90) scale(0.1 -0.1)">
      <defs>
       <path id="DejaVuSans-6c" d="M 603 4863 
L 1178 4863 
L 1178 0 
L 603 0 
L 603 4863 
z
" transform="scale(0.015625)"/>
       <path id="DejaVuSans-6f" d="M 1959 3097 
Q 1497 3097 1228 2736 
Q 959 2375 959 1747 
Q 959 1119 1226 758 
Q 1494 397 1959 397 
Q 2419 397 2687 759 
Q 2956 1122 2956 1747 
Q 2956 2369 2687 2733 
Q 2419 3097 1959 3097 
z
M 1959 3584 
Q 2709 3584 3137 3096 
Q 3566 2609 3566 1747 
Q 3566 888 3137 398 
Q 2709 -91 1959 -91 
Q 1206 -91 779 398 
Q 353 888 353 1747 
Q 353 2609 779 3096 
Q 1206 3584 1959 3584 
z
" transform="scale(0.015625)"/>
      </defs>
      <use xlink:href="#DejaVuSans-6c"/>
      <use xlink:href="#DejaVuSans-6f" transform="translate(27.783203 0)"/>
      <use xlink:href="#DejaVuSans-73" transform="translate(88.964844 0)"/>
      <use xlink:href="#DejaVuSans-73" transform="translate(141.064453 0)"/>
     </g>
    </g>
   </g>
   <g id="line2d_23">
    <path d="M 80.7 64.151178 
L 81.240816 51.559064 
L 81.781633 44.683599 
L 82.322449 41.00193 
L 82.863265 38.74 
L 83.404082 39.211773 
L 83.944898 46.781624 
L 84.485714 51.670773 
L 85.026531 60.993528 
L 85.567347 67.361139 
L 86.108163 75.638867 
L 88.271429 133.430311 
L 88.812245 151.161738 
L 92.057143 208.79032 
L 92.597959 213.51755 
L 93.138776 219.968188 
L 93.679592 228.547988 
L 94.761224 238.340201 
L 95.302041 241.960086 
L 96.92449 257.537706 
L 97.465306 261.973335 
L 99.087755 267.38958 
L 99.628571 268.331944 
L 100.169388 270.592999 
L 100.710204 272.375837 
L 101.25102 273.775102 
L 102.332653 274.858375 
L 102.873469 274.981989 
L 103.414286 276.130008 
L 103.955102 276.182944 
L 104.495918 275.975813 
L 105.577551 277.029852 
L 106.118367 277.032641 
L 106.659184 277.380762 
L 107.2 277.871681 
L 107.740816 277.627323 
L 108.281633 277.770611 
L 108.822449 278.923952 
L 109.363265 278.036235 
L 109.904082 277.733959 
L 110.444898 278.257175 
L 111.526531 276.27471 
L 112.067347 275.739339 
L 112.608163 275.008363 
L 113.689796 275.148824 
L 114.230612 276.373466 
L 115.312245 278.196792 
L 115.853061 278.34975 
L 116.393878 278.803495 
L 116.934694 279.682186 
L 118.016327 279.658061 
L 118.557143 280.489073 
L 119.097959 280.679736 
L 120.179592 282.489557 
L 121.261224 280.293312 
L 121.802041 281.898907 
L 122.342857 282.988409 
L 122.883673 282.474774 
L 123.42449 283.612076 
L 123.965306 283.784253 
L 124.506122 284.733098 
L 125.046939 284.686629 
L 125.587755 284.828963 
L 126.128571 284.770246 
L 126.669388 285.490317 
L 127.75102 284.241587 
L 128.291837 284.201241 
L 128.832653 284.440514 
L 129.373469 283.927456 
L 129.914286 284.046055 
L 130.455102 283.513448 
L 130.995918 283.253171 
L 131.536735 285.348296 
L 132.077551 286.415812 
L 132.618367 286.634731 
L 133.159184 287.004834 
L 133.7 288.531744 
L 134.240816 288.151024 
L 134.781633 288.524405 
L 135.322449 287.854576 
L 135.863265 288.303243 
L 136.404082 287.785371 
L 137.485714 288.046964 
L 138.026531 288.7483 
L 138.567347 288.961245 
L 139.108163 290.20302 
L 139.64898 290.472452 
L 140.189796 291.749414 
L 140.730612 291.881941 
L 141.271429 292.52592 
L 141.812245 293.945422 
L 142.353061 294.025615 
L 142.893878 293.259713 
L 143.434694 293.08736 
L 143.97551 291.565208 
L 144.516327 290.625061 
L 145.057143 291.326121 
L 145.597959 291.537434 
L 146.138776 292.362526 
L 146.679592 292.57585 
L 147.220408 293.027006 
L 147.761224 293.189651 
L 148.302041 293.562407 
L 148.842857 292.803243 
L 149.383673 292.997253 
L 150.465306 291.734494 
L 151.006122 290.154192 
L 151.546939 290.157734 
L 152.087755 289.040141 
L 153.169388 287.841993 
L 153.710204 288.323971 
L 154.25102 288.045273 
L 155.332653 289.371669 
L 155.873469 289.052363 
L 156.414286 289.259124 
L 156.955102 287.918561 
L 157.495918 288.007964 
L 158.036735 288.681727 
L 158.577551 287.584751 
L 159.118367 286.904493 
L 159.659184 287.082284 
L 160.740816 286.724425 
L 161.281633 286.032449 
L 162.904082 288.826549 
L 163.444898 289.146686 
L 164.526531 289.072645 
L 165.067347 289.431559 
L 165.608163 289.539982 
L 166.14898 289.281774 
L 166.689796 289.244717 
L 167.230612 288.621571 
L 167.771429 289.782983 
L 168.312245 289.738099 
L 168.853061 289.385232 
L 169.393878 290.82956 
L 170.47551 291.971447 
L 171.016327 291.237886 
L 172.097959 293.995588 
L 172.638776 294.664151 
L 173.179592 293.830587 
L 173.720408 293.558631 
L 174.261224 294.276169 
L 174.802041 294.225807 
L 176.42449 295.72359 
L 176.965306 295.570665 
L 177.506122 295.553974 
L 178.046939 296.66206 
L 178.587755 296.623565 
L 179.128571 297.438629 
L 179.669388 297.811701 
L 180.210204 298.048007 
L 180.75102 297.512515 
L 181.291837 298.478786 
L 181.832653 300.260747 
L 182.373469 300.337187 
L 182.914286 300.541777 
L 183.455102 300.454693 
L 183.995918 300.919916 
L 184.536735 301.09287 
L 185.077551 300.56177 
L 186.159184 301.756319 
L 186.7 301.499522 
L 187.240816 301.719125 
L 187.781633 302.225904 
L 188.322449 303.112738 
L 188.863265 302.697754 
L 189.404082 302.973315 
L 189.944898 301.975981 
L 190.485714 301.343722 
L 191.026531 300.903745 
L 191.567347 301.359578 
L 192.108163 300.002196 
L 192.64898 299.917633 
L 193.189796 300.229808 
L 193.730612 299.870928 
L 194.271429 299.864266 
L 194.812245 299.61731 
L 195.893878 300.777543 
L 196.434694 300.465593 
L 196.97551 299.944523 
L 197.516327 300.209748 
L 198.057143 300.036824 
L 198.597959 299.729931 
L 199.138776 299.121723 
L 199.679592 299.216719 
L 200.761224 299.008342 
L 201.302041 299.206395 
L 202.383673 298.902696 
L 202.92449 299.664424 
L 204.006122 297.194624 
L 204.546939 297.496476 
L 205.087755 297.069085 
L 205.628571 296.996224 
L 206.169388 295.730152 
L 206.710204 294.75909 
L 207.25102 293.302581 
L 207.791837 293.910544 
L 208.332653 293.42819 
L 209.955102 293.662542 
L 210.495918 293.638424 
L 211.036735 293.365312 
L 211.577551 294.084453 
L 212.118367 294.329961 
L 213.2 295.698106 
L 213.740816 295.819096 
L 214.281633 296.423253 
L 214.822449 297.319911 
L 215.363265 297.169561 
L 215.904082 297.389332 
L 216.444898 297.000409 
L 216.985714 297.570335 
L 217.526531 298.339277 
L 218.067347 299.930472 
L 219.14898 299.48216 
L 219.689796 299.991839 
L 220.230612 299.838574 
L 220.771429 299.936451 
L 221.312245 300.317323 
L 221.853061 301.020085 
L 222.393878 300.561693 
L 222.934694 300.973875 
L 223.47551 300.972088 
L 224.557143 299.774991 
L 225.638776 300.077444 
L 226.179592 299.567261 
L 226.720408 298.895794 
L 227.261224 299.184095 
L 227.802041 298.972689 
L 228.342857 298.375712 
L 228.883673 298.727636 
L 229.42449 298.032592 
L 229.965306 298.436405 
L 230.506122 297.527287 
L 231.046939 298.123476 
L 231.587755 298.139964 
L 232.128571 297.094538 
L 233.210204 296.625839 
L 233.75102 295.881641 
L 234.832653 296.060872 
L 235.373469 296.483371 
L 235.914286 296.763713 
L 236.455102 296.636561 
L 237.536735 297.559633 
L 238.618367 299.168291 
L 239.159184 299.502387 
L 239.7 299.131151 
L 240.781633 300.058064 
L 241.322449 299.758759 
L 241.863265 298.923946 
L 242.404082 298.632568 
L 242.944898 299.208974 
L 243.485714 299.053306 
L 244.026531 299.508561 
L 245.108163 299.630628 
L 246.189796 299.560616 
L 246.730612 299.015987 
L 247.271429 298.893761 
L 247.812245 298.918671 
L 248.353061 299.362622 
L 248.893878 299.155512 
L 249.434694 299.317848 
L 249.97551 299.050227 
L 250.516327 300.03327 
L 251.597959 300.660987 
L 252.138776 301.347123 
L 252.679592 301.388584 
L 253.761224 302.26188 
L 254.302041 302.262842 
L 254.842857 302.075238 
L 255.383673 302.802162 
L 255.92449 302.704157 
L 256.465306 302.115968 
L 257.006122 301.999769 
L 257.546939 302.482487 
L 258.087755 302.607932 
L 258.628571 303.207709 
L 259.169388 302.338883 
L 259.710204 302.541012 
L 260.25102 302.424609 
L 260.791837 302.923718 
L 261.332653 302.321392 
L 261.873469 302.503284 
L 262.414286 302.280809 
L 262.955102 302.66878 
L 263.495918 303.265874 
L 264.577551 302.576537 
L 265.118367 302.622073 
L 266.2 302.957073 
L 266.740816 302.801014 
L 267.281633 303.853895 
L 268.363265 303.628438 
L 268.904082 303.312564 
L 269.444898 302.699846 
L 269.985714 303.616677 
L 270.526531 303.14993 
L 271.067347 303.485113 
L 271.608163 303.577531 
L 273.230612 303.095937 
L 273.771429 303.146276 
L 274.312245 302.56091 
L 274.853061 303.091311 
L 275.393878 303.152422 
L 276.47551 302.754406 
L 278.097959 301.796905 
L 278.638776 301.569204 
L 279.179592 301.536216 
L 279.720408 301.36903 
L 280.261224 301.57358 
L 280.802041 301.323137 
L 281.342857 301.569006 
L 281.883673 300.65502 
L 282.42449 300.112809 
L 283.506122 299.978048 
L 284.046939 300.183793 
L 284.587755 299.537358 
L 285.128571 299.86069 
L 286.210204 299.43082 
L 287.832653 299.491238 
L 288.373469 299.332156 
L 288.914286 299.566363 
L 289.455102 300.284991 
L 289.995918 300.194136 
L 290.536735 299.50717 
L 292.159184 298.155976 
L 292.7 298.183466 
L 293.240816 298.69534 
L 293.781633 298.561224 
L 294.322449 298.616502 
L 294.863265 298.135411 
L 295.404082 299.017489 
L 295.944898 299.066575 
L 296.485714 298.696604 
L 297.026531 299.015262 
L 297.567347 298.743748 
L 298.108163 299.123034 
L 298.64898 299.03585 
L 299.189796 299.879347 
L 300.812245 299.995332 
L 301.353061 300.84651 
L 301.893878 301.431583 
L 302.434694 301.733536 
L 302.97551 301.499737 
L 303.516327 301.846763 
L 304.057143 302.023706 
L 304.597959 302.325726 
L 305.138776 302.34771 
L 305.679592 302.583201 
L 306.220408 302.057838 
L 306.761224 301.980365 
L 307.842857 302.593328 
L 308.383673 302.708953 
L 308.92449 301.084497 
L 309.465306 300.912608 
L 310.006122 300.415361 
L 310.546939 300.097115 
L 311.628571 300.537932 
L 312.169388 300.886327 
L 312.710204 300.456804 
L 313.25102 300.516479 
L 313.791837 300.981178 
L 314.332653 300.475578 
L 314.873469 299.440502 
L 315.414286 299.484835 
L 315.955102 299.79827 
L 316.495918 299.209685 
L 317.036735 299.094296 
L 317.577551 298.338294 
L 318.118367 298.46205 
L 318.659184 298.002889 
L 319.2 298.998077 
L 319.740816 300.774619 
L 320.281633 300.922588 
L 320.822449 301.498389 
L 321.363265 301.708821 
L 321.904082 301.288947 
L 322.444898 301.815916 
L 322.985714 301.325458 
L 323.526531 301.152603 
L 324.067347 300.645855 
L 324.608163 300.562684 
L 325.14898 301.025986 
L 325.689796 302.015015 
L 326.771429 301.535295 
L 327.312245 302.214375 
L 327.853061 302.070243 
L 328.393878 303.226645 
L 328.934694 302.841385 
L 329.47551 303.640341 
L 330.557143 302.845276 
L 331.097959 303.271836 
L 331.638776 303.010712 
L 332.179592 302.927831 
L 332.720408 303.31904 
L 333.261224 302.967683 
L 334.342857 303.819125 
L 335.42449 304.74 
L 335.965306 304.552219 
L 336.506122 303.251698 
L 337.046939 303.08169 
L 337.587755 303.359527 
L 338.128571 302.676584 
L 338.669388 302.982131 
L 339.210204 302.863315 
L 339.75102 303.444236 
L 340.291837 302.907782 
L 340.832653 302.540857 
L 341.373469 302.615068 
L 342.995918 302.262064 
L 343.536735 301.625291 
L 344.618367 301.730412 
L 345.159184 301.493971 
L 345.7 300.915064 
L 346.240816 299.614092 
L 346.781633 299.640773 
L 347.322449 300.290534 
L 347.863265 300.036505 
L 348.404082 299.256165 
L 348.944898 299.325455 
L 349.485714 298.573752 
L 350.026531 298.27694 
L 350.567347 297.82381 
L 351.108163 298.131342 
L 351.64898 298.024038 
L 352.730612 295.961729 
L 353.271429 295.383361 
L 353.812245 295.653482 
L 354.353061 296.469598 
L 355.434694 295.53124 
L 355.97551 295.572608 
L 356.516327 296.41812 
L 357.057143 296.774073 
L 357.597959 296.813537 
L 358.138776 296.589389 
L 358.679592 296.806775 
L 359.220408 296.289284 
L 360.302041 297.656845 
L 360.842857 297.461225 
L 361.383673 297.800709 
L 361.92449 296.700669 
L 362.465306 296.745306 
L 363.546939 298.830905 
L 364.087755 298.559434 
L 364.628571 298.588634 
L 365.169388 297.782092 
L 365.710204 297.372735 
L 366.25102 296.790294 
L 366.791837 296.997681 
L 367.332653 296.930893 
L 367.873469 297.243054 
L 368.414286 297.16291 
L 368.955102 297.789837 
L 369.495918 298.219315 
L 370.036735 299.180255 
L 370.577551 298.28139 
L 371.118367 297.866603 
L 371.659184 298.35042 
L 372.2 297.54848 
L 373.281633 299.232423 
L 374.363265 299.498598 
L 374.904082 300.39853 
L 375.444898 299.999131 
L 375.985714 300.562673 
L 377.067347 302.271345 
L 377.608163 302.092222 
L 378.689796 302.362806 
L 379.230612 301.989928 
L 379.771429 301.134285 
L 380.312245 301.436121 
L 380.853061 301.259113 
L 381.393878 301.378515 
L 381.934694 301.988312 
L 382.47551 301.169977 
L 383.016327 301.440309 
L 383.557143 301.461048 
L 384.638776 300.460567 
L 385.179592 299.628562 
L 385.720408 299.132059 
L 386.261224 299.540399 
L 386.802041 299.046684 
L 387.342857 298.880428 
L 388.42449 299.093524 
L 388.965306 298.691907 
L 389.506122 298.467461 
L 390.587755 299.100883 
L 391.669388 298.31175 
L 392.210204 298.374664 
L 392.75102 297.23055 
L 393.291837 297.540427 
L 393.832653 297.702737 
L 394.914286 295.923741 
L 395.455102 295.607588 
L 395.995918 296.307278 
L 396.536735 296.394538 
L 397.618367 295.60923 
L 398.159184 295.009164 
L 398.7 295.561488 
L 399.240816 295.31913 
L 399.781633 295.57131 
L 400.863265 296.60053 
L 401.404082 296.689476 
L 401.944898 296.470334 
L 403.026531 298.134303 
L 403.567347 298.689345 
L 404.108163 299.050004 
L 404.64898 298.253033 
L 405.189796 298.028694 
L 405.730612 299.019951 
L 406.271429 299.239853 
L 406.812245 298.547633 
L 407.353061 298.546246 
L 407.893878 298.755139 
L 408.434694 299.242162 
L 408.97551 299.883344 
L 409.516327 299.499746 
L 410.057143 300.12216 
L 410.597959 300.534189 
L 411.138776 300.499685 
L 411.679592 300.596522 
L 412.220408 300.9911 
L 412.761224 300.829198 
L 413.302041 300.897912 
L 413.842857 300.563441 
L 414.383673 300.07693 
L 414.92449 299.84589 
L 416.006122 301.180134 
L 417.628571 302.731699 
L 418.710204 302.508943 
L 419.25102 302.813527 
L 420.873469 300.017428 
L 421.955102 299.247125 
L 422.495918 299.191378 
L 423.036735 299.319224 
L 423.577551 299.975983 
L 424.118367 299.210144 
L 424.659184 299.324569 
L 425.2 300.35869 
L 425.740816 300.49129 
L 426.281633 301.261781 
L 426.822449 301.449173 
L 427.904082 300.486616 
L 428.985714 298.899731 
L 429.526531 299.449756 
L 430.067347 298.760731 
L 430.608163 298.84613 
L 431.14898 299.450518 
L 431.689796 299.221 
L 432.230612 298.813567 
L 432.771429 299.209065 
L 433.312245 298.953409 
L 433.853061 298.339546 
L 434.934694 298.842721 
L 435.47551 298.003529 
L 436.557143 297.205037 
L 437.638776 297.227458 
L 438.179592 297.65504 
L 438.720408 298.246699 
L 439.261224 299.290875 
L 439.802041 300.651615 
L 440.342857 300.256156 
L 441.42449 302.166611 
L 441.965306 302.96012 
L 442.506122 303.424022 
L 443.587755 303.771458 
L 444.128571 303.497773 
L 444.669388 303.443501 
L 445.210204 302.346085 
L 445.75102 302.1755 
L 446.832653 303.406882 
L 447.373469 303.634581 
L 447.914286 302.810722 
L 448.455102 302.837557 
L 448.995918 301.867079 
L 449.536735 301.165964 
L 450.077551 301.179888 
L 451.159184 300.735172 
L 451.7 299.771498 
L 452.240816 299.932108 
L 452.781633 299.02689 
L 453.863265 298.887428 
L 454.404082 299.130203 
L 454.944898 298.72311 
L 455.485714 298.852062 
L 457.108163 298.723763 
L 457.64898 298.813729 
L 458.189796 299.536348 
L 458.730612 299.63248 
L 459.271429 299.108581 
L 459.812245 299.501634 
L 460.353061 299.29398 
L 460.893878 298.853661 
L 461.434694 298.236811 
L 461.97551 298.444961 
L 462.516327 298.855215 
L 463.057143 298.325633 
L 464.138776 298.597021 
L 464.679592 298.893428 
L 465.220408 298.222686 
L 465.761224 298.581693 
L 466.302041 298.197478 
L 466.842857 298.486088 
L 467.92449 298.716332 
L 469.006122 297.199827 
L 469.546939 296.824119 
L 470.087755 297.158846 
L 470.628571 296.375779 
L 471.169388 296.532399 
L 471.710204 295.390589 
L 472.25102 295.61447 
L 472.791837 294.982158 
L 473.332653 294.906769 
L 474.414286 295.962717 
L 474.955102 295.708422 
L 475.495918 295.978773 
L 476.577551 295.63595 
L 477.118367 295.664555 
L 477.659184 296.348692 
L 478.2 296.788334 
L 478.740816 296.256889 
L 479.281633 296.633612 
L 479.822449 296.618733 
L 480.363265 296.324993 
L 480.904082 295.556287 
L 481.444898 296.607135 
L 483.067347 298.680717 
L 483.608163 299.095523 
L 484.14898 298.488191 
L 484.689796 298.801888 
L 485.230612 298.668176 
L 485.771429 298.768511 
L 486.312245 298.702208 
L 486.853061 298.751369 
L 487.393878 299.368617 
L 487.934694 299.571154 
L 489.016327 299.03331 
L 489.557143 299.433293 
L 490.638776 299.908572 
L 491.179592 300.93201 
L 491.720408 301.680129 
L 492.261224 301.785988 
L 492.802041 301.018464 
L 493.342857 301.513061 
L 493.883673 300.911728 
L 494.42449 300.612401 
L 494.965306 301.220989 
L 496.046939 301.087476 
L 497.128571 300.93732 
L 498.210204 300.048009 
L 498.75102 300.158593 
L 499.291837 299.569343 
L 499.832653 300.176693 
L 500.914286 300.156689 
L 501.455102 299.4797 
L 501.995918 299.581011 
L 502.536735 299.90416 
L 503.077551 299.592693 
L 504.7 300.803321 
L 505.240816 300.859714 
L 505.781633 301.115972 
L 506.322449 300.323597 
L 506.863265 300.182632 
L 507.404082 300.652326 
L 507.944898 300.235153 
L 509.026531 302.530464 
L 509.567347 302.89552 
L 510.108163 304.147407 
L 510.64898 303.445835 
L 511.189796 303.344784 
L 511.730612 302.96784 
L 512.271429 303.883009 
L 512.812245 303.774318 
L 513.353061 302.942454 
L 513.893878 303.390391 
L 514.434694 303.413086 
L 514.97551 302.541114 
L 515.516327 302.103589 
L 516.057143 302.775011 
L 516.597959 302.44926 
L 517.679592 303.513012 
L 518.220408 302.726446 
L 518.761224 302.62814 
L 519.302041 302.160792 
L 519.842857 301.131933 
L 520.92449 300.020299 
L 521.465306 300.262833 
L 522.006122 299.811406 
L 523.087755 299.858416 
L 523.628571 299.616164 
L 524.169388 299.506296 
L 524.710204 298.850615 
L 525.25102 298.56509 
L 525.791837 299.281506 
L 526.332653 299.502718 
L 526.873469 299.23725 
L 527.414286 299.552582 
L 527.955102 298.851574 
L 528.495918 298.709899 
L 529.036735 298.945605 
L 529.577551 299.676639 
L 530.118367 299.900498 
L 530.659184 300.490096 
L 531.2 300.055379 
L 531.740816 299.210302 
L 532.281633 299.339222 
L 532.822449 299.905802 
L 533.363265 300.100851 
L 533.904082 299.638132 
L 534.444898 299.46953 
L 534.985714 299.00874 
L 535.526531 299.533597 
L 536.067347 299.599499 
L 536.608163 298.881952 
L 537.14898 298.582469 
L 537.689796 299.147801 
L 538.230612 298.890087 
L 538.771429 298.817656 
L 539.312245 298.198605 
L 539.853061 296.765118 
L 541.47551 294.397902 
L 542.016327 295.353771 
L 542.557143 295.235332 
L 544.179592 294.13718 
L 544.720408 294.738138 
L 545.261224 295.031939 
L 545.802041 295.828594 
L 546.883673 295.796442 
L 547.965306 295.928114 
L 548.506122 295.58626 
L 549.046939 295.725563 
L 549.587755 296.045181 
L 550.128571 295.697561 
L 550.669388 296.845766 
L 551.210204 296.290983 
L 552.291837 297.055503 
L 552.832653 297.044548 
L 553.373469 298.033792 
L 553.914286 298.300175 
L 554.455102 298.213567 
L 554.995918 297.979539 
L 555.536735 298.102246 
L 556.077551 297.862274 
L 556.618367 297.985723 
L 557.159184 297.817145 
L 557.7 297.970155 
L 558.240816 297.954007 
L 558.781633 298.076556 
L 559.322449 297.751588 
L 559.863265 297.159782 
L 560.404082 297.54944 
L 560.944898 298.559581 
L 561.485714 298.960099 
L 562.026531 300.090099 
L 562.567347 300.046611 
L 563.108163 300.43348 
L 563.64898 300.50975 
L 564.189796 300.087792 
L 564.730612 300.24705 
L 565.271429 300.285887 
L 565.812245 300.461262 
L 566.353061 299.531467 
L 566.893878 299.915111 
L 567.434694 300.512587 
L 567.97551 300.75897 
L 568.516327 300.852458 
L 569.057143 301.581198 
L 569.597959 301.608357 
L 570.138776 302.108982 
L 570.679592 302.868637 
L 571.220408 302.731895 
L 572.302041 302.064481 
L 572.842857 301.691303 
L 573.383673 301.465937 
L 573.92449 301.075018 
L 575.006122 301.687263 
L 575.546939 301.48858 
L 576.087755 302.027632 
L 576.628571 301.666332 
L 577.169388 302.163533 
L 577.710204 301.172646 
L 578.25102 300.527226 
L 578.791837 300.287506 
L 579.332653 300.233074 
L 579.873469 300.352884 
L 580.414286 300.034635 
L 580.955102 299.545192 
L 581.495918 299.536143 
L 582.036735 299.311841 
L 582.577551 299.246947 
L 583.118367 299.754637 
L 584.2 299.006121 
L 584.740816 299.663735 
L 585.822449 298.460635 
L 586.363265 298.202425 
L 586.904082 297.780528 
L 587.444898 298.431466 
L 587.985714 298.143307 
L 588.526531 298.395195 
L 589.067347 297.780195 
L 589.608163 297.717239 
L 590.14898 297.148915 
L 590.689796 295.791006 
L 591.230612 295.708002 
L 592.312245 294.733863 
L 592.853061 294.530366 
L 593.393878 294.509425 
L 593.934694 293.78557 
L 595.016327 294.900269 
L 595.557143 294.085714 
L 596.097959 293.938368 
L 596.638776 294.474489 
L 597.179592 294.721623 
L 597.720408 294.833175 
L 598.261224 294.033214 
L 598.802041 294.321009 
L 599.883673 295.617885 
L 600.42449 295.078923 
L 601.506122 296.003246 
L 602.046939 296.14182 
L 602.587755 296.629385 
L 603.669388 297.085369 
L 604.210204 296.765929 
L 605.291837 295.69691 
L 605.832653 295.200867 
L 606.373469 295.279724 
L 606.914286 296.093769 
L 607.455102 296.159608 
L 607.995918 295.705886 
L 608.536735 296.072333 
L 609.077551 296.969119 
L 610.7 296.631149 
L 610.7 296.631149 
" clip-path="url(#p00162076db)" style="fill: none; stroke: #1f77b4; stroke-width: 1.5; stroke-linecap: square"/>
   </g>
   <g id="line2d_24">
    <path d="M 80.7 67.219701 
L 81.781633 45.869067 
L 82.322449 40.837315 
L 82.863265 42.705769 
L 83.944898 58.943978 
L 84.485714 77.408629 
L 85.026531 85.833928 
L 86.108163 109.630417 
L 86.64898 121.1483 
L 87.189796 135.564952 
L 87.730612 141.016343 
L 88.812245 158.764045 
L 90.97551 197.768127 
L 92.057143 211.63108 
L 93.138776 231.18906 
L 93.679592 233.970027 
L 94.761224 238.100682 
L 95.302041 239.350174 
L 96.383673 249.889871 
L 97.465306 254.435143 
L 98.006122 254.525682 
L 98.546939 256.75942 
L 99.087755 259.585945 
L 99.628571 260.076515 
L 101.25102 264.96988 
L 101.791837 265.064411 
L 102.332653 266.383907 
L 103.414286 265.958011 
L 103.955102 266.062876 
L 104.495918 268.438433 
L 105.036735 269.537319 
L 105.577551 269.45681 
L 106.118367 270.048676 
L 107.2 268.821689 
L 107.740816 269.740388 
L 108.281633 270.050155 
L 108.822449 273.81193 
L 109.363265 274.077565 
L 109.904082 275.379405 
L 110.444898 275.913821 
L 110.985714 275.271548 
L 111.526531 276.239708 
L 112.067347 276.161174 
L 112.608163 276.415847 
L 113.14898 276.460006 
L 113.689796 277.981526 
L 114.230612 277.727388 
L 115.312245 276.678514 
L 115.853061 276.855128 
L 116.393878 277.442847 
L 116.934694 277.207825 
L 117.47551 278.857202 
L 118.016327 278.936716 
L 118.557143 278.654986 
L 119.097959 278.955307 
L 119.638776 277.077973 
L 120.179592 277.508954 
L 120.720408 276.326435 
L 121.802041 278.47195 
L 122.883673 278.372954 
L 123.42449 279.013061 
L 123.965306 280.633889 
L 124.506122 279.893862 
L 125.046939 280.621419 
L 126.669388 281.309022 
L 127.75102 282.526173 
L 128.291837 281.590853 
L 129.914286 283.106007 
L 130.455102 283.438617 
L 130.995918 283.931426 
L 131.536735 284.722361 
L 132.077551 283.960871 
L 132.618367 282.921083 
L 133.159184 282.512742 
L 133.7 282.723066 
L 134.781633 281.009157 
L 135.322449 281.260827 
L 135.863265 281.908981 
L 136.404082 280.860299 
L 136.944898 280.097347 
L 138.026531 277.947586 
L 138.567347 277.862027 
L 139.108163 278.933165 
L 139.64898 279.436438 
L 140.189796 280.23442 
L 140.730612 279.575182 
L 141.271429 280.783048 
L 141.812245 280.416909 
L 142.353061 279.895712 
L 142.893878 280.307662 
L 143.97551 281.886145 
L 144.516327 282.710231 
L 145.057143 283.918345 
L 145.597959 283.762521 
L 146.138776 283.907192 
L 146.679592 284.312861 
L 147.220408 285.979295 
L 147.761224 286.568064 
L 148.842857 289.208566 
L 149.92449 289.426255 
L 150.465306 289.677972 
L 151.006122 289.583574 
L 151.546939 289.805334 
L 152.087755 288.675638 
L 153.710204 290.421155 
L 154.25102 290.056 
L 154.791837 290.110876 
L 155.332653 289.781439 
L 155.873469 288.774426 
L 156.414286 289.707535 
L 156.955102 289.549735 
L 157.495918 289.020863 
L 158.036735 288.802734 
L 159.118367 289.556955 
L 159.659184 289.417798 
L 161.281633 289.829952 
L 161.822449 289.54419 
L 162.904082 291.744451 
L 163.444898 291.755074 
L 163.985714 291.363015 
L 164.526531 290.100451 
L 165.067347 291.195164 
L 165.608163 290.912514 
L 166.14898 291.256147 
L 166.689796 291.867396 
L 167.230612 292.117061 
L 167.771429 292.996949 
L 168.312245 292.898482 
L 168.853061 293.065265 
L 169.393878 293.770292 
L 169.934694 293.191271 
L 170.47551 293.39009 
L 171.016327 293.407224 
L 171.557143 293.036744 
L 172.097959 292.808442 
L 172.638776 293.177001 
L 173.179592 292.578535 
L 173.720408 292.964303 
L 174.261224 293.029981 
L 175.342857 295.335245 
L 175.883673 295.012622 
L 176.42449 294.479741 
L 176.965306 294.712911 
L 178.046939 294.965007 
L 178.587755 294.655382 
L 179.128571 295.135997 
L 180.210204 294.326515 
L 180.75102 294.576994 
L 181.291837 294.055235 
L 181.832653 294.151405 
L 182.914286 294.629834 
L 183.455102 294.704298 
L 183.995918 295.386261 
L 186.7 294.779192 
L 187.240816 295.878798 
L 187.781633 295.819289 
L 188.322449 296.200006 
L 188.863265 296.115 
L 189.944898 296.848254 
L 190.485714 296.897408 
L 191.026531 297.402171 
L 192.64898 298.092734 
L 193.189796 298.325719 
L 194.812245 297.370397 
L 195.353061 297.571488 
L 195.893878 297.954235 
L 196.434694 297.704438 
L 196.97551 297.329261 
L 197.516327 297.654763 
L 198.057143 297.56135 
L 198.597959 297.604422 
L 199.138776 298.076204 
L 199.679592 297.53575 
L 200.220408 297.324733 
L 200.761224 296.535174 
L 201.302041 297.083168 
L 201.842857 295.84926 
L 202.383673 295.885247 
L 202.92449 295.639869 
L 204.006122 296.135106 
L 205.087755 297.263962 
L 205.628571 298.590324 
L 206.710204 299.254812 
L 207.25102 300.294798 
L 207.791837 300.673754 
L 208.332653 301.369227 
L 208.873469 301.405238 
L 209.955102 301.801693 
L 210.495918 302.760679 
L 211.036735 302.690314 
L 211.577551 303.451991 
L 212.118367 303.096971 
L 212.659184 303.90807 
L 213.2 303.848766 
L 213.740816 303.635173 
L 214.281633 303.741911 
L 215.363265 303.309057 
L 215.904082 302.905949 
L 216.444898 302.218555 
L 218.608163 301.414524 
L 219.14898 300.838743 
L 219.689796 300.83076 
L 220.230612 301.348409 
L 220.771429 300.994358 
L 221.312245 300.466229 
L 221.853061 300.307458 
L 224.016327 301.783919 
L 224.557143 302.04076 
L 225.097959 301.771226 
L 225.638776 301.74063 
L 226.179592 301.41794 
L 227.261224 301.208344 
L 229.42449 301.770047 
L 229.965306 302.565203 
L 230.506122 302.532364 
L 231.046939 301.695721 
L 231.587755 301.62292 
L 232.128571 302.117804 
L 232.669388 302.373755 
L 233.75102 301.499955 
L 235.373469 301.365182 
L 235.914286 301.12659 
L 236.455102 300.590842 
L 236.995918 300.910848 
L 237.536735 300.835007 
L 238.077551 301.07484 
L 238.618367 301.039813 
L 239.159184 300.491742 
L 240.240816 301.170175 
L 240.781633 301.069862 
L 241.863265 302.290133 
L 242.404082 302.606042 
L 242.944898 302.262452 
L 243.485714 301.593789 
L 244.026531 302.313411 
L 245.108163 302.766563 
L 245.64898 303.134554 
L 246.189796 303.090711 
L 247.812245 304.317665 
L 248.353061 304.441418 
L 248.893878 304.087359 
L 249.434694 304.040249 
L 249.97551 304.485508 
L 250.516327 304.137152 
L 251.057143 303.504208 
L 251.597959 303.086613 
L 252.138776 301.581981 
L 253.220408 300.20719 
L 253.761224 299.305614 
L 254.302041 300.255375 
L 254.842857 299.613431 
L 255.383673 299.84821 
L 256.465306 297.532421 
L 257.006122 297.463759 
L 257.546939 296.325769 
L 258.628571 294.9747 
L 259.169388 294.953149 
L 259.710204 294.304087 
L 260.25102 293.846162 
L 260.791837 293.885984 
L 261.332653 293.812213 
L 261.873469 294.141262 
L 262.414286 293.862633 
L 262.955102 294.47169 
L 263.495918 294.688375 
L 264.036735 294.568585 
L 264.577551 294.053608 
L 265.118367 292.848471 
L 265.659184 292.25127 
L 266.2 292.243648 
L 266.740816 292.506434 
L 267.281633 293.215107 
L 267.822449 293.553157 
L 268.363265 294.59113 
L 269.985714 294.571707 
L 270.526531 294.898272 
L 271.067347 295.410651 
L 271.608163 294.574966 
L 272.14898 294.534949 
L 272.689796 294.848625 
L 273.230612 295.712399 
L 273.771429 295.97566 
L 274.312245 295.283234 
L 274.853061 295.063187 
L 275.393878 296.271723 
L 276.47551 297.988264 
L 277.016327 297.742111 
L 277.557143 298.306313 
L 278.097959 297.282869 
L 278.638776 297.256965 
L 279.179592 297.653881 
L 281.342857 300.329401 
L 281.883673 299.804108 
L 282.42449 300.173454 
L 282.965306 300.033924 
L 284.046939 298.63733 
L 284.587755 299.034915 
L 285.669388 300.688421 
L 286.210204 301.227906 
L 287.832653 301.332153 
L 288.373469 300.789685 
L 288.914286 301.865596 
L 289.455102 301.141683 
L 289.995918 300.198452 
L 291.077551 299.892122 
L 291.618367 300.332738 
L 292.159184 299.903917 
L 292.7 300.220146 
L 293.240816 300.685031 
L 293.781633 300.701234 
L 294.322449 301.293319 
L 294.863265 301.146776 
L 295.944898 300.166991 
L 296.485714 300.037978 
L 297.026531 298.949536 
L 297.567347 298.608546 
L 298.108163 298.714976 
L 298.64898 298.626293 
L 299.189796 299.369124 
L 299.730612 299.329453 
L 300.271429 300.119079 
L 301.353061 300.472961 
L 301.893878 299.999285 
L 302.434694 299.059234 
L 302.97551 298.956335 
L 303.516327 299.15188 
L 304.597959 299.278871 
L 305.138776 299.117735 
L 305.679592 299.113589 
L 306.220408 298.962457 
L 306.761224 299.457811 
L 307.302041 298.783976 
L 307.842857 299.78632 
L 309.465306 300.484394 
L 310.546939 300.162768 
L 311.087755 300.362171 
L 311.628571 300.794799 
L 312.169388 301.04271 
L 313.25102 300.634357 
L 313.791837 300.917749 
L 314.332653 300.61974 
L 314.873469 300.148957 
L 315.414286 300.461646 
L 315.955102 300.457408 
L 317.036735 301.323572 
L 317.577551 300.703776 
L 318.118367 301.560877 
L 318.659184 301.090036 
L 319.2 301.82383 
L 319.740816 301.64987 
L 320.822449 301.493962 
L 321.904082 302.375104 
L 322.444898 302.022418 
L 322.985714 302.197348 
L 324.067347 303.493628 
L 324.608163 303.536096 
L 325.14898 303.698585 
L 326.230612 303.674037 
L 326.771429 304.044888 
L 327.312245 303.82861 
L 327.853061 303.93707 
L 328.393878 304.708686 
L 328.934694 304.055725 
L 329.47551 304.589728 
L 330.016327 303.853632 
L 330.557143 303.953261 
L 331.097959 303.902232 
L 331.638776 304.26251 
L 332.179592 304.141549 
L 332.720408 303.690201 
L 333.261224 304.022863 
L 333.802041 303.610085 
L 334.342857 303.338705 
L 334.883673 303.552458 
L 335.965306 303.362292 
L 336.506122 303.248687 
L 337.046939 302.886653 
L 337.587755 303.064929 
L 338.128571 302.987907 
L 338.669388 303.135452 
L 339.210204 303.139089 
L 339.75102 303.827401 
L 340.291837 303.334161 
L 340.832653 303.49333 
L 341.914286 304.014759 
L 342.455102 303.262228 
L 342.995918 303.365446 
L 343.536735 303.14726 
L 344.077551 302.732794 
L 344.618367 302.662245 
L 345.159184 303.266433 
L 345.7 302.493291 
L 346.240816 302.739923 
L 346.781633 302.755159 
L 347.863265 303.983586 
L 348.404082 303.050578 
L 350.567347 302.38444 
L 351.108163 302.76168 
L 351.64898 302.566684 
L 352.189796 301.886674 
L 353.271429 301.869577 
L 353.812245 301.280225 
L 354.353061 301.506322 
L 354.893878 302.026965 
L 355.434694 302.334689 
L 355.97551 301.825545 
L 356.516327 301.676084 
L 357.057143 301.390743 
L 357.597959 301.720821 
L 358.679592 301.103119 
L 359.220408 301.789261 
L 359.761224 302.226162 
L 361.383673 301.675634 
L 361.92449 301.709799 
L 363.006122 302.116227 
L 363.546939 301.476186 
L 364.628571 302.951239 
L 365.169388 302.646225 
L 365.710204 301.921762 
L 366.791837 301.480379 
L 367.332653 301.789654 
L 367.873469 301.319636 
L 368.414286 300.658809 
L 370.036735 299.95995 
L 370.577551 300.168014 
L 371.118367 300.614857 
L 371.659184 300.326397 
L 372.2 299.708304 
L 372.740816 299.492637 
L 373.281633 299.692332 
L 373.822449 299.547992 
L 374.904082 298.9344 
L 375.444898 298.670351 
L 375.985714 297.911425 
L 376.526531 298.511607 
L 377.067347 298.345008 
L 377.608163 297.854224 
L 378.689796 298.960915 
L 379.771429 299.717629 
L 380.312245 299.160678 
L 380.853061 298.366524 
L 381.934694 297.453372 
L 382.47551 297.632525 
L 383.016327 298.318464 
L 383.557143 298.457118 
L 384.097959 297.656837 
L 384.638776 297.066661 
L 385.179592 297.641272 
L 386.261224 297.07846 
L 386.802041 297.192222 
L 387.342857 297.12826 
L 387.883673 296.88136 
L 388.42449 297.404429 
L 388.965306 297.072769 
L 389.506122 297.589421 
L 390.046939 297.640723 
L 390.587755 297.525655 
L 391.669388 299.091507 
L 392.210204 299.476321 
L 393.291837 299.577718 
L 393.832653 299.936331 
L 394.373469 299.315377 
L 394.914286 299.487551 
L 395.455102 300.211954 
L 395.995918 300.112286 
L 396.536735 299.583577 
L 397.077551 300.20112 
L 397.618367 301.040796 
L 398.159184 301.02202 
L 398.7 300.393965 
L 399.240816 300.275272 
L 399.781633 299.80575 
L 400.322449 300.100254 
L 400.863265 300.249781 
L 401.404082 299.845331 
L 401.944898 299.85958 
L 403.026531 299.621946 
L 403.567347 299.571118 
L 404.108163 299.708257 
L 405.189796 299.108564 
L 405.730612 299.778969 
L 406.271429 299.940949 
L 406.812245 299.120874 
L 407.353061 299.503113 
L 407.893878 299.09686 
L 408.434694 299.103938 
L 408.97551 298.820683 
L 409.516327 299.692808 
L 410.057143 299.71398 
L 410.597959 299.404408 
L 411.138776 298.424411 
L 411.679592 298.210021 
L 412.220408 298.410359 
L 412.761224 297.688405 
L 413.842857 297.211334 
L 414.383673 296.444534 
L 414.92449 296.89537 
L 415.465306 297.119911 
L 416.006122 297.706318 
L 416.546939 297.062854 
L 417.087755 297.338491 
L 417.628571 298.185454 
L 418.169388 297.829961 
L 419.25102 295.350516 
L 420.332653 294.190616 
L 420.873469 294.190648 
L 421.414286 295.026334 
L 421.955102 295.266528 
L 424.118367 295.28 
L 424.659184 295.027351 
L 425.2 295.418484 
L 425.740816 295.620169 
L 426.281633 294.999485 
L 427.363265 296.079115 
L 427.904082 295.847488 
L 428.985714 295.99441 
L 429.526531 296.654276 
L 430.067347 297.679 
L 430.608163 298.043476 
L 431.14898 298.095708 
L 431.689796 298.853979 
L 432.230612 298.328908 
L 432.771429 298.421461 
L 433.312245 298.363828 
L 433.853061 298.067988 
L 434.393878 299.250519 
L 435.47551 299.21572 
L 436.016327 299.704888 
L 436.557143 299.336061 
L 437.097959 299.443813 
L 437.638776 298.766166 
L 438.179592 298.682514 
L 438.720408 298.122689 
L 439.261224 298.102841 
L 440.342857 298.787402 
L 440.883673 298.80684 
L 441.42449 299.895048 
L 441.965306 300.415817 
L 442.506122 299.322401 
L 443.046939 298.945793 
L 443.587755 298.968428 
L 444.128571 298.35453 
L 444.669388 297.943866 
L 445.210204 297.152431 
L 445.75102 297.673313 
L 446.291837 298.571678 
L 446.832653 299.151936 
L 447.373469 298.90486 
L 447.914286 299.363276 
L 448.455102 299.057806 
L 448.995918 299.008988 
L 449.536735 299.362102 
L 450.618367 299.841575 
L 451.159184 299.27154 
L 451.7 299.784358 
L 452.240816 299.560558 
L 452.781633 300.020924 
L 453.322449 300.743464 
L 453.863265 302.011686 
L 454.944898 301.409066 
L 455.485714 302.341662 
L 456.026531 302.690958 
L 456.567347 302.246002 
L 457.108163 302.067818 
L 457.64898 301.251949 
L 458.730612 300.317761 
L 459.271429 300.704163 
L 460.353061 300.263324 
L 460.893878 300.356244 
L 461.434694 300.038193 
L 461.97551 300.16529 
L 462.516327 299.794072 
L 463.597959 298.398416 
L 464.138776 298.443458 
L 464.679592 297.888934 
L 465.220408 297.711326 
L 465.761224 298.855704 
L 467.383673 298.221604 
L 467.92449 297.51588 
L 468.465306 297.440063 
L 469.006122 298.143494 
L 470.087755 298.266741 
L 470.628571 297.94626 
L 471.169388 297.948202 
L 472.25102 298.251632 
L 473.332653 299.04876 
L 473.873469 299.090591 
L 474.414286 299.721394 
L 474.955102 299.098041 
L 475.495918 298.773208 
L 476.036735 299.078308 
L 476.577551 299.550775 
L 477.118367 299.581924 
L 477.659184 299.841166 
L 478.2 300.97191 
L 478.740816 301.64686 
L 479.281633 301.811926 
L 479.822449 301.456739 
L 480.363265 301.6649 
L 480.904082 302.484228 
L 481.444898 302.246742 
L 481.985714 302.473276 
L 483.067347 301.911927 
L 483.608163 302.311734 
L 484.14898 301.406017 
L 484.689796 302.189681 
L 485.230612 301.532194 
L 485.771429 302.013443 
L 486.312245 302.117798 
L 487.393878 300.734994 
L 487.934694 301.055566 
L 488.47551 300.471662 
L 489.557143 298.350693 
L 490.097959 298.245301 
L 490.638776 298.346027 
L 491.179592 298.652103 
L 491.720408 298.332113 
L 492.261224 299.164276 
L 493.342857 299.315177 
L 493.883673 299.495433 
L 494.42449 299.200921 
L 494.965306 299.687493 
L 495.506122 299.017324 
L 496.046939 299.233675 
L 496.587755 299.076715 
L 497.128571 299.477534 
L 497.669388 300.649723 
L 498.210204 300.981397 
L 498.75102 300.606637 
L 499.291837 300.519385 
L 499.832653 301.305439 
L 500.373469 302.306098 
L 500.914286 302.638043 
L 501.455102 302.758316 
L 501.995918 302.470238 
L 502.536735 302.395462 
L 503.077551 302.027221 
L 503.618367 302.136528 
L 504.159184 301.507867 
L 504.7 301.138054 
L 506.322449 300.784823 
L 506.863265 300.671227 
L 507.404082 300.335499 
L 507.944898 300.232477 
L 509.026531 298.482876 
L 509.567347 298.24233 
L 510.108163 298.610926 
L 510.64898 298.644046 
L 511.189796 298.860586 
L 511.730612 298.853579 
L 512.271429 299.450772 
L 512.812245 299.394618 
L 513.353061 298.721348 
L 513.893878 298.666662 
L 514.434694 298.151007 
L 514.97551 299.171984 
L 515.516327 299.657136 
L 516.057143 299.357324 
L 516.597959 299.758259 
L 517.679592 300.859504 
L 518.220408 301.152552 
L 518.761224 300.669614 
L 519.302041 301.178907 
L 520.383673 302.845095 
L 520.92449 303.279828 
L 521.465306 302.790579 
L 522.006122 302.078859 
L 522.546939 302.727299 
L 523.087755 302.018512 
L 523.628571 301.557816 
L 524.169388 302.123479 
L 524.710204 302.464679 
L 525.25102 302.639342 
L 525.791837 301.695579 
L 526.332653 301.798489 
L 526.873469 302.299452 
L 527.955102 301.630457 
L 528.495918 301.690621 
L 529.036735 302.278715 
L 530.118367 302.99911 
L 530.659184 302.84625 
L 531.2 302.455382 
L 531.740816 301.769938 
L 532.822449 302.264808 
L 533.363265 301.592331 
L 533.904082 301.592615 
L 534.444898 301.912948 
L 534.985714 302.010056 
L 535.526531 301.775832 
L 536.067347 301.791153 
L 537.14898 302.161324 
L 537.689796 301.86216 
L 538.230612 302.487482 
L 538.771429 302.613969 
L 539.312245 302.51634 
L 539.853061 301.956842 
L 540.393878 302.131991 
L 540.934694 301.632255 
L 541.47551 301.949639 
L 542.016327 301.727893 
L 542.557143 302.380277 
L 543.097959 302.32094 
L 543.638776 302.002179 
L 544.179592 302.172811 
L 544.720408 301.752589 
L 545.261224 301.949557 
L 545.802041 302.292719 
L 546.883673 302.293463 
L 547.42449 303.082221 
L 547.965306 303.21791 
L 549.587755 302.942675 
L 550.128571 302.992527 
L 550.669388 302.890149 
L 551.210204 302.964388 
L 551.75102 303.405306 
L 552.291837 302.163579 
L 552.832653 302.725844 
L 553.914286 302.662976 
L 554.455102 303.035559 
L 554.995918 303.075546 
L 555.536735 303.364658 
L 556.077551 302.995901 
L 556.618367 302.377385 
L 557.159184 302.789525 
L 557.7 303.03375 
L 558.781633 302.572427 
L 559.322449 303.321581 
L 559.863265 302.702305 
L 560.404082 302.759132 
L 561.485714 303.407408 
L 562.026531 303.286223 
L 562.567347 302.978082 
L 563.108163 304.250049 
L 563.64898 303.666541 
L 564.189796 303.436223 
L 565.271429 303.837073 
L 565.812245 303.490773 
L 566.353061 303.682305 
L 566.893878 304.427389 
L 567.434694 304.323839 
L 567.97551 304.40832 
L 568.516327 304.657146 
L 569.057143 304.137527 
L 569.597959 304.073387 
L 570.138776 303.542372 
L 570.679592 303.999316 
L 571.220408 303.588479 
L 571.761224 303.431816 
L 573.383673 303.579036 
L 573.92449 302.003047 
L 574.465306 301.502845 
L 575.006122 301.574855 
L 575.546939 302.047658 
L 576.087755 301.624092 
L 576.628571 301.967042 
L 577.710204 301.762645 
L 578.25102 301.485066 
L 579.332653 300.576908 
L 579.873469 300.59904 
L 580.955102 299.823186 
L 582.036735 299.603463 
L 582.577551 299.003165 
L 583.118367 298.570643 
L 583.659184 298.359904 
L 584.2 298.477912 
L 584.740816 299.426711 
L 585.822449 299.862717 
L 587.444898 299.71136 
L 587.985714 299.928 
L 588.526531 299.900541 
L 589.067347 300.111915 
L 589.608163 299.853095 
L 590.14898 299.840253 
L 590.689796 299.566691 
L 591.230612 299.568388 
L 591.771429 300.074246 
L 592.312245 299.854043 
L 592.853061 300.119375 
L 593.393878 300.215862 
L 593.934694 300.755179 
L 594.47551 301.520186 
L 596.097959 302.6558 
L 597.179592 301.708347 
L 598.261224 302.236222 
L 598.802041 302.094821 
L 599.342857 301.636139 
L 599.883673 301.6764 
L 600.42449 302.299481 
L 600.965306 302.547982 
L 601.506122 303.663297 
L 602.046939 304.190461 
L 602.587755 304.097946 
L 603.128571 303.653179 
L 604.210204 303.666544 
L 605.291837 302.405379 
L 605.832653 301.484758 
L 606.914286 300.699005 
L 607.455102 300.65576 
L 607.995918 300.37744 
L 608.536735 300.394503 
L 609.077551 298.92975 
L 609.618367 298.598121 
L 610.159184 298.936813 
L 610.7 298.73896 
L 610.7 298.73896 
" clip-path="url(#p00162076db)" style="fill: none; stroke: #ff7f0e; stroke-width: 1.5; stroke-linecap: square"/>
   </g>
   <g id="patch_3">
    <path d="M 54.2 318.04 
L 54.2 25.44 
" style="fill: none; stroke: #000000; stroke-width: 0.8; stroke-linejoin: miter; stroke-linecap: square"/>
   </g>
   <g id="patch_4">
    <path d="M 637.2 318.04 
L 637.2 25.44 
" style="fill: none; stroke: #000000; stroke-width: 0.8; stroke-linejoin: miter; stroke-linecap: square"/>
   </g>
   <g id="patch_5">
    <path d="M 54.2 318.04 
L 637.2 318.04 
" style="fill: none; stroke: #000000; stroke-width: 0.8; stroke-linejoin: miter; stroke-linecap: square"/>
   </g>
   <g id="patch_6">
    <path d="M 54.2 25.44 
L 637.2 25.44 
" style="fill: none; stroke: #000000; stroke-width: 0.8; stroke-linejoin: miter; stroke-linecap: square"/>
   </g>
   <g id="text_14">
    <!-- Generator total loss on generator-update steps (moving average 20) -->
    <g transform="translate(139.310312 19.44) scale(0.12 -0.12)">
     <defs>
      <path id="DejaVuSans-47" d="M 3809 666 
L 3809 1919 
L 2778 1919 
L 2778 2438 
L 4434 2438 
L 4434 434 
Q 4069 175 3628 42 
Q 3188 -91 2688 -91 
Q 1594 -91 976 548 
Q 359 1188 359 2328 
Q 359 3472 976 4111 
Q 1594 4750 2688 4750 
Q 3144 4750 3555 4637 
Q 3966 4525 4313 4306 
L 4313 3634 
Q 3963 3931 3569 4081 
Q 3175 4231 2741 4231 
Q 1884 4231 1454 3753 
Q 1025 3275 1025 2328 
Q 1025 1384 1454 906 
Q 1884 428 2741 428 
Q 3075 428 3337 486 
Q 3600 544 3809 666 
z
" transform="scale(0.015625)"/>
      <path id="DejaVuSans-6e" d="M 3513 2113 
L 3513 0 
L 2938 0 
L 2938 2094 
Q 2938 2591 2744 2837 
Q 2550 3084 2163 3084 
Q 1697 3084 1428 2787 
Q 1159 2491 1159 1978 
L 1159 0 
L 581 0 
L 581 3500 
L 1159 3500 
L 1159 2956 
Q 1366 3272 1645 3428 
Q 1925 3584 2291 3584 
Q 2894 3584 3203 3211 
Q 3513 2838 3513 2113 
z
" transform="scale(0.015625)"/>
      <path id="DejaVuSans-72" d="M 2631 2963 
Q 2534 3019 2420 3045 
Q 2306 3072 2169 3072 
Q 1681 3072 1420 2755 
Q 1159 2438 1159 1844 
L 1159 0 
L 581 0 
L 581 3500 
L 1159 3500 
L 1159 2956 
Q 1341 3275 1631 3429 
Q 1922 3584 2338 3584 
Q 2397 3584 2469 3576 
Q 2541 3569 2628 3553 
L 2631 2963 
z
" transform="scale(0.015625)"/>
      <path id="DejaVuSans-61" d="M 2194 1759 
Q 1497 1759 1228 1600 
Q 959 1441 959 1056 
Q 959 750 1161 570 
Q 1363 391 1709 391 
Q 2188 391 2477 730 
Q 2766 1069 2766 1631 
L 2766 1759 
L 2194 1759 
z
M 3341 1997 
L 3341 0 
L 2766 0 
L 2766 531 
Q 2569 213 2275 61 
Q 1981 -91 1556 -91 
Q 1019 -91 701 211 
Q 384 513 384 1019 
Q 384 1609 779 1909 
Q 1175 2209 1959 2209 
L 2766 2209 
L 2766 2266 
Q 2766 2663 2505 2880 
Q 2244 3097 1772 3097 
Q 1472 3097 1187 3025 
Q 903 2953 641 2809 
L 641 3341 
Q 956 3463 1253 3523 
Q 1550 3584 1831 3584 
Q 2591 3584 2966 3190 
Q 3341 2797 3341 1997 
z
" transform="scale(0.015625)"/>
      <path id="DejaVuSans-20" transform="scale(0.015625)"/>
      <path id="DejaVuSans-67" d="M 2906 1791 
Q 2906 2416 2648 2759 
Q 2391 3103 1925 3103 
Q 1463 3103 1205 2759 
Q 947 2416 947 1791 
Q 947 1169 1205 825 
Q 1463 481 1925 481 
Q 2391 481 2648 825 
Q 2906 1169 2906 1791 
z
M 3481 434 
Q 3481 -459 3084 -895 
Q 2688 -1331 1869 -1331 
Q 1566 -1331 1297 -1286 
Q 1028 -1241 775 -1147 
L 775 -588 
Q 1028 -725 1275 -790 
Q 1522 -856 1778 -856 
Q 2344 -856 2625 -561 
Q 2906 -266 2906 331 
L 2906 616 
Q 2728 306 2450 153 
Q 2172 0 1784 0 
Q 1141 0 747 490 
Q 353 981 353 1791 
Q 353 2603 747 3093 
Q 1141 3584 1784 3584 
Q 2172 3584 2450 3431 
Q 2728 3278 2906 2969 
L 2906 3500 
L 3481 3500 
L 3481 434 
z
" transform="scale(0.015625)"/>
      <path id="DejaVuSans-2d" d="M 313 2009 
L 1997 2009 
L 1997 1497 
L 313 1497 
L 313 2009 
z
" transform="scale(0.015625)"/>
      <path id="DejaVuSans-75" d="M 544 1381 
L 544 3500 
L 1119 3500 
L 1119 1403 
Q 1119 906 1312 657 
Q 1506 409 1894 409 
Q 2359 409 2629 706 
Q 2900 1003 2900 1516 
L 2900 3500 
L 3475 3500 
L 3475 0 
L 2900 0 
L 2900 538 
Q 2691 219 2414 64 
Q 2138 -91 1772 -91 
Q 1169 -91 856 284 
Q 544 659 544 1381 
z
M 1991 3584 
L 1991 3584 
z
" transform="scale(0.015625)"/>
      <path id="DejaVuSans-64" d="M 2906 2969 
L 2906 4863 
L 3481 4863 
L 3481 0 
L 2906 0 
L 2906 525 
Q 2725 213 2448 61 
Q 2172 -91 1784 -91 
Q 1150 -91 751 415 
Q 353 922 353 1747 
Q 353 2572 751 3078 
Q 1150 3584 1784 3584 
Q 2172 3584 2448 3432 
Q 2725 3281 2906 2969 
z
M 947 1747 
Q 947 1113 1208 752 
Q 1469 391 1925 391 
Q 2381 391 2643 752 
Q 2906 1113 2906 1747 
Q 2906 2381 2643 2742 
Q 2381 3103 1925 3103 
Q 1469 3103 1208 2742 
Q 947 2381 947 1747 
z
" transform="scale(0.015625)"/>
      <path id="DejaVuSans-28" d="M 1984 4856 
Q 1566 4138 1362 3434 
Q 1159 2731 1159 2009 
Q 1159 1288 1364 580 
Q 1569 -128 1984 -844 
L 1484 -844 
Q 1016 -109 783 600 
Q 550 1309 550 2009 
Q 550 2706 781 3412 
Q 1013 4119 1484 4856 
L 1984 4856 
z
" transform="scale(0.015625)"/>
      <path id="DejaVuSans-6d" d="M 3328 2828 
Q 3544 3216 3844 3400 
Q 4144 3584 4550 3584 
Q 5097 3584 5394 3201 
Q 5691 2819 5691 2113 
L 5691 0 
L 5113 0 
L 5113 2094 
Q 5113 2597 4934 2840 
Q 4756 3084 4391 3084 
Q 3944 3084 3684 2787 
Q 3425 2491 3425 1978 
L 3425 0 
L 2847 0 
L 2847 2094 
Q 2847 2600 2669 2842 
Q 2491 3084 2119 3084 
Q 1678 3084 1418 2786 
Q 1159 2488 1159 1978 
L 1159 0 
L 581 0 
L 581 3500 
L 1159 3500 
L 1159 2956 
Q 1356 3278 1631 3431 
Q 1906 3584 2284 3584 
Q 2666 3584 2933 3390 
Q 3200 3197 3328 2828 
z
" transform="scale(0.015625)"/>
      <path id="DejaVuSans-76" d="M 191 3500 
L 800 3500 
L 1894 563 
L 2988 3500 
L 3597 3500 
L 2284 0 
L 1503 0 
L 191 3500 
z
" transform="scale(0.015625)"/>
      <path id="DejaVuSans-69" d="M 603 3500 
L 1178 3500 
L 1178 0 
L 603 0 
L 603 3500 
z
M 603 4863 
L 1178 4863 
L 1178 4134 
L 603 4134 
L 603 4863 
z
" transform="scale(0.015625)"/>
      <path id="DejaVuSans-29" d="M 513 4856 
L 1013 4856 
Q 1481 4119 1714 3412 
Q 1947 2706 1947 2009 
Q 1947 1309 1714 600 
Q 1481 -109 1013 -844 
L 513 -844 
Q 928 -128 1133 580 
Q 1338 1288 1338 2009 
Q 1338 2731 1133 3434 
Q 928 4138 513 4856 
z
" transform="scale(0.015625)"/>
     </defs>
     <use xlink:href="#DejaVuSans-47"/>
     <use xlink:href="#DejaVuSans-65" transform="translate(77.490234 0)"/>
     <use xlink:href="#DejaVuSans-6e" transform="translate(139.013672 0)"/>
     <use xlink:href="#DejaVuSans-65" transform="translate(202.392578 0)"/>
     <use xlink:href="#DejaVuSans-72" transform="translate(263.916016 0)"/>
     <use xlink:href="#DejaVuSans-61" transform="translate(305.029297 0)"/>
     <use xlink:href="#DejaVuSans-74" transform="translate(366.308594 0)"/>
     <use xlink:href="#DejaVuSans-6f" transform="translate(405.517578 0)"/>
     <use xlink:href="#DejaVuSans-72" transform="translate(466.699219 0)"/>
     <use xlink:href="#DejaVuSans-20" transform="translate(507.8125 0)"/>
     <use xlink:href="#DejaVuSans-74" transform="translate(539.599609 0)"/>
     <use xlink:href="#DejaVuSans-6f" transform="translate(578.808594 0)"/>
     <use xlink:href="#DejaVuSans-74" transform="translate(639.990234 0)"/>
     <use xlink:href="#DejaVuSans-61" transform="translate(679.199219 0)"/>
     <use xlink:href="#DejaVuSans-6c" transform="translate(740.478516 0)"/>
     <use xlink:href="#DejaVuSans-20" transform="translate(768.261719 0)"/>
     <use xlink:href="#DejaVuSans-6c" transform="translate(800.048828 0)"/>
     <use xlink:href="#DejaVuSans-6f" transform="translate(827.832031 0)"/>
     <use xlink:href="#DejaVuSans-73" transform="translate(889.013672 0)"/>
     <use xlink:href="#DejaVuSans-73" transform="translate(941.113281 0)"/>
     <use xlink:href="#DejaVuSans-20" transform="translate(993.212891 0)"/>
     <use xlink:href="#DejaVuSans-6f" transform="translate(1025 0)"/>
     <use xlink:href="#DejaVuSans-6e" transform="translate(1086.181641 0)"/>
     <use xlink:href="#DejaVuSans-20" transform="translate(1149.560547 0)"/>
     <use xlink:href="#DejaVuSans-67" transform="translate(1181.347656 0)"/>
     <use xlink:href="#DejaVuSans-65" transform="translate(1244.824219 0)"/>
     <use xlink:href="#DejaVuSans-6e" transform="translate(1306.347656 0)"/>
     <use xlink:href="#DejaVuSans-65" transform="translate(1369.726562 0)"/>
     <use xlink:href="#DejaVuSans-72" transform="translate(1431.25 0)"/>
     <use xlink:href="#DejaVuSans-61" transform="translate(1472.363281 0)"/>
     <use xlink:href="#DejaVuSans-74" transform="translate(1533.642578 0)"/>
     <use xlink:href="#DejaVuSans-6f" transform="translate(1572.851562 0)"/>
     <use xlink:href="#DejaVuSans-72" transform="translate(1634.033203 0)"/>
     <use xlink:href="#DejaVuSans-2d" transform="translate(1668.771484 0)"/>
     <use xlink:href="#DejaVuSans-75" transform="translate(1704.855469 0)"/>
     <use xlink:href="#DejaVuSans-70" transform="translate(1768.234375 0)"/>
     <use xlink:href="#DejaVuSans-64" transform="translate(1831.710938 0)"/>
     <use xlink:href="#DejaVuSans-61" transform="translate(1895.1875 0)"/>
     <use xlink:href="#DejaVuSans-74" transform="translate(1956.466797 0)"/>
     <use xlink:href="#DejaVuSans-65" transform="translate(1995.675781 0)"/>
     <use xlink:href="#DejaVuSans-20" transform="translate(2057.199219 0)"/>
     <use xlink:href="#DejaVuSans-73" transform="translate(2088.986328 0)"/>
     <use xlink:href="#DejaVuSans-74" transform="translate(2141.085938 0)"/>
     <use xlink:href="#DejaVuSans-65" transform="translate(2180.294922 0)"/>
     <use xlink:href="#DejaVuSans-70" transform="translate(2241.818359 0)"/>
     <use xlink:href="#DejaVuSans-73" transform="translate(2305.294922 0)"/>
     <use xlink:href="#DejaVuSans-20" transform="translate(2357.394531 0)"/>
     <use xlink:href="#DejaVuSans-28" transform="translate(2389.181641 0)"/>
     <use xlink:href="#DejaVuSans-6d" transform="translate(2428.195312 0)"/>
     <use xlink:href="#DejaVuSans-6f" transform="translate(2525.607422 0)"/>
     <use xlink:href="#DejaVuSans-76" transform="translate(2586.789062 0)"/>
     <use xlink:href="#DejaVuSans-69" transform="translate(2645.96875 0)"/>
     <use xlink:href="#DejaVuSans-6e" transform="translate(2673.751953 0)"/>
     <use xlink:href="#DejaVuSans-67" transform="translate(2737.130859 0)"/>
     <use xlink:href="#DejaVuSans-20" transform="translate(2800.607422 0)"/>
     <use xlink:href="#DejaVuSans-61" transform="translate(2832.394531 0)"/>
     <use xlink:href="#DejaVuSans-76" transform="translate(2893.673828 0)"/>
     <use xlink:href="#DejaVuSans-65" transform="translate(2952.853516 0)"/>
     <use xlink:href="#DejaVuSans-72" transform="translate(3014.376953 0)"/>
     <use xlink:href="#DejaVuSans-61" transform="translate(3055.490234 0)"/>
     <use xlink:href="#DejaVuSans-67" transform="translate(3116.769531 0)"/>
     <use xlink:href="#DejaVuSans-65" transform="translate(3180.246094 0)"/>
     <use xlink:href="#DejaVuSans-20" transform="translate(3241.769531 0)"/>
     <use xlink:href="#DejaVuSans-32" transform="translate(3273.556641 0)"/>
     <use xlink:href="#DejaVuSans-30" transform="translate(3337.179688 0)"/>
     <use xlink:href="#DejaVuSans-29" transform="translate(3400.802734 0)"/>
    </g>
   </g>
   <g id="legend_1">
    <g id="patch_7">
     <path d="M 560.003125 62.79625 
L 630.2 62.79625 
Q 632.2 62.79625 632.2 60.79625 
L 632.2 32.44 
Q 632.2 30.44 630.2 30.44 
L 560.003125 30.44 
Q 558.003125 30.44 558.003125 32.44 
L 558.003125 60.79625 
Q 558.003125 62.79625 560.003125 62.79625 
z
" style="fill: #ffffff; opacity: 0.8; stroke: #cccccc; stroke-linejoin: miter"/>
    </g>
    <g id="line2d_25">
     <path d="M 562.003125 38.538437 
L 572.003125 38.538437 
L 582.003125 38.538437 
" style="fill: none; stroke: #1f77b4; stroke-width: 1.5; stroke-linecap: square"/>
    </g>
    <g id="text_15">
     <!-- PyTorch -->
     <g transform="translate(590.003125 42.038437) scale(0.1 -0.1)">
      <defs>
       <path id="DejaVuSans-50" d="M 1259 4147 
L 1259 2394 
L 2053 2394 
Q 2494 2394 2734 2622 
Q 2975 2850 2975 3272 
Q 2975 3691 2734 3919 
Q 2494 4147 2053 4147 
L 1259 4147 
z
M 628 4666 
L 2053 4666 
Q 2838 4666 3239 4311 
Q 3641 3956 3641 3272 
Q 3641 2581 3239 2228 
Q 2838 1875 2053 1875 
L 1259 1875 
L 1259 0 
L 628 0 
L 628 4666 
z
" transform="scale(0.015625)"/>
       <path id="DejaVuSans-79" d="M 2059 -325 
Q 1816 -950 1584 -1140 
Q 1353 -1331 966 -1331 
L 506 -1331 
L 506 -850 
L 844 -850 
Q 1081 -850 1212 -737 
Q 1344 -625 1503 -206 
L 1606 56 
L 191 3500 
L 800 3500 
L 1894 763 
L 2988 3500 
L 3597 3500 
L 2059 -325 
z
" transform="scale(0.015625)"/>
       <path id="DejaVuSans-54" d="M -19 4666 
L 3928 4666 
L 3928 4134 
L 2272 4134 
L 2272 0 
L 1638 0 
L 1638 4134 
L -19 4134 
L -19 4666 
z
" transform="scale(0.015625)"/>
       <path id="DejaVuSans-63" d="M 3122 3366 
L 3122 2828 
Q 2878 2963 2633 3030 
Q 2388 3097 2138 3097 
Q 1578 3097 1268 2742 
Q 959 2388 959 1747 
Q 959 1106 1268 751 
Q 1578 397 2138 397 
Q 2388 397 2633 464 
Q 2878 531 3122 666 
L 3122 134 
Q 2881 22 2623 -34 
Q 2366 -91 2075 -91 
Q 1284 -91 818 406 
Q 353 903 353 1747 
Q 353 2603 823 3093 
Q 1294 3584 2113 3584 
Q 2378 3584 2631 3529 
Q 2884 3475 3122 3366 
z
" transform="scale(0.015625)"/>
       <path id="DejaVuSans-68" d="M 3513 2113 
L 3513 0 
L 2938 0 
L 2938 2094 
Q 2938 2591 2744 2837 
Q 2550 3084 2163 3084 
Q 1697 3084 1428 2787 
Q 1159 2491 1159 1978 
L 1159 0 
L 581 0 
L 581 4863 
L 1159 4863 
L 1159 2956 
Q 1366 3272 1645 3428 
Q 1925 3584 2291 3584 
Q 2894 3584 3203 3211 
Q 3513 2838 3513 2113 
z
" transform="scale(0.015625)"/>
      </defs>
      <use xlink:href="#DejaVuSans-50"/>
      <use xlink:href="#DejaVuSans-79" transform="translate(60.302734 0)"/>
      <use xlink:href="#DejaVuSans-54" transform="translate(119.482422 0)"/>
      <use xlink:href="#DejaVuSans-6f" transform="translate(163.566406 0)"/>
      <use xlink:href="#DejaVuSans-72" transform="translate(224.748047 0)"/>
      <use xlink:href="#DejaVuSans-63" transform="translate(263.611328 0)"/>
      <use xlink:href="#DejaVuSans-68" transform="translate(318.591797 0)"/>
     </g>
    </g>
    <g id="line2d_26">
     <path d="M 562.003125 53.216563 
L 572.003125 53.216563 
L 582.003125 53.216563 
" style="fill: none; stroke: #ff7f0e; stroke-width: 1.5; stroke-linecap: square"/>
    </g>
    <g id="text_16">
     <!-- Jittor -->
     <g transform="translate(590.003125 56.716563) scale(0.1 -0.1)">
      <defs>
       <path id="DejaVuSans-4a" d="M 628 4666 
L 1259 4666 
L 1259 325 
Q 1259 -519 939 -900 
Q 619 -1281 -91 -1281 
L -331 -1281 
L -331 -750 
L -134 -750 
Q 284 -750 456 -515 
Q 628 -281 628 325 
L 628 4666 
z
" transform="scale(0.015625)"/>
      </defs>
      <use xlink:href="#DejaVuSans-4a"/>
      <use xlink:href="#DejaVuSans-69" transform="translate(29.492188 0)"/>
      <use xlink:href="#DejaVuSans-74" transform="translate(57.275391 0)"/>
      <use xlink:href="#DejaVuSans-74" transform="translate(96.484375 0)"/>
      <use xlink:href="#DejaVuSans-6f" transform="translate(135.693359 0)"/>
      <use xlink:href="#DejaVuSans-72" transform="translate(196.875 0)"/>
     </g>
    </g>
   </g>
  </g>
 </g>
 <defs>
  <clipPath id="p00162076db">
   <rect x="54.2" y="25.44" width="583" height="292.6"/>
  </clipPath>
 </defs>
</svg>
